# Blender v2.78 (sub 0) OBJ File: 'art.blend'
# www.blender.org
mtllib ceil_light.mtl
o Cube.023_Cube.034
v 1.067520 -0.094491 0.122880
v -1.287680 0.107612 0.192000
v 1.067520 -0.094491 -0.122880
v -1.287680 0.107612 -0.192000
v 1.067520 0.107612 0.192000
v 1.272320 0.107612 0.192000
v 1.067520 0.107612 -0.192000
v 1.272320 0.107612 -0.192000
v -1.287680 -0.094491 0.122880
v -1.287680 -0.094491 -0.122880
v 1.272320 -0.094491 0.122880
v 1.272320 -0.094491 -0.122880
v -1.287680 -0.023285 0.278195
v -1.287680 0.010165 0.287459
v -1.287680 0.010165 -0.287459
v -1.287680 -0.023285 -0.278195
v 1.272320 0.010165 0.287459
v 1.272320 -0.023285 0.278195
v 1.272320 0.010165 -0.287459
v 1.272320 -0.023285 -0.278195
v 1.067520 -0.023285 -0.278195
v 1.067520 0.010165 -0.287459
v 1.067520 -0.023285 0.278195
v 1.067520 0.010165 0.287459
v -1.052160 -0.023285 0.278195
v -1.052160 -0.094491 0.122880
v -1.052160 0.107612 0.192000
v -1.052160 -0.094491 -0.122880
v -1.052160 0.107612 -0.192000
v -1.052160 0.010165 -0.287459
v -1.052160 -0.023285 -0.278195
v -1.052160 0.010165 0.287459
vt 0.0000 0.9080
vt 0.0680 0.9080
vt 0.0680 1.0000
vt 0.0000 1.0000
vt 0.4098 0.0800
vt 0.4098 0.0000
vt 0.5205 0.0000
vt 0.5205 0.0800
vt 0.8998 0.2210
vt 0.8998 0.0036
vt 0.9505 0.0643
vt 0.9505 0.1603
vt 0.8064 0.9080
vt 0.8064 1.0000
vt 0.6957 1.0000
vt 0.6957 0.9080
vt 0.8759 0.2246
vt 0.8064 0.1873
vt 0.8064 0.0373
vt 0.8759 0.0000
vt 0.3418 0.9080
vt 0.3418 1.0000
vt 0.6957 0.0000
vt 0.6957 0.0800
vt 0.8759 0.4492
vt 0.8064 0.4119
vt 0.8064 0.2619
vt 0.8759 0.2246
vt 0.9505 0.9080
vt 0.9505 0.0800
vt 0.9753 0.0800
vt 0.9753 0.9080
vt 0.4098 0.0800
vt 0.3418 0.0800
vt 0.3418 0.0000
vt 0.4098 0.0000
vt 0.8998 0.2282
vt 0.8998 0.4455
vt 1.0000 0.9080
vt 1.0000 1.0000
vt 0.9753 1.0000
vt 0.9753 0.9080
vt 0.9505 0.0000
vt 0.9753 0.0000
vt 0.9505 0.2889
vt 0.9505 0.3849
vt 1.0000 0.0000
vt 1.0000 0.0800
vt 0.9753 0.0800
vt 0.9753 0.0000
vt 0.4098 0.9080
vt 0.0680 0.0800
vt 0.0680 0.0000
vt 0.8064 0.0000
vt 0.8064 0.0800
vt 0.0000 0.0000
vt 0.0000 0.0800
vt 0.4098 1.0000
vt 0.4098 0.9080
vt 0.5205 0.9080
vt 0.5205 1.0000
vt 0.4098 1.0000
vt 0.9505 1.0000
vt 0.9753 1.0000
vn 0.0000 0.6998 0.7144
vn 0.0000 -0.9090 -0.4168
vn 1.0000 -0.0000 0.0000
vn 0.0000 -0.9090 0.4168
vn 0.0000 1.0000 0.0000
vn 0.0000 -1.0000 0.0000
vn -1.0000 0.0000 0.0000
vn 0.0000 -0.2669 0.9637
vn 0.0000 0.6998 -0.7144
vn 0.0000 -0.2669 -0.9637
usemtl Dark
s off
f 32/1/1 27/2/1 2/3/1 14/4/1
f 21/5/2 20/6/2 12/7/2 3/8/2
f 20/9/3 18/10/3 11/11/3 12/12/3
f 25/13/4 13/14/4 9/15/4 26/16/4
f 19/17/3 8/18/3 6/19/3 17/20/3
f 29/21/5 4/22/5 2/3/5 27/2/5
f 3/8/6 12/7/6 11/23/6 1/24/6
f 14/25/7 2/26/7 4/27/7 15/28/7
f 25/29/8 23/30/8 24/31/8 32/32/8
f 22/33/9 7/34/9 8/35/9 19/36/9
f 16/37/7 13/38/7 14/25/7 15/28/7
f 31/39/10 16/40/10 15/41/10 30/42/10
f 18/10/3 20/9/3 19/17/3 17/20/3
f 23/30/8 18/43/8 17/44/8 24/31/8
f 13/38/7 16/37/7 10/45/7 9/46/7
f 20/47/10 21/48/10 22/49/10 19/50/10
f 30/51/9 29/21/9 7/34/9 22/33/9
f 8/35/5 7/34/5 5/52/5 6/53/5
f 18/54/4 23/55/4 1/24/4 11/23/4
f 17/56/1 6/53/1 5/52/1 24/57/1
f 16/58/2 31/59/2 28/60/2 10/61/2
f 10/61/6 28/60/6 26/16/6 9/15/6
f 15/62/9 4/22/9 29/21/9 30/51/9
f 21/48/10 31/39/10 30/42/10 22/49/10
f 13/63/8 25/29/8 32/32/8 14/64/8
f 7/34/5 29/21/5 27/2/5 5/52/5
f 24/57/1 5/52/1 27/2/1 32/1/1
usemtl Material.005
f 28/60/6 3/8/6 1/24/6 26/16/6
f 31/59/2 21/5/2 3/8/2 28/60/2
f 23/55/4 25/13/4 26/16/4 1/24/4
