# Blender v2.78 (sub 0) OBJ File: 'art.blend'
# www.blender.org
mtllib ceil_light.mtl
o Cube.023_Cube.034
v 1.067520 -0.094491 0.122880
v -1.287680 0.107612 0.192000
v 1.067520 -0.094491 -0.122880
v -1.287680 0.107612 -0.192000
v 1.067520 0.107612 0.192000
v 1.272320 0.107612 0.192000
v 1.067520 0.107612 -0.192000
v 1.272320 0.107612 -0.192000
v -1.287680 -0.094491 0.122880
v -1.287680 -0.094491 -0.122880
v 1.272320 -0.094491 0.122880
v 1.272320 -0.094491 -0.122880
v -1.287680 -0.023285 0.278195
v -1.287680 0.010165 0.287459
v -1.287680 0.010165 -0.287459
v -1.287680 -0.023285 -0.278195
v 1.272320 0.010165 0.287459
v 1.272320 -0.023285 0.278195
v 1.272320 0.010165 -0.287459
v 1.272320 -0.023285 -0.278195
v 1.067520 -0.023285 -0.278195
v 1.067520 0.010165 -0.287459
v 1.067520 -0.023285 0.278195
v 1.067520 0.010165 0.287459
v -1.052160 -0.023285 0.278195
v -1.052160 -0.094491 0.122880
v -1.052160 0.107612 0.192000
v -1.052160 -0.094491 -0.122880
v -1.052160 0.107612 -0.192000
v -1.052160 0.010165 -0.287459
v -1.052160 -0.023285 -0.278195
v -1.052160 0.010165 0.287459
vn 0.0000 0.6998 0.7144
vn 0.0000 -0.9090 -0.4168
vn 1.0000 -0.0000 0.0000
vn 0.0000 -0.9090 0.4168
vn 0.0000 1.0000 0.0000
vn 0.0000 -1.0000 0.0000
vn -1.0000 0.0000 0.0000
vn 0.0000 -0.2669 0.9637
vn 0.0000 0.6998 -0.7144
vn 0.0000 -0.2669 -0.9637
usemtl Dark
s off
f 32//1 27//1 2//1 14//1
f 21//2 20//2 12//2 3//2
f 20//3 18//3 11//3 12//3
f 25//4 13//4 9//4 26//4
f 19//3 8//3 6//3 17//3
f 29//5 4//5 2//5 27//5
f 3//6 12//6 11//6 1//6
f 14//7 2//7 4//7 15//7
f 25//8 23//8 24//8 32//8
f 22//9 7//9 8//9 19//9
f 16//7 13//7 14//7 15//7
f 31//10 16//10 15//10 30//10
f 18//3 20//3 19//3 17//3
f 23//8 18//8 17//8 24//8
f 13//7 16//7 10//7 9//7
f 20//10 21//10 22//10 19//10
f 30//9 29//9 7//9 22//9
f 8//5 7//5 5//5 6//5
f 18//4 23//4 1//4 11//4
f 17//1 6//1 5//1 24//1
f 16//2 31//2 28//2 10//2
f 10//6 28//6 26//6 9//6
f 15//9 4//9 29//9 30//9
f 21//10 31//10 30//10 22//10
f 13//8 25//8 32//8 14//8
f 7//5 29//5 27//5 5//5
f 24//1 5//1 27//1 32//1
usemtl Material.005
f 28//6 3//6 1//6 26//6
f 31//2 21//2 3//2 28//2
f 23//4 25//4 26//4 1//4
