# Blender v2.78 (sub 0) OBJ File: 'art.blend'
# www.blender.org
mtllib computer.mtl
o Cube.018_Cube.027
v 0.000000 0.002500 -0.342000
v 0.000000 0.002500 0.342000
v -0.120000 0.002500 -0.227384
v 0.120000 0.002500 -0.227384
v 0.000000 0.002500 -0.227384
v 0.120000 0.338349 -0.227384
v -0.120000 0.002500 0.298427
v 0.000272 0.480548 0.297381
v 0.000000 0.002500 0.298427
v 0.120000 0.002500 0.298427
v 0.120000 0.338349 0.298427
v -0.000205 0.071607 -0.348761
v 0.120000 0.079855 -0.227384
v 0.120000 0.079855 0.298427
v 0.060656 0.496855 -0.289284
v -0.002107 0.017707 0.312015
v 0.111609 0.338349 -0.227384
v 0.111609 0.338349 0.298427
v 0.111609 0.079855 -0.227384
v 0.111609 0.079855 0.298427
v -0.058640 0.003054 -0.340322
v -0.061348 0.003052 -0.340321
v 0.039046 0.074300 -0.346554
v 0.078296 0.076994 -0.344346
v 0.038584 0.314232 -0.361770
v 0.078058 0.325925 -0.352184
v 0.078367 0.002500 -0.342000
v 0.039184 0.002500 -0.342000
v 0.039046 0.074300 -0.335850
v 0.078296 0.076994 -0.335850
v 0.038584 0.314232 -0.335850
v 0.078058 0.325925 -0.335850
v -0.061354 0.002500 -0.342000
v -0.058646 0.002500 -0.342000
v 0.060658 0.497797 -0.290553
v -0.091351 0.002500 -0.342000
v -0.088649 0.002500 -0.342000
v 0.033772 0.506993 -0.267245
v 0.031556 0.507751 -0.265324
v 0.031542 0.506755 -0.264143
v 0.033758 0.505997 -0.266064
v -0.088642 0.002520 -0.340143
v -0.091345 0.002520 -0.340143
v -0.117495 0.002500 0.342000
v -0.120000 0.002500 0.334861
v -0.120000 0.472542 0.334861
v -0.117495 0.472542 0.342000
v -0.117495 0.477500 0.334861
v -0.120000 0.002500 -0.334861
v -0.117495 0.002500 -0.342000
v -0.120000 0.472542 -0.334861
v -0.117528 0.478297 -0.332561
v -0.112575 0.476360 -0.341438
v -0.117514 0.471039 -0.342869
v 0.120000 0.002500 0.334861
v 0.117495 0.002500 0.342000
v 0.120000 0.472542 0.334861
v 0.117495 0.477500 0.334861
v 0.117495 0.472542 0.342000
v 0.117495 0.002500 -0.342000
v 0.120000 0.002500 -0.334861
v 0.112887 0.477942 -0.339003
v 0.117532 0.478344 -0.335298
v 0.120000 0.472542 -0.334861
v 0.117513 0.471396 -0.342852
v -0.003442 0.430374 -0.380630
v 0.001235 0.422849 -0.382175
v -0.003728 0.422535 -0.382122
v 0.000043 0.477985 0.334895
v 0.000000 0.472542 0.342000
v -0.120000 0.472542 -0.227384
v -0.117528 0.478297 -0.227658
v 0.117532 0.478344 -0.227674
v 0.120000 0.472542 -0.227384
v 0.007433 0.516002 -0.244411
v -0.004446 0.514751 -0.240162
v 0.003509 0.516844 -0.233942
v 0.006019 0.516486 -0.240757
v 0.120000 0.338349 -0.334861
v 0.117504 0.337610 -0.342606
v 0.120000 0.338349 0.334861
v 0.001601 0.303277 -0.370750
v -0.000876 0.297592 -0.370871
v 0.120000 0.472542 0.298427
v 0.117495 0.477564 0.298405
v -0.120000 0.472542 0.298427
v -0.117495 0.477564 0.298405
v 0.117496 0.079684 -0.342141
v 0.120000 0.079855 -0.334861
v 0.120000 0.079855 0.334861
v -0.056352 0.452077 -0.359911
v -0.059247 0.445613 -0.361319
v 0.060656 0.496855 -0.289284
v 0.060477 0.495198 -0.292615
v -0.056384 0.452682 -0.361548
v -0.059278 0.446214 -0.362974
v -0.059062 0.453819 -0.360586
v -0.061966 0.447357 -0.362046
v 0.060646 0.495576 -0.287552
v 0.060480 0.496134 -0.293890
v -0.088970 0.458871 -0.352721
v -0.086166 0.465243 -0.350890
v -0.091652 0.460011 -0.351795
v -0.088840 0.466378 -0.349932
v -0.061910 0.447114 -0.360226
v -0.059005 0.453561 -0.358779
v -0.086143 0.464589 -0.349292
v -0.088947 0.458219 -0.351105
v -0.091602 0.459726 -0.349986
v -0.088788 0.466078 -0.348137
v -0.002107 0.017707 0.342000
v -0.103098 0.455378 0.342000
v 0.098885 0.017707 0.342000
v -0.002107 0.455378 0.342000
v 0.098885 0.455378 0.342000
v -0.103098 0.017707 0.342000
v -0.103098 0.455378 0.312015
v 0.098885 0.017707 0.312015
v -0.002107 0.455378 0.312015
v 0.098885 0.455378 0.312015
v -0.103098 0.017707 0.312015
v 0.039184 0.002500 -0.342000
v 0.000000 0.002500 -0.342000
v 0.120000 0.002500 0.298427
v 0.120000 0.002500 -0.227384
v -0.120000 0.002500 -0.227384
v -0.120000 0.002500 0.298427
v 0.120000 0.338349 -0.227384
v 0.120000 0.338349 -0.227384
v 0.120000 0.338349 0.298427
v 0.120000 0.338349 0.298427
v 0.120000 0.079855 -0.227384
v 0.120000 0.079855 -0.227384
v 0.120000 0.079855 0.298427
v 0.120000 0.079855 0.298427
v 0.031542 0.506755 -0.264143
v 0.031542 0.506755 -0.264143
v 0.033758 0.505997 -0.266064
v 0.033758 0.505997 -0.266064
v -0.088642 0.002520 -0.340143
v -0.088642 0.002520 -0.340143
v -0.091345 0.002520 -0.340143
v -0.091345 0.002520 -0.340143
v 0.111609 0.338349 -0.227384
v 0.111609 0.338349 -0.227384
v 0.111609 0.338349 0.298427
v 0.111609 0.338349 0.298427
v 0.111609 0.079855 -0.227384
v 0.111609 0.079855 -0.227384
v 0.111609 0.079855 0.298427
v 0.111609 0.079855 0.298427
v -0.058640 0.003054 -0.340322
v -0.058640 0.003054 -0.340322
v -0.061348 0.003052 -0.340321
v -0.061348 0.003052 -0.340321
v 0.039046 0.074300 -0.346554
v 0.039046 0.074300 -0.346554
v 0.078296 0.076994 -0.344346
v 0.078296 0.076994 -0.344346
v 0.038584 0.314232 -0.361770
v 0.038584 0.314232 -0.361770
v 0.078058 0.325925 -0.352184
v 0.078058 0.325925 -0.352184
v 0.078367 0.002500 -0.342000
v 0.039046 0.074300 -0.335850
v 0.039046 0.074300 -0.335850
v 0.078296 0.076994 -0.335850
v 0.078296 0.076994 -0.335850
v 0.038584 0.314232 -0.335850
v 0.038584 0.314232 -0.335850
v 0.078058 0.325925 -0.335850
v 0.078058 0.325925 -0.335850
v -0.058646 0.002500 -0.342000
v -0.058646 0.002500 -0.342000
v -0.058646 0.002500 -0.342000
v -0.061354 0.002500 -0.342000
v -0.061354 0.002500 -0.342000
v -0.061354 0.002500 -0.342000
v 0.031556 0.507751 -0.265324
v 0.031556 0.507751 -0.265324
v 0.031556 0.507751 -0.265324
v 0.033772 0.506993 -0.267245
v 0.033772 0.506993 -0.267245
v 0.033772 0.506993 -0.267245
v 0.060656 0.496855 -0.289284
v 0.060656 0.496855 -0.289284
v 0.060658 0.497797 -0.290553
v 0.060658 0.497797 -0.290553
v 0.060658 0.497797 -0.290553
v -0.088649 0.002500 -0.342000
v -0.088649 0.002500 -0.342000
v -0.088649 0.002500 -0.342000
v -0.091351 0.002500 -0.342000
v -0.091351 0.002500 -0.342000
v -0.091351 0.002500 -0.342000
v -0.117495 0.472542 0.342000
v -0.117495 0.472542 0.342000
v -0.117495 0.477500 0.334861
v -0.117495 0.477500 0.334861
v -0.117514 0.471039 -0.342869
v -0.117514 0.471039 -0.342869
v -0.120000 0.472542 -0.334861
v -0.117528 0.478297 -0.332561
v -0.117528 0.478297 -0.332561
v -0.112575 0.476360 -0.341438
v -0.112575 0.476360 -0.341438
v 0.117495 0.477500 0.334861
v 0.117495 0.477500 0.334861
v 0.117495 0.472542 0.342000
v 0.117495 0.472542 0.342000
v 0.117513 0.471396 -0.342852
v 0.117513 0.471396 -0.342852
v 0.112887 0.477942 -0.339003
v 0.112887 0.477942 -0.339003
v 0.112887 0.477942 -0.339003
v 0.117532 0.478344 -0.335298
v 0.117532 0.478344 -0.335298
v 0.120000 0.472542 -0.334861
v -0.117528 0.478297 -0.227658
v -0.117495 0.002500 -0.342000
v -0.117495 0.002500 -0.342000
v -0.120000 0.002500 -0.334861
v -0.003442 0.430374 -0.380630
v 0.120000 0.002500 -0.334861
v 0.117495 0.002500 -0.342000
v 0.117495 0.002500 -0.342000
v 0.117496 0.079684 -0.342141
v 0.117495 0.477564 0.298405
v 0.117495 0.002500 0.342000
v 0.117495 0.002500 0.342000
v 0.120000 0.002500 0.334861
v 0.000043 0.477985 0.334895
v 0.000000 0.472542 0.342000
v -0.117495 0.477564 0.298405
v 0.117532 0.478344 -0.227674
v 0.117504 0.337610 -0.342606
v -0.120000 0.002500 0.334861
v -0.117495 0.002500 0.342000
v -0.117495 0.002500 0.342000
v -0.056352 0.452077 -0.359911
v -0.056352 0.452077 -0.359911
v -0.056352 0.452077 -0.359911
v -0.059247 0.445613 -0.361319
v -0.061910 0.447114 -0.360226
v -0.059005 0.453561 -0.358779
v -0.059005 0.453561 -0.358779
v -0.059005 0.453561 -0.358779
v -0.086143 0.464589 -0.349292
v -0.086143 0.464589 -0.349292
v -0.086143 0.464589 -0.349292
v -0.088947 0.458219 -0.351105
v -0.091602 0.459726 -0.349986
v -0.088788 0.466078 -0.348137
v -0.088788 0.466078 -0.348137
v -0.088788 0.466078 -0.348137
v -0.091652 0.460011 -0.351795
v -0.088840 0.466378 -0.349932
v -0.088840 0.466378 -0.349932
v -0.088840 0.466378 -0.349932
v -0.056384 0.452682 -0.361548
v -0.056384 0.452682 -0.361548
v -0.056384 0.452682 -0.361548
v -0.059278 0.446214 -0.362974
v 0.060646 0.495576 -0.287552
v 0.060646 0.495576 -0.287552
v 0.060480 0.496134 -0.293890
v 0.060480 0.496134 -0.293890
v 0.060480 0.496134 -0.293890
v 0.060477 0.495198 -0.292615
v 0.060477 0.495198 -0.292615
v 0.060656 0.496855 -0.289284
v 0.060656 0.496855 -0.289284
v -0.059062 0.453819 -0.360586
v -0.059062 0.453819 -0.360586
v -0.059062 0.453819 -0.360586
v -0.061966 0.447357 -0.362046
v -0.088970 0.458871 -0.352721
v -0.086166 0.465243 -0.350890
v -0.086166 0.465243 -0.350890
v -0.086166 0.465243 -0.350890
v 0.000000 0.002500 0.342000
v -0.103098 0.017707 0.342000
v -0.103098 0.017707 0.342000
v -0.103098 0.017707 0.312015
v -0.103098 0.017707 0.312015
v -0.103098 0.455378 0.312015
v -0.103098 0.455378 0.312015
v -0.103098 0.455378 0.342000
v -0.103098 0.455378 0.342000
v -0.002107 0.455378 0.342000
v 0.098885 0.455378 0.342000
v 0.098885 0.455378 0.342000
v 0.098885 0.017707 0.342000
v 0.098885 0.017707 0.342000
v -0.002107 0.017707 0.342000
v 0.098885 0.455378 0.312015
v 0.098885 0.455378 0.312015
v 0.098885 0.017707 0.312015
v 0.098885 0.017707 0.312015
v -0.002107 0.455378 0.312015
v -0.002107 0.017707 0.312015
vt 0.7346 0.0364
vt 0.7788 0.0724
vt 0.7788 0.0703
vt 0.7997 0.0880
vt 0.8014 0.0894
vt 0.8201 0.1052
vt 0.8212 0.1079
vt 0.7346 0.1147
vt 0.0000 0.0057
vt 0.0601 0.0057
vt 0.0601 0.0842
vt 0.0000 0.0841
vt 0.9641 0.0000
vt 0.9874 0.0000
vt 0.9874 0.0738
vt 0.9641 0.0738
vt 0.0000 0.4681
vt 0.0601 0.4682
vt 0.0601 0.4948
vt 0.0000 0.4947
vt 0.8293 0.1082
vt 0.9173 0.1147
vt 0.9173 0.4973
vt 0.8258 0.4967
vt 0.8232 0.1129
vt 0.6058 0.8224
vt 0.6072 0.8224
vt 0.6072 0.8244
vt 0.6058 0.8244
vt 0.2610 0.4683
vt 0.3652 0.4684
vt 0.3652 0.4950
vt 0.2610 0.4949
vt 0.7827 0.5716
vt 0.7825 0.6581
vt 0.7806 0.6622
vt 0.7788 0.5719
vt 0.7803 0.8255
vt 0.8109 0.6494
vt 0.8106 0.8233
vt 0.8410 0.8752
vt 0.8410 0.8211
vt 0.8713 0.8189
vt 0.8713 0.8751
vt 0.8713 0.5336
vt 0.8713 0.6310
vt 0.8411 0.6402
vt 0.7347 0.4972
vt 0.8014 0.0894
vt 0.8951 0.0249
vt 0.9135 0.0318
vt 0.7276 0.8868
vt 0.7276 0.5026
vt 0.7341 0.5026
vt 0.7341 0.8868
vt 0.7346 0.0868
vt 0.3745 0.0842
vt 0.3745 0.0058
vt 0.7346 0.0083
vt 0.1864 0.5320
vt 0.0932 0.5320
vt 0.0932 0.5001
vt 0.1845 0.5001
vt 0.1864 0.5053
vt 0.2610 0.0843
vt 0.3652 0.0844
vt 0.0932 0.9162
vt 0.0000 0.9162
vt 0.0000 0.5320
vt 0.1864 0.9162
vt 0.7346 0.8756
vt 0.7350 0.5537
vt 0.7802 0.8755
vt 0.8259 0.5238
vt 0.9173 0.5238
vt 0.9173 0.5286
vt 0.8260 0.5286
vt 0.8106 0.8753
vt 0.8259 0.5238
vt 0.7347 0.5237
vt 0.0000 0.5053
vt 0.0019 0.5001
vt 0.9173 0.0384
vt 0.0932 1.0000
vt 0.0628 1.0000
vt 0.0323 1.0000
vt 0.0019 1.0000
vt 0.0000 0.9948
vt 0.3691 0.5001
vt 0.3691 0.8436
vt 0.3579 0.8325
vt 0.3579 0.5127
vt 0.9173 0.5238
vt 0.2610 0.0058
vt 0.9568 0.5286
vt 0.9568 0.8698
vt 0.9364 0.8614
vt 0.9365 0.5287
vt 0.3698 0.5026
vt 0.5706 0.5027
vt 0.5706 0.8867
vt 0.3698 0.8866
vt 0.9801 0.9110
vt 0.9801 0.5286
vt 0.9866 0.5286
vt 0.9866 0.9110
vt 0.9908 0.7169
vt 0.9908 0.5286
vt 0.9973 0.5286
vt 0.9973 0.7169
vt 0.9808 0.5255
vt 0.9808 0.3366
vt 0.9873 0.3366
vt 0.9873 0.5255
vt 0.9175 0.5199
vt 0.9173 0.3452
vt 0.9480 0.3366
vt 0.9480 0.5179
vt 0.3652 0.0059
vt 0.9641 0.0000
vt 0.9641 0.3198
vt 0.9408 0.3198
vt 0.9408 0.0000
vt 0.7789 0.0678
vt 0.7383 0.0337
vt 0.8288 0.0000
vt 0.8699 0.0155
vt 0.9597 0.5119
vt 0.9480 0.3366
vt 0.9681 0.3366
vt 0.9680 0.5119
vt 0.2777 0.8436
vt 0.1864 0.8436
vt 0.2009 0.8325
vt 0.2794 0.8325
vt 0.5706 0.8515
vt 0.5781 0.8224
vt 0.5908 0.8224
vt 0.5908 0.8515
vt 0.5947 0.8511
vt 0.5930 0.8224
vt 0.6013 0.8225
vt 0.6013 0.8512
vt 0.9681 0.5160
vt 0.9742 0.3366
vt 0.9808 0.3366
vt 0.9808 0.5159
vt 0.9932 0.4865
vt 0.9916 0.1521
vt 0.9930 0.1524
vt 0.9946 0.4865
vt 0.9904 0.0000
vt 0.9882 0.1082
vt 0.9874 0.1087
vt 0.9893 0.0008
vt 0.7788 0.0712
vt 0.7789 0.0686
vt 0.8698 0.0166
vt 0.8719 0.0176
vt 0.7788 0.0712
vt 0.1409 1.0000
vt 0.1388 1.0000
vt 0.1864 0.9948
vt 0.1845 1.0000
vt 0.1642 1.0000
vt 0.1621 1.0000
vt 0.7346 0.4707
vt 0.3745 0.4681
vt 0.7789 0.0678
vt 0.8699 0.0155
vt 0.8698 0.0166
vt 0.7789 0.0686
vt 0.9895 0.4746
vt 0.9873 0.1524
vt 0.9894 0.1535
vt 0.9916 0.4746
vt 0.5930 0.8224
vt 0.5930 0.9307
vt 0.5910 0.9317
vt 0.5908 0.8229
vt 0.3753 0.0000
vt 0.7343 0.0032
vt 1.0000 0.5289
vt 0.9986 0.8482
vt 0.9973 0.8487
vt 0.9987 0.5286
vt 0.6025 0.8245
vt 0.6044 0.8224
vt 0.6033 0.8236
vt 0.6033 0.8236
vt 0.6058 0.8224
vt 0.6058 0.8244
vt 0.6044 0.8244
vt 0.6044 0.8224
vt 0.9882 0.1082
vt 0.9904 0.1087
vt 0.9896 0.1092
vt 0.9874 0.1087
vt 0.3745 0.4947
vt 0.3742 0.5000
vt 0.3704 0.4948
vt 0.3745 0.0058
vt 0.3698 0.0075
vt 0.3706 0.0012
vt 0.3753 0.0000
vt 0.3691 0.4949
vt 0.3653 0.5001
vt 0.3695 0.0027
vt 0.3698 0.0055
vt 0.3652 0.0059
vt 0.3644 0.0000
vt 0.7790 0.5661
vt 0.3698 0.0841
vt 0.3698 0.0075
vt 0.0000 0.4999
vt 0.8676 0.5286
vt 0.0000 0.0004
vt 0.0600 0.0003
vt 0.3692 0.4683
vt 0.7346 0.4973
vt 0.7343 0.5026
vt 0.2777 0.5001
vt 0.2794 0.5127
vt 0.7347 0.5237
vt 0.7347 0.5285
vt 0.3703 0.4681
vt 0.3698 0.0055
vt 0.3698 0.0841
vt 0.2604 0.0001
vt 0.3644 0.0000
vt 0.9895 0.1475
vt 0.9916 0.1487
vt 0.9887 0.5345
vt 0.9866 0.5334
vt 0.9887 0.5286
vt 0.9908 0.5297
vt 0.9932 0.1475
vt 0.9946 0.1478
vt 1.0000 0.8532
vt 0.9988 0.8537
vt 0.6036 0.8270
vt 0.6044 0.8261
vt 0.6033 0.8236
vt 0.6044 0.8224
vt 0.7371 0.5489
vt 0.7383 0.0337
vt 0.7789 0.0678
vt 0.9530 0.8738
vt 0.9343 0.8661
vt 0.9873 0.1475
vt 0.9873 0.2214
vt 0.9641 0.2214
vt 0.9641 0.1476
vt 0.6491 0.8224
vt 0.6491 0.5026
vt 0.7276 0.5026
vt 0.7276 0.8224
vt 0.9801 0.8440
vt 0.9568 0.8441
vt 0.9568 0.5288
vt 0.9801 0.5286
vt 0.5706 0.8224
vt 0.5706 0.5026
vt 0.9641 0.1475
vt 0.9874 0.1475
vt 0.9873 0.2952
vt 0.9641 0.2952
vt 0.1864 0.5001
vt 0.2009 0.5127
vt 0.9887 0.8658
vt 0.9908 0.8658
vt 0.9408 0.0000
vt 0.9408 0.3318
vt 0.9195 0.3230
vt 0.9197 0.0001
vt 0.8930 0.0242
vt 0.7997 0.0880
vt 0.7788 0.0703
vt 0.8719 0.0163
vt 0.8713 0.8524
vt 0.9329 0.5286
vt 0.9343 0.5288
vt 0.8727 0.8521
vt 0.6025 0.8224
vt 0.6025 0.9245
vt 0.6016 0.9250
vt 0.6013 0.8231
vt 0.9961 0.4775
vt 0.9946 0.1522
vt 0.9960 0.1524
vt 0.9974 0.4772
vt 0.9333 0.9111
vt 0.8720 0.8575
vt 0.8734 0.8572
vt 0.9343 0.9106
vt 0.9387 0.3366
vt 0.9173 0.3278
vt 0.9960 0.1475
vt 0.9974 0.1478
vt 0.8734 0.8572
vt 0.8720 0.8575
vn 0.2656 0.9620 -0.0624
vn 0.2798 0.9589 -0.0481
vn 0.3168 0.9485 -0.0097
vn 0.1068 0.9754 -0.1928
vn 0.0346 0.9973 -0.0639
vn 0.2423 0.9701 0.0144
vn 0.9861 -0.0002 -0.1664
vn 0.9866 -0.0001 -0.1631
vn 1.0000 0.0000 0.0000
vn 0.0000 -1.0000 0.0000
vn 0.9858 0.0000 0.1679
vn -0.1764 0.9806 -0.0856
vn -0.2350 0.9718 0.0183
vn -0.0927 0.9951 0.0349
vn 0.0010 0.9994 0.0353
vn -0.0162 0.9998 -0.0009
vn -0.0003 0.9498 -0.3129
vn 0.9750 0.2221 0.0002
vn 0.9615 0.2233 0.1604
vn 0.1474 0.1171 -0.9821
vn 0.1555 -0.0768 -0.9848
vn -0.0150 -0.0766 -0.9969
vn -0.0857 0.0455 -0.9953
vn -0.0446 -0.0758 -0.9961
vn 0.2550 -0.0540 -0.9654
vn 0.0753 -0.0684 -0.9948
vn 0.0292 -0.0317 -0.9991
vn 0.0688 -0.0262 -0.9973
vn 0.0927 -0.0163 -0.9955
vn 0.0287 -0.0164 -0.9995
vn 0.2103 0.2283 -0.9506
vn 0.2353 -0.0324 -0.9713
vn 0.2412 -0.0335 -0.9699
vn 0.0953 0.9948 0.0355
vn 0.0522 0.8845 -0.4635
vn -0.0481 0.9395 -0.3390
vn -1.0000 0.0000 0.0000
vn -0.9781 0.2083 0.0001
vn -0.9872 0.1182 -0.1072
vn -0.9873 -0.0002 -0.1585
vn 0.9783 0.2069 0.0001
vn -0.1820 -0.0707 -0.9807
vn -0.2116 0.1105 -0.9711
vn -0.0758 -0.0757 -0.9942
vn 0.0000 0.8076 0.5897
vn -0.0017 0.8076 0.5897
vn 0.0302 -0.0634 -0.9975
vn -0.0000 0.9994 0.0355
vn 0.0146 0.9992 0.0355
vn -0.1943 0.9696 -0.1488
vn 0.0000 0.0000 1.0000
vn -0.0146 0.9992 0.0354
vn 0.9877 -0.0002 -0.1561
vn -0.1715 -0.0114 -0.9851
vn -0.1716 0.1910 -0.9665
vn -0.1721 0.1567 -0.9725
vn 0.0000 1.0000 0.0000
vn 0.0000 0.0000 -1.0000
vn 0.9852 0.1421 -0.0959
vn -0.0434 0.8112 -0.5831
vn 1.0000 0.0019 0.0000
vn 0.2840 -0.9588 0.0000
vn -0.0685 0.9977 0.0000
vn -1.0000 -0.0009 0.0000
vn 0.9999 0.0003 -0.0156
vn 0.9788 -0.1977 -0.0536
vn 0.9801 -0.1915 -0.0524
vn 0.5117 -0.7852 -0.3485
vn 0.0259 0.8243 -0.5656
vn -0.9749 0.2226 0.0002
vn -0.5140 0.7561 0.4051
vn -0.2116 -0.0453 -0.9763
vn -0.2188 0.1693 -0.9609
vn -0.2176 0.0994 -0.9709
vn 0.0678 0.8536 -0.5164
vn -0.9498 -0.0003 -0.3129
vn -0.9999 -0.0009 0.0112
vn -0.9839 0.1625 0.0739
vn -0.9693 0.2253 0.0979
vn 0.6208 0.6288 0.4682
vn 0.0000 0.9999 -0.0108
vn -0.6357 -0.5864 -0.5019
vn -0.9615 0.2233 0.1604
vn -0.9351 0.1333 0.3281
vn -0.8867 0.4463 0.1203
vn -0.6813 0.5981 -0.4220
vn 0.8867 0.4463 0.1203
vn 0.9351 0.1333 0.3281
vn 0.6898 0.5320 -0.4910
vn -0.0682 0.3094 -0.9485
vn -0.9135 0.4067 0.0002
vn -0.9188 0.3947 0.0000
vn 0.9436 0.0000 0.3311
vn 0.1330 0.4302 -0.8929
vn 0.9446 -0.0003 -0.3282
vn 0.9467 -0.0003 -0.3220
vn 0.9013 0.4331 0.0004
vn -0.9858 0.0000 0.1679
vn -0.9436 0.0000 0.3311
vn 0.0017 0.8076 0.5897
vn -0.9009 0.4340 0.0003
vn 0.9202 0.3915 0.0000
vn 0.9147 0.4041 0.0002
vn 0.9510 -0.0003 -0.3092
vn 0.9533 -0.0003 -0.3018
vn -0.2182 0.3031 -0.9276
vn -0.2078 0.1306 -0.9694
vn -0.2045 0.2100 -0.9561
vn -0.1952 0.3499 -0.9162
vn 0.9202 -0.3813 -0.0881
vn -0.9139 0.3752 0.1549
vn 0.9979 -0.0583 -0.0288
vn -0.2291 0.2431 -0.9425
vn 0.2321 0.9679 -0.0961
vn -0.1656 0.3677 -0.9150
vn -0.2103 -0.0224 -0.9774
vn -0.1761 -0.0338 -0.9838
vn -0.1868 0.1748 -0.9667
vn -0.1850 0.1250 -0.9747
vn 0.0180 0.8609 -0.5084
vn -0.9715 0.2151 0.0990
vn -0.9999 -0.0005 0.0085
vn -0.9849 0.1564 0.0744
vn 0.4855 -0.8114 -0.3253
vn 0.9998 0.0005 -0.0177
vn 0.9770 -0.2065 -0.0522
vn 0.9793 -0.1957 -0.0505
vn -0.5474 0.7187 0.4287
vn -0.1895 0.3221 -0.9275
vn 0.9156 -0.3934 -0.0828
vn -0.9196 0.3591 0.1592
usemtl Detail
s 1
f 217/1/1 99/2/2 188/3/3 182/4/3 179/5/3 75/6/4 78/7/5 235/8/6
f 224/9/7 89/10/8 132/11/9 4/12/9
f 289/13/10 286/14/10 300/15/10 114/16/10
f 10/17/9 134/18/9 90/19/11 55/20/11
f 76/21/12 72/22/13 87/23/14 8/24/15 77/25/16
f 176/26/17 154/27/17 152/28/17 173/29/17
f 131/30/9 84/31/18 57/32/19 81/33/11
f 67/34/20 82/35/21 83/36/22 68/37/23
f 12/38/24 83/36/22 82/35/21 160/39/25 156/40/26
f 27/41/27 158/42/28 88/43/29 226/44/30
f 82/35/21 67/34/20 212/45/31 80/46/32 162/47/33 160/39/25
f 235/8/6 78/7/5 77/25/16 8/24/15 85/48/34
f 75/6/4 181/49/35 259/50/35 206/51/36
f 158/42/28 162/47/33 80/46/32 88/43/29
f 134/18/9 131/30/9 81/33/11 90/19/11
f 128/52/10 130/53/10 146/54/10 144/55/10
f 3/56/37 71/57/38 202/58/39 49/59/40
f 127/60/10 9/61/10 281/62/10 239/63/10 237/64/10
f 129/65/9 74/66/41 84/31/18 131/30/9
f 5/67/10 125/68/10 124/69/10 9/61/10
f 126/70/10 5/67/10 9/61/10 127/60/10
f 174/71/42 96/72/43 68/37/23 83/36/22 12/38/24 123/73/44
f 4/12/9 132/11/9 134/18/9 10/17/9
f 69/74/45 199/75/46 197/76/46 70/77/45
f 123/73/44 12/38/24 156/40/26 122/78/47
f 85/48/34 8/24/15 232/79/48 208/80/49
f 9/61/10 124/69/10 231/81/10 229/82/10 281/62/10
f 76/21/12 204/83/50 72/22/13
f 1/84/10 28/85/10 164/86/10 225/87/10 61/88/10 125/68/10 5/67/10
f 47/89/51 238/90/51 282/91/51 288/92/51
f 8/24/15 87/23/14 48/93/52 232/79/48
f 89/10/8 79/94/53 129/65/9 132/11/9
f 221/95/54 54/96/55 103/97/56 195/98/54
f 148/99/9 145/100/9 147/101/9 150/102/9
f 135/103/57 133/104/57 149/105/57 151/106/57
f 11/107/58 14/108/58 20/109/58 18/110/58
f 13/111/51 6/112/51 17/113/51 19/114/51
f 165/115/58 169/116/58 171/117/58 167/118/58
f 79/94/53 64/119/59 74/66/41 129/65/9
f 112/120/9 283/121/9 284/122/9 287/123/9
f 122/78/47 156/40/26 158/42/28 27/41/27
f 268/124/60 214/125/60 66/126/60 262/127/60
f 157/128/61 161/129/61 170/130/61 166/131/61
f 2/132/51 56/133/51 293/134/51 295/135/51
f 25/136/62 163/137/62 172/138/62 31/139/62
f 159/140/63 23/141/63 29/142/63 168/143/63
f 26/144/64 24/145/64 30/146/64 32/147/64
f 194/148/65 256/149/66 109/150/67 143/151/65
f 258/152/68 180/153/68 137/154/68 255/155/68
f 271/156/69 270/157/69 241/158/69 246/159/69 186/160/69
f 33/161/10 175/162/10 1/84/10 5/67/10 126/70/10 222/163/10 220/164/10 193/165/10 190/166/10
f 7/167/37 86/168/70 71/57/38 3/56/37
f 267/169/71 261/170/71 242/171/71 269/172/71
f 155/173/72 244/174/73 243/175/74 153/176/72
f 138/177/75 249/178/75 254/179/75 136/180/75
f 200/181/76 50/182/76 49/59/40 202/58/39
f 21/183/77 92/184/78 263/185/79 34/186/77
f 35/187/80 265/188/80 272/189/80 15/190/80
f 37/191/81 36/192/81 142/193/81 140/194/81
f 39/195/82 183/196/82 139/197/82 40/198/82
f 46/199/83 196/200/84 198/201/85
f 51/202/86 203/203/86 205/204/86 201/205/86
f 57/32/19 207/206/87 210/207/88
f 213/208/89 216/209/89 218/210/89 211/211/89
f 223/212/90 67/34/20 68/37/23
f 75/6/4 76/21/12 77/25/16 78/7/5
f 219/213/91 52/214/92 202/58/39 71/57/38
f 210/207/88 230/215/93 55/20/11 90/19/11 81/33/11 57/32/19
f 223/212/90 215/216/94 212/45/31 67/34/20
f 89/10/8 224/9/7 60/217/95 227/218/96
f 228/219/97 207/206/87 57/32/19 84/31/18
f 196/200/84 46/199/83 45/220/98 44/221/99
f 233/222/51 47/89/51 288/92/51 290/223/51
f 58/224/100 69/74/45 70/77/45 59/225/100
f 234/226/101 219/213/91 71/57/38 86/168/70
f 63/227/102 73/228/103 74/66/41 64/119/59
f 75/6/4 206/51/36 204/83/50 76/21/12
f 64/119/59 79/94/53 236/229/104 65/230/105
f 73/228/103 228/219/97 84/31/18 74/66/41
f 198/201/85 234/226/101 86/168/70 46/199/83
f 79/94/53 89/10/8 227/218/96 236/229/104
f 46/199/83 86/168/70 7/167/37 45/220/98
f 243/175/74 244/174/73 245/231/106 240/232/106
f 251/233/107 252/234/108 253/235/109 248/236/109
f 257/237/110 110/238/110 109/150/67 256/149/66
f 263/185/79 92/184/78 91/239/111 260/240/111
f 266/241/112 94/242/112 93/243/112 264/244/112
f 95/245/113 223/212/90 68/37/23 96/72/43
f 99/2/2 217/1/1 62/246/114 100/247/114
f 53/248/115 104/249/115 103/97/56 54/96/55
f 116/250/57 111/251/57 301/252/57 285/253/57
f 16/254/51 119/255/51 117/256/51 121/257/51
f 115/258/37 296/259/37 298/260/37 294/261/37
f 299/262/51 297/263/51 119/255/51 16/254/51
f 292/264/10 114/16/10 300/15/10 120/265/10
f 111/251/57 113/266/57 118/267/57 301/252/57
f 56/133/51 209/268/51 291/269/51 293/134/51
f 209/268/51 233/222/51 290/223/51 291/269/51
f 43/270/116 252/234/108 251/233/107 42/271/116
f 2/132/51 295/135/51 282/91/51 238/90/51
usemtl Material.002
f 191/272/117 277/273/118 276/274/119 177/275/117
f 279/276/120 184/277/120 189/278/120 274/279/120
f 101/280/121 192/281/122 141/282/122 108/283/123
f 275/284/124 187/285/124 185/286/124 247/287/124
f 178/288/125 98/289/126 105/290/127 22/291/125
f 38/292/128 280/293/128 250/294/128 41/295/128
f 276/274/119 277/273/118 278/296/129 273/297/129
f 105/290/127 98/289/126 97/298/130 106/299/130
f 107/300/131 102/301/131 101/280/121 108/283/123
