# Blender v2.78 (sub 0) OBJ File: 'art.blend'
# www.blender.org
mtllib conferenceRoomDevice.mtl
o Circle.005_Circle.007
v -0.000000 0.088941 -0.192000
v -0.073475 0.088941 -0.177385
v -0.135765 0.088941 -0.135764
v -0.177385 0.088941 -0.073475
v -0.192000 0.088941 0.000000
v -0.177385 0.088941 0.073475
v -0.135765 0.088941 0.135765
v -0.073475 0.088941 0.177385
v -0.000000 0.088941 0.192000
v 0.073475 0.088941 0.177385
v 0.135764 0.088941 0.135765
v 0.177385 0.088941 0.073475
v 0.192000 0.088941 0.000000
v 0.177385 0.088941 -0.073475
v 0.135764 0.088941 -0.135764
v 0.073475 0.088941 -0.177385
v -0.073475 0.149409 -0.177385
v -0.057233 0.191037 -0.138172
v -0.068718 0.178844 -0.165900
v -0.000000 0.191037 -0.149556
v -0.000000 0.149409 -0.192000
v -0.000000 0.178844 -0.179568
v -0.135765 0.149409 -0.135764
v -0.105753 0.191037 -0.105752
v -0.126974 0.178844 -0.126974
v -0.177385 0.149409 -0.073475
v -0.138172 0.191037 -0.057233
v -0.165900 0.178844 -0.068718
v -0.192000 0.149409 0.000000
v -0.149557 0.191037 0.000000
v -0.179569 0.178844 0.000000
v -0.177385 0.149409 0.073475
v -0.138172 0.191037 0.057233
v -0.165900 0.178844 0.068718
v -0.135765 0.149409 0.135765
v -0.105753 0.191037 0.105753
v -0.126974 0.178844 0.126974
v -0.073475 0.149409 0.177385
v -0.057233 0.191037 0.138173
v -0.068718 0.178844 0.165900
v -0.000000 0.149409 0.192000
v -0.000000 0.191037 0.149557
v -0.000000 0.178844 0.179569
v 0.073475 0.149409 0.177385
v 0.057233 0.191037 0.138173
v 0.068718 0.178844 0.165900
v 0.135764 0.149409 0.135765
v 0.105752 0.191037 0.105753
v 0.126974 0.178844 0.126974
v 0.177385 0.149409 0.073475
v 0.138172 0.191037 0.057233
v 0.165900 0.178844 0.068718
v 0.192000 0.149409 0.000000
v 0.149557 0.191037 0.000000
v 0.179569 0.178844 0.000000
v 0.177385 0.149409 -0.073475
v 0.138172 0.191037 -0.057233
v 0.165900 0.178844 -0.068718
v 0.135764 0.149409 -0.135764
v 0.105752 0.191037 -0.105752
v 0.126974 0.178844 -0.126974
v 0.073475 0.149409 -0.177385
v 0.057233 0.191037 -0.138172
v 0.068718 0.178844 -0.165900
v -0.114805 0.086154 0.229427
v -0.089426 0.109639 0.267435
v -0.107372 0.106045 0.244046
v -0.000000 0.111941 0.258844
v -0.000000 0.089109 0.218398
v -0.000000 0.108808 0.233731
v -0.212132 0.077738 0.260835
v -0.165238 0.103083 0.291900
v -0.198397 0.098174 0.273420
v -0.277164 0.065143 0.307840
v -0.215894 0.093273 0.328514
v -0.259218 0.086394 0.317382
v -0.300000 0.050286 0.363287
v -0.233682 0.081700 0.371704
v -0.280576 0.072499 0.369238
v -0.277164 0.035430 0.418733
v -0.215894 0.070127 0.414893
v -0.259218 0.058604 0.421095
v -0.212132 0.022835 0.465738
v -0.165238 0.060317 0.451508
v -0.198397 0.046825 0.465057
v -0.114805 0.014419 0.497146
v -0.089426 0.053761 0.475973
v -0.107372 0.038954 0.494431
v -0.000000 0.011464 0.508175
v -0.000000 0.051459 0.484564
v -0.000000 0.036190 0.504746
v 0.114805 0.014419 0.497146
v 0.089426 0.053761 0.475973
v 0.107372 0.038954 0.494431
v 0.212132 0.022835 0.465739
v 0.165238 0.060317 0.451508
v 0.198397 0.046825 0.465057
v 0.277164 0.035430 0.418733
v 0.215894 0.070127 0.414893
v 0.259218 0.058604 0.421095
v 0.300000 0.050286 0.363287
v 0.233682 0.081700 0.371704
v 0.280576 0.072499 0.369238
v 0.277164 0.065143 0.307840
v 0.215894 0.093273 0.328514
v 0.259218 0.086394 0.317382
v 0.212132 0.077738 0.260835
v 0.165238 0.103083 0.291900
v 0.198397 0.098174 0.273420
v 0.114805 0.086154 0.229427
v 0.089426 0.109639 0.267435
v 0.107372 0.106045 0.244046
v 0.109614 0.034244 0.240637
v 0.114805 0.052432 0.220391
v 0.212132 0.044017 0.251799
v 0.200544 0.026381 0.269981
v 0.256823 0.015481 0.310659
v 0.277164 0.031422 0.298804
v 0.300000 0.016565 0.354251
v 0.273462 0.004656 0.351060
v 0.256823 -0.006170 0.391461
v 0.277164 0.001708 0.409697
v 0.212132 -0.010887 0.456703
v 0.200544 -0.017069 0.432139
v 0.109614 -0.024932 0.461483
v 0.114805 -0.019303 0.488111
v -0.000000 -0.022258 0.499140
v -0.000000 -0.027754 0.472013
v -0.109614 -0.024932 0.461483
v -0.114805 -0.019303 0.488111
v -0.212132 -0.010887 0.456703
v -0.200544 -0.017069 0.432139
v -0.256823 -0.006170 0.391461
v -0.277164 0.001708 0.409697
v -0.300000 0.016565 0.354251
v -0.273462 0.004656 0.351060
v -0.256823 0.015481 0.310659
v -0.277164 0.031422 0.298804
v -0.212132 0.044017 0.251799
v -0.200544 0.026381 0.269981
v -0.114805 0.052432 0.220391
v -0.109614 0.034244 0.240637
v 0.000000 0.037065 0.230106
v -0.000000 0.055388 0.209362
v -0.101427 0.019428 -0.624324
v 0.101427 0.019428 -0.624324
v -0.054892 0.019428 -0.678180
v 0.000000 0.019428 -0.697091
v 0.054892 0.019428 -0.678180
v -0.591394 0.019428 0.224324
v -0.489967 0.019428 0.400000
v -0.614767 0.019428 0.291552
v -0.603699 0.019428 0.348546
v -0.559875 0.019428 0.386628
v 0.489967 0.019428 0.400000
v 0.591394 0.019428 0.224324
v 0.559875 0.019428 0.386627
v 0.603699 0.019428 0.348546
v 0.614767 0.019428 0.291552
v -0.272816 0.019428 0.329089
v 0.272817 0.019428 0.329089
v -0.099858 0.000000 0.296480
v 0.099858 0.000000 0.296480
v 0.148591 0.019428 -0.400811
v 0.421408 0.019428 0.071722
v 0.206830 0.000000 -0.234719
v 0.306688 0.000000 -0.061761
v -0.148591 0.019428 -0.400811
v -0.421408 0.019428 0.071722
v -0.206830 0.000000 -0.234719
v -0.306688 0.000000 -0.061761
v -0.042301 0.120442 -0.522625
v -0.008478 0.151547 -0.430480
v 0.023269 0.151547 -0.413362
v 0.078162 0.120442 -0.481122
v -0.078162 0.120442 -0.481122
v -0.023269 0.151547 -0.413362
v 0.000000 0.151547 -0.433401
v 0.000000 0.120442 -0.537198
v 0.042301 0.120442 -0.522625
v 0.008478 0.151547 -0.430480
v -0.369617 0.151547 0.186530
v -0.455745 0.120442 0.172871
v -0.377583 0.120442 0.308251
v -0.346348 0.151547 0.226832
v -0.377045 0.151547 0.207898
v -0.473757 0.120442 0.224679
v -0.465227 0.120442 0.268599
v -0.375336 0.151547 0.216700
v -0.431456 0.120442 0.297946
v -0.368567 0.151547 0.222582
v 0.346348 0.151547 0.226832
v 0.377583 0.120442 0.308251
v 0.455745 0.120442 0.172870
v 0.369617 0.151547 0.186530
v 0.431456 0.120442 0.297946
v 0.368567 0.151547 0.222582
v 0.465228 0.120442 0.268599
v 0.375336 0.151547 0.216700
v 0.473757 0.120442 0.224678
v 0.377045 0.151547 0.207898
v -0.203811 0.151547 0.180287
v -0.210240 0.120442 0.253605
v 0.210240 0.120442 0.253605
v 0.203811 0.151547 0.180287
v -0.076953 0.126268 0.228476
v -0.074721 0.165149 0.155949
v 0.076953 0.126268 0.228476
v 0.074721 0.165149 0.155949
v 0.114509 0.120442 -0.308876
v 0.054227 0.151547 -0.266649
v 0.258038 0.151547 0.086362
v 0.324749 0.120442 0.055271
v 0.097695 0.165149 -0.142685
v 0.159389 0.126268 -0.180881
v 0.172416 0.165149 -0.013264
v 0.236343 0.126268 -0.047595
v -0.054227 0.151547 -0.266649
v -0.114509 0.120442 -0.308876
v -0.324749 0.120442 0.055271
v -0.258038 0.151547 0.086362
v -0.159389 0.126268 -0.180881
v -0.097695 0.165149 -0.142685
v -0.236343 0.126268 -0.047595
v -0.172416 0.165149 -0.013264
vn -0.2855 -0.6657 -0.6894
vn 0.0000 -0.6657 -0.7462
vn 0.2855 -0.6657 -0.6894
vn 0.5276 -0.6657 -0.5276
vn 0.6894 -0.6657 -0.2855
vn 0.7462 -0.6657 0.0000
vn 0.6894 -0.6657 0.2855
vn 0.5276 -0.6657 0.5276
vn 0.2855 -0.6657 0.6894
vn 0.0000 -0.6657 0.7462
vn -0.2855 -0.6657 0.6894
vn -0.5276 -0.6657 0.5276
vn -0.6894 -0.6657 0.2855
vn -0.7462 -0.6657 0.0000
vn -0.6894 -0.6657 -0.2855
vn -0.5276 -0.6657 -0.5276
vn -0.6937 0.1938 -0.6937
vn -0.3754 0.1938 -0.9063
vn 0.0000 0.1938 -0.9810
vn 0.3754 0.1938 -0.9063
vn 0.9063 0.1938 0.3754
vn 0.6937 0.1938 0.6937
vn -0.9810 0.1938 0.0000
vn -0.9063 0.1938 -0.3754
vn 0.9810 0.1938 0.0000
vn -0.9063 0.1938 0.3754
vn 0.9063 0.1938 -0.3754
vn -0.6937 0.1938 0.6937
vn 0.6937 0.1938 -0.6937
vn -0.3754 0.1938 0.9063
vn 0.0000 0.1938 0.9810
vn 0.1799 -0.2757 -0.9442
vn 0.0000 -0.2725 -0.9622
vn 0.0000 0.4432 -0.8964
vn 0.2111 0.4480 -0.8687
vn 0.3754 0.1938 0.9063
vn -0.0821 0.9767 -0.1982
vn -0.1517 0.9767 -0.1517
vn -0.1982 0.9767 -0.0821
vn -0.2146 0.9767 0.0000
vn -0.1982 0.9767 0.0821
vn -0.1517 0.9767 0.1517
vn -0.0821 0.9767 0.1982
vn 0.0000 0.9767 0.2146
vn 0.0821 0.9767 0.1982
vn 0.1517 0.9767 0.1517
vn 0.1982 0.9767 0.0821
vn 0.2146 0.9767 0.0000
vn 0.1982 0.9767 -0.0821
vn 0.1517 0.9767 -0.1517
vn 0.0821 0.9767 -0.1982
vn 0.0000 0.9767 -0.2146
vn -0.2774 0.6889 -0.6697
vn 0.0000 0.6889 -0.7249
vn -0.5126 0.6889 -0.5126
vn -0.6697 0.6889 -0.2774
vn -0.7249 0.6889 0.0000
vn -0.6697 0.6889 0.2774
vn -0.5126 0.6889 0.5126
vn -0.2774 0.6889 0.6697
vn 0.0000 0.6889 0.7249
vn 0.2774 0.6889 0.6697
vn 0.5126 0.6889 0.5126
vn 0.6697 0.6889 0.2774
vn 0.7249 0.6889 0.0000
vn 0.6697 0.6889 -0.2774
vn 0.5126 0.6889 -0.5126
vn 0.2774 0.6889 -0.6697
vn -0.1799 -0.2757 -0.9442
vn -0.2111 0.4480 -0.8687
vn 0.4003 -0.2901 -0.8692
vn 0.4621 0.4566 -0.7603
vn 0.1799 -0.7109 0.6799
vn 0.4003 -0.6858 0.6077
vn 0.4621 0.0152 0.8867
vn 0.2111 -0.0464 0.9763
vn -0.4003 -0.2901 -0.8692
vn -0.6901 -0.3408 -0.6384
vn -0.7684 0.4326 -0.4715
vn -0.4621 0.4566 -0.7603
vn 0.6901 -0.6143 0.3825
vn 0.7684 0.1389 0.6246
vn -0.8733 -0.4706 -0.1261
vn -0.9474 0.3090 0.0828
vn 0.8733 -0.4706 -0.1261
vn 0.9474 0.3090 0.0828
vn -0.6901 -0.6143 0.3825
vn -0.7684 0.1389 0.6246
vn 0.6901 -0.3408 -0.6384
vn 0.7684 0.4326 -0.4715
vn -0.4003 -0.6858 0.6077
vn -0.4621 0.0152 0.8867
vn -0.1799 -0.7109 0.6799
vn -0.2111 -0.0464 0.9763
vn 0.0000 -0.7170 0.6970
vn 0.0000 -0.0644 0.9979
vn -0.0344 0.9972 0.0661
vn 0.0000 0.9984 0.0570
vn 0.0000 0.8610 -0.5085
vn -0.1437 0.8672 -0.4767
vn -0.0707 0.9926 0.0984
vn -0.2964 0.8787 -0.3741
vn -0.1053 0.9814 0.1606
vn -0.4635 0.8712 -0.1614
vn -0.1238 0.9585 0.2568
vn -0.5634 0.7980 0.2138
vn -0.1053 0.9302 0.3515
vn -0.4635 0.6738 0.5754
vn -0.0707 0.9088 0.4111
vn -0.2964 0.5740 0.7633
vn -0.0344 0.8967 0.4413
vn -0.1437 0.5127 0.8464
vn 0.0000 0.8931 0.4498
vn 0.0000 0.4914 0.8709
vn 0.0344 0.8967 0.4413
vn 0.1437 0.5127 0.8464
vn 0.0707 0.9088 0.4111
vn 0.2964 0.5740 0.7633
vn 0.1053 0.9302 0.3515
vn 0.4635 0.6738 0.5754
vn 0.1238 0.9585 0.2568
vn 0.5634 0.7980 0.2138
vn 0.1053 0.9814 0.1606
vn 0.4635 0.8712 -0.1614
vn 0.0707 0.9926 0.0984
vn 0.2964 0.8787 -0.3741
vn 0.0344 0.9972 0.0661
vn 0.1437 0.8672 -0.4767
vn 0.1155 -0.8784 -0.4637
vn 0.0510 -0.8751 -0.4813
vn 0.2640 -0.9316 -0.2496
vn 0.2054 -0.8923 -0.4019
vn 0.1155 -0.9926 -0.0376
vn 0.2054 -0.9737 -0.0981
vn 0.0000 -0.9998 -0.0170
vn 0.0510 -0.9985 -0.0207
vn -0.1155 -0.9926 -0.0376
vn -0.0510 -0.9985 -0.0207
vn -0.2640 -0.9316 -0.2496
vn -0.2054 -0.9737 -0.0981
vn -0.1155 -0.8784 -0.4637
vn -0.2054 -0.8923 -0.4019
vn -0.0510 -0.8751 -0.4813
vn 0.0000 -0.8744 -0.4852
vn -0.1513 0.9846 0.0874
vn -0.0724 0.9827 0.1701
vn 0.0320 0.9749 0.2200
vn 0.0311 0.9755 0.2179
vn 0.0035 0.9723 0.2338
vn -0.0035 0.9723 0.2338
vn -0.0311 0.9755 0.2179
vn -0.0320 0.9749 0.2200
vn 0.0724 0.9827 0.1701
vn 0.1513 0.9846 0.0874
vn 0.1835 0.9827 -0.0224
vn 0.1745 0.9749 -0.1378
vn 0.1731 0.9755 -0.1359
vn 0.2008 0.9723 -0.1199
vn 0.2043 0.9723 -0.1139
vn 0.2043 0.9755 -0.0820
vn 0.2065 0.9749 -0.0822
vn 0.1111 0.9827 -0.1477
vn 0.0000 0.9846 -0.1747
vn -0.1111 0.9827 -0.1477
vn -0.2065 0.9749 -0.0822
vn -0.2043 0.9755 -0.0820
vn -0.2043 0.9723 -0.1139
vn -0.2008 0.9723 -0.1199
vn -0.1731 0.9755 -0.1359
vn -0.1745 0.9749 -0.1378
vn -0.1835 0.9827 -0.0224
vn 0.8591 0.4653 -0.2130
vn 0.6526 0.7312 -0.1986
vn 0.6143 0.7280 -0.3044
vn 0.8069 0.4764 -0.3492
vn 0.4625 0.8454 0.2670
vn 0.5846 0.8113 -0.0071
vn 0.4880 0.8707 -0.0619
vn 0.3789 0.8992 0.2188
vn -0.5846 0.8113 -0.0071
vn -0.4625 0.8454 0.2670
vn -0.3789 0.8992 0.2188
vn -0.4880 0.8707 -0.0619
vn -0.6140 0.4653 -0.6376
vn -0.6412 0.6887 -0.3384
vn -0.5081 0.7601 -0.4051
vn -0.4983 0.7312 -0.4659
vn 0.1010 0.4764 0.8734
vn -0.1010 0.4764 0.8734
vn -0.0435 0.7280 0.6842
vn 0.0435 0.7280 0.6842
vn 0.2451 0.4653 0.8505
vn 0.1543 0.7312 0.6645
vn 0.0275 0.6887 0.7245
vn 0.2861 0.8113 0.5098
vn 0.1904 0.8707 0.4535
vn -0.0967 0.7601 0.6425
vn -0.8591 0.4653 -0.2130
vn -0.6526 0.7312 -0.1986
vn -0.6048 0.7601 -0.2375
vn -0.6137 0.6887 -0.3861
vn 0.7059 0.4764 -0.5242
vn 0.5708 0.7280 -0.3798
vn 0.4983 0.7312 -0.4659
vn 0.6140 0.4653 -0.6376
vn 0.5081 0.7601 -0.4051
vn 0.6412 0.6887 -0.3384
vn 0.2984 0.8113 -0.5027
vn 0.2976 0.8707 -0.3916
vn 0.6048 0.7601 -0.2375
vn 0.6137 0.6887 -0.3861
vn -0.2861 0.8113 0.5098
vn -0.0275 0.6887 0.7245
vn 0.0967 0.7601 0.6425
vn -0.1904 0.8707 0.4535
vn -0.8069 0.4764 -0.3492
vn -0.6143 0.7280 -0.3044
vn 0.0000 0.8454 -0.5341
vn 0.0000 0.8992 -0.4375
vn -0.2451 0.4653 0.8505
vn -0.1543 0.7312 0.6645
vn -0.7059 0.4764 -0.5242
vn -0.5708 0.7280 -0.3798
vn -0.2976 0.8707 -0.3916
vn -0.2984 0.8113 -0.5027
usemtl Light
s 1
f 2//1 1//2 16//3 15//4 14//5 13//6 12//7 11//8 10//9 9//10 8//11 7//12 6//13 5//14 4//15 3//16
f 2//1 3//16 23//17 17//18
f 16//3 1//2 21//19 62//20
f 11//8 12//7 50//21 47//22
f 4//15 5//14 29//23 26//24
f 12//7 13//6 53//25 50//21
f 5//14 6//13 32//26 29//23
f 13//6 14//5 56//27 53//25
f 6//13 7//12 35//28 32//26
f 14//5 15//4 59//29 56//27
f 7//12 8//11 38//30 35//28
f 15//4 16//3 62//20 59//29
f 8//11 9//10 41//31 38//30
f 114//32 144//33 69//34 110//35
f 9//10 10//9 44//36 41//31
f 18//37 24//38 27//39 30//40 33//41 36//42 39//43 42//44 45//45 48//46 51//47 54//48 57//49 60//50 63//51 20//52
f 3//16 4//15 26//24 23//17
f 10//9 11//8 47//22 44//36
f 19//53 22//54 21//19 17//18
f 25//55 19//53 17//18 23//17
f 28//56 25//55 23//17 26//24
f 31//57 28//56 26//24 29//23
f 34//58 31//57 29//23 32//26
f 37//59 34//58 32//26 35//28
f 40//60 37//59 35//28 38//30
f 43//61 40//60 38//30 41//31
f 46//62 43//61 41//31 44//36
f 49//63 46//62 44//36 47//22
f 52//64 49//63 47//22 50//21
f 55//65 52//64 50//21 53//25
f 58//66 55//65 53//25 56//27
f 61//67 58//66 56//27 59//29
f 64//68 61//67 59//29 62//20
f 22//54 64//68 62//20 21//19
f 1//2 2//1 17//18 21//19
f 144//33 141//69 65//70 69//34
f 115//71 114//32 110//35 107//72
f 126//73 123//74 95//75 92//76
f 139//77 138//78 74//79 71//80
f 123//74 122//81 98//82 95//75
f 138//78 135//83 77//84 74//79
f 122//81 119//85 101//86 98//82
f 135//83 134//87 80//88 77//84
f 119//85 118//89 104//90 101//86
f 134//87 131//91 83//92 80//88
f 118//89 115//71 107//72 104//90
f 131//91 130//93 86//94 83//92
f 130//93 127//95 89//96 86//94
f 141//69 139//77 71//80 65//70
f 127//95 126//73 92//76 89//96
f 66//97 68//98 70//99 67//100
f 67//100 70//99 69//34 65//70
f 72//101 66//97 67//100 73//102
f 73//102 67//100 65//70 71//80
f 75//103 72//101 73//102 76//104
f 76//104 73//102 71//80 74//79
f 78//105 75//103 76//104 79//106
f 79//106 76//104 74//79 77//84
f 81//107 78//105 79//106 82//108
f 82//108 79//106 77//84 80//88
f 84//109 81//107 82//108 85//110
f 85//110 82//108 80//88 83//92
f 87//111 84//109 85//110 88//112
f 88//112 85//110 83//92 86//94
f 90//113 87//111 88//112 91//114
f 91//114 88//112 86//94 89//96
f 93//115 90//113 91//114 94//116
f 94//116 91//114 89//96 92//76
f 96//117 93//115 94//116 97//118
f 97//118 94//116 92//76 95//75
f 99//119 96//117 97//118 100//120
f 100//120 97//118 95//75 98//82
f 102//121 99//119 100//120 103//122
f 103//122 100//120 98//82 101//86
f 105//123 102//121 103//122 106//124
f 106//124 103//122 101//86 104//90
f 108//125 105//123 106//124 109//126
f 109//126 106//124 104//90 107//72
f 111//127 108//125 109//126 112//128
f 112//128 109//126 107//72 110//35
f 68//98 111//127 112//128 70//99
f 70//99 112//128 110//35 69//34
f 114//32 115//71 116//129 113//130
f 118//89 119//85 120//131 117//132
f 122//81 123//74 124//133 121//134
f 126//73 127//95 128//135 125//136
f 130//93 131//91 132//137 129//138
f 134//87 135//83 136//139 133//140
f 138//78 139//77 140//141 137//142
f 123//74 126//73 125//136 124//133
f 119//85 122//81 121//134 120//131
f 127//95 130//93 129//138 128//135
f 131//91 134//87 133//140 132//137
f 135//83 138//78 137//142 136//139
f 139//77 141//69 142//143 140//141
f 144//33 114//32 113//130 143//144
f 141//69 144//33 143//144 142//143
f 115//71 118//89 117//132 116//129
f 142//143 143//144 113//130 116//129 117//132 120//131 121//134 124//133 125//136 128//135 129//138 132//137 133//140 136//139 137//142 140//141
f 189//145 191//146 185//147 202//148 207//149 209//150 205//151 192//152 197//153 199//154 201//155 195//156 212//157 216//158 214//159 211//160 174//161 181//162 178//163 173//164 177//165 218//166 223//167 225//168 221//169 182//170 186//171
f 164//172 210//173 215//174 166//175
f 158//176 159//177 200//178 198//179
f 152//180 153//181 188//182 187//183
f 169//184 150//185 183//186 220//187
f 162//188 163//189 208//190 206//191
f 160//192 162//188 206//191 203//193
f 155//194 157//195 196//196 193//197
f 168//198 219//199 176//200 145//201
f 167//202 217//203 213//204 165//205
f 165//205 213//204 194//206 156//207
f 149//208 180//209 175//210 146//211
f 154//212 151//213 184//214 190//215
f 168//198 170//216 222//217 219//199
f 157//195 158//176 198//179 196//196
f 153//181 154//212 190//215 188//182
f 166//175 215//174 217//203 167//202
f 148//218 179//219 180//209 149//208
f 161//220 155//194 193//197 204//221
f 171//222 169//184 220//187 224//223
f 150//185 152//180 187//183 183//186
f 160//192 203//193 184//214 151//213
f 164//172 146//211 175//210 210//173
f 163//189 161//220 204//221 208//190
f 159//177 156//207 194//206 200//178
f 170//216 171//222 224//223 222//217
f 145//201 176//200 172//224 147//225
f 187//183 188//182 189//145 186//171
f 173//164 178//163 179//219 172//224
f 181//162 174//161 175//210 180//209
f 177//165 173//164 172//224 176//200
f 178//163 181//162 180//209 179//219
f 183//186 187//183 186//171 182//170
f 188//182 190//215 191//146 189//145
f 190//215 184//214 185//147 191//146
f 193//197 196//196 197//153 192//152
f 196//196 198//179 199//154 197//153
f 198//179 200//178 201//155 199//154
f 200//178 194//206 195//156 201//155
f 203//193 206//191 207//149 202//148
f 206//191 208//190 209//150 207//149
f 208//190 204//221 205//151 209//150
f 211//160 214//159 215//174 210//173
f 214//159 216//158 217//203 215//174
f 216//158 212//157 213//204 217//203
f 219//199 222//217 223//167 218//166
f 222//217 224//223 225//168 223//167
f 224//223 220//187 221//169 225//168
f 202//148 185//147 184//214 203//193
f 204//221 193//197 192//152 205//151
f 210//173 175//210 174//161 211//160
f 212//157 195//156 194//206 213//204
f 218//166 177//165 176//200 219//199
f 220//187 183//186 182//170 221//169
f 147//225 172//224 179//219 148//218
usemtl Material.006
f 18//37 20//52 22//54 19//53
f 24//38 18//37 19//53 25//55
f 27//39 24//38 25//55 28//56
f 30//40 27//39 28//56 31//57
f 33//41 30//40 31//57 34//58
f 36//42 33//41 34//58 37//59
f 39//43 36//42 37//59 40//60
f 42//44 39//43 40//60 43//61
f 45//45 42//44 43//61 46//62
f 48//46 45//45 46//62 49//63
f 51//47 48//46 49//63 52//64
f 54//48 51//47 52//64 55//65
f 57//49 54//48 55//65 58//66
f 60//50 57//49 58//66 61//67
f 63//51 60//50 61//67 64//68
f 20//52 63//51 64//68 22//54
f 66//97 72//101 75//103 78//105 81//107 84//109 87//111 90//113 93//115 96//117 99//119 102//121 105//123 108//125 111//127 68//98
