# Blender v2.78 (sub 0) OBJ File: 'art.blend'
# www.blender.org
mtllib crate.mtl
o Cube.020_Cube.032
v 0.000000 0.750000 -0.500000
v -0.500000 0.164685 -0.380000
v -0.500000 0.164685 0.320000
v -0.500000 0.864685 0.320000
v -0.500000 0.689685 -0.380000
v -0.500000 0.861011 -0.380000
v -0.475289 0.000000 0.475289
v -0.487342 0.029811 0.500929
v -0.500000 0.023567 0.474242
v -0.477820 0.955578 0.501627
v -0.485023 1.000579 0.470377
v -0.500000 0.980636 0.474242
v -0.500000 0.023567 -0.482828
v -0.475289 0.024711 -0.500000
v -0.475289 0.000000 -0.475289
v 0.500000 0.023567 0.474242
v 0.488464 0.027169 0.500846
v 0.475289 0.000000 0.475289
v 0.500000 0.980636 0.474242
v 0.485023 1.000579 0.470377
v 0.477820 0.955578 0.501627
v 0.475289 0.000000 -0.475289
v 0.475289 0.024711 -0.500000
v 0.500000 0.023567 -0.482828
v 0.000000 0.024711 -0.500000
v 0.000000 0.000000 -0.475289
v 0.000000 0.018659 0.519767
v 0.000000 0.000000 0.475289
v 0.001115 0.672258 0.580399
v 0.000000 0.733805 0.575240
v 0.347270 0.969741 0.501109
v 0.347261 1.000585 0.470069
v 0.310968 0.986146 0.488586
v 0.001683 1.052262 0.202352
v 0.000000 1.048583 0.262165
v -0.310968 0.986146 0.488586
v -0.347760 1.000531 0.472823
v -0.347823 0.972836 0.500995
v -0.500000 0.971439 -0.479083
v -0.477787 0.996118 -0.447129
v -0.475289 0.970040 -0.500035
v -0.475289 0.750000 -0.500000
v -0.500000 0.738822 -0.477760
v 0.500000 0.738822 -0.477760
v 0.475289 0.750000 -0.500000
v 0.486968 0.995553 -0.468983
v 0.500000 0.972615 -0.480138
v 0.475289 0.970040 -0.500035
v 0.000000 0.970040 -0.500629
v 0.000026 1.014397 -0.481913
v 0.524711 0.134501 -0.420000
v 0.524711 0.109790 -0.395289
v 0.500000 0.081888 -0.440331
v 0.500000 0.720968 -0.442240
v 0.524711 0.709790 -0.420000
v 0.524711 0.880880 -0.420000
v 0.500000 0.928903 -0.440917
v 0.524711 0.905721 -0.395289
v 0.524711 0.909660 0.355289
v 0.500000 0.930224 0.407182
v 0.524711 0.885079 0.380000
v 0.524711 0.134501 0.380000
v 0.500000 0.082608 0.409710
v 0.524711 0.109790 0.355289
v 0.456421 0.131995 0.527970
v 0.431610 0.107267 0.528065
v 0.466765 0.078275 0.502439
v 0.456421 0.882546 0.527970
v 0.476288 0.952509 0.501740
v 0.431610 0.907267 0.528065
v 0.363393 0.907267 0.528065
v 0.341646 0.938276 0.502261
v 0.319852 0.891447 0.532635
v 0.075170 0.684816 0.591039
v 0.032204 0.682915 0.576166
v 0.056429 0.644376 0.592441
v 0.056429 0.131894 0.531000
v 0.040507 0.080918 0.502521
v 0.081250 0.107267 0.528065
v 0.430884 1.022277 -0.391473
v 0.455640 1.022365 -0.366721
v 0.466628 0.996805 -0.420568
v 0.080401 1.022277 -0.391964
v 0.040655 0.996873 -0.418520
v 0.055642 1.024291 -0.367333
v 0.055642 1.068318 0.169100
v 0.033649 1.049128 0.208451
v 0.075238 1.067359 0.208679
v 0.318197 1.029575 0.393644
v 0.341169 1.001243 0.436409
v 0.362544 1.026476 0.408561
v 0.430884 1.026476 0.408561
v 0.476320 1.000915 0.453166
v 0.455640 1.026305 0.383846
v -0.056429 0.131894 0.531000
v -0.081250 0.107267 0.528065
v -0.039287 0.078481 0.502445
v -0.056429 0.644376 0.592441
v -0.032204 0.682915 0.576166
v -0.075170 0.684816 0.591039
v -0.319852 0.891447 0.532635
v -0.341646 0.938276 0.502261
v -0.363393 0.907267 0.528065
v -0.431610 0.907267 0.528065
v -0.476288 0.952509 0.501740
v -0.456421 0.882546 0.527970
v -0.456421 0.131995 0.527970
v -0.465643 0.080918 0.502521
v -0.431610 0.107267 0.528065
v -0.080401 1.022277 -0.391964
v -0.055642 1.024291 -0.367333
v -0.039428 0.996809 -0.420999
v -0.430884 1.022277 -0.391473
v -0.465517 0.996873 -0.417925
v -0.455640 1.022365 -0.366721
v -0.455640 1.026305 0.383846
v -0.469576 1.001176 0.439826
v -0.430884 1.026476 0.408561
v -0.362544 1.026476 0.408561
v -0.342960 1.001049 0.446304
v -0.318197 1.029575 0.393644
v -0.075238 1.067359 0.208679
v -0.032009 1.049407 0.209575
v -0.055642 1.068318 0.169100
v -0.524711 0.266249 0.236000
v -0.524711 0.241538 0.211289
v -0.500000 0.217971 0.261758
v -0.524711 0.776827 0.236000
v -0.500000 0.820902 0.261758
v -0.524711 0.801408 0.211289
v -0.524711 0.798729 -0.299289
v -0.500000 0.821911 -0.344917
v -0.524711 0.773888 -0.324000
v -0.500000 0.672716 -0.346240
v -0.524711 0.661538 -0.324000
v -0.524711 0.266249 -0.324000
v -0.500000 0.217971 -0.341172
v -0.524711 0.241538 -0.299289
v 0.524711 0.709790 -0.420000
v 0.549422 0.709790 -0.395289
v 0.524711 0.134501 -0.420000
v 0.549422 0.134501 -0.395289
v 0.524711 0.109790 -0.395289
v 0.524711 0.880880 -0.420000
v 0.524711 0.905721 -0.395289
v 0.549422 0.881009 -0.395289
v 0.524711 0.909660 0.355289
v 0.524711 0.885079 0.380000
v 0.549422 0.884949 0.355289
v 0.524711 0.134501 0.380000
v 0.524711 0.109790 0.355289
v 0.549422 0.134501 0.355289
v 0.456419 0.882547 0.527943
v 0.431590 0.907275 0.527848
v 0.434022 0.881744 0.552546
v 0.456419 0.131996 0.527943
v 0.434022 0.131166 0.552546
v 0.431590 0.107275 0.527848
v 0.363373 0.907275 0.527848
v 0.319813 0.891461 0.532220
v 0.350181 0.882676 0.559267
v 0.075131 0.684829 0.590624
v 0.056412 0.644382 0.592259
v 0.082146 0.657032 0.610595
v 0.056412 0.131900 0.530818
v 0.081230 0.107275 0.527848
v 0.083444 0.130991 0.555487
v 0.080395 1.022182 -0.391961
v 0.055637 1.024217 -0.367331
v 0.081883 1.048905 -0.368004
v 0.430878 1.022182 -0.391471
v 0.432461 1.047014 -0.367431
v 0.455639 1.022353 -0.366720
v 0.055637 1.068244 0.169102
v 0.075226 1.067158 0.208684
v 0.081320 1.088703 0.181002
v 0.318184 1.029375 0.393650
v 0.362538 1.026381 0.408564
v 0.347787 1.056028 0.383682
v 0.430878 1.026381 0.408564
v 0.455639 1.026293 0.383846
v 0.432461 1.050953 0.383182
v -0.056412 0.644382 0.592259
v -0.075131 0.684829 0.590624
v -0.082146 0.657032 0.610595
v -0.056412 0.131900 0.530818
v -0.083444 0.130991 0.555487
v -0.081230 0.107275 0.527848
v -0.319813 0.891461 0.532220
v -0.363373 0.907275 0.527848
v -0.350181 0.882676 0.559267
v -0.431590 0.907275 0.527848
v -0.456419 0.882547 0.527943
v -0.434022 0.881744 0.552546
v -0.456419 0.131996 0.527943
v -0.431590 0.107275 0.527848
v -0.434022 0.131166 0.552546
v -0.430878 1.022182 -0.391471
v -0.455639 1.022353 -0.366720
v -0.432461 1.047014 -0.367431
v -0.080395 1.022182 -0.391961
v -0.081883 1.048905 -0.368004
v -0.055637 1.024217 -0.367331
v -0.455639 1.026293 0.383846
v -0.430878 1.026381 0.408564
v -0.432461 1.050953 0.383182
v -0.362538 1.026381 0.408564
v -0.318184 1.029375 0.393650
v -0.347787 1.056028 0.383682
v -0.075226 1.067158 0.208684
v -0.055637 1.068244 0.169102
v -0.081320 1.088703 0.181002
v -0.524711 0.776827 0.236000
v -0.524711 0.801408 0.211289
v -0.549422 0.776697 0.211289
v -0.524711 0.266249 0.236000
v -0.549422 0.266249 0.211289
v -0.524711 0.241538 0.211289
v -0.524711 0.798729 -0.299289
v -0.524711 0.773888 -0.324000
v -0.549422 0.774017 -0.299289
v -0.524711 0.661538 -0.324000
v -0.549422 0.661538 -0.299289
v -0.524711 0.266249 -0.324000
v -0.524711 0.241538 -0.299289
v -0.549422 0.266249 -0.299289
vn -1.0000 0.0000 0.0000
vn 1.0000 0.0000 0.0000
vn -0.0006 -0.0015 -1.0000
vn 0.1734 0.0667 0.9826
vn 0.0188 0.9899 0.1406
vn -0.0123 0.9836 0.1800
vn -0.0183 0.1375 0.9903
vn 0.0000 0.0366 0.9993
vn -0.0732 -0.0000 0.9973
vn -0.3681 -0.0964 0.9248
vn 0.0006 -0.0015 -1.0000
vn 0.0000 0.9998 0.0195
vn 0.0197 0.1335 0.9908
vn 0.0732 -0.0000 0.9973
vn 0.0000 -1.0000 0.0000
vn 0.0490 0.9988 -0.0052
vn 0.1277 0.9913 0.0308
vn -0.1695 0.0704 0.9830
vn -0.1129 0.9924 0.0488
vn -0.3224 0.9445 -0.0628
vn 0.0000 0.0000 -1.0000
vn 0.3749 -0.0965 0.9220
vn 0.0000 0.7052 0.7090
vn -0.0490 0.9988 -0.0052
vn 0.3288 0.9423 -0.0634
vn -0.6273 -0.6379 0.4468
vn -0.4252 0.4693 0.7739
vn -0.4169 -0.6427 -0.6427
vn 0.6490 -0.6640 0.3713
vn 0.4253 0.4693 0.7739
vn 0.4169 -0.6427 -0.6427
vn 0.0772 0.7072 0.7028
vn -0.0215 0.7130 0.7009
vn -0.3178 0.8444 -0.4312
vn 0.4696 0.5873 -0.6592
vn -0.6902 -0.7237 0.0000
vn -0.8400 0.0040 0.5426
vn 0.0000 -0.7071 -0.7071
vn 0.6902 -0.7237 0.0000
vn 0.8474 0.0046 0.5310
vn 0.0181 -0.8382 0.5451
vn -0.0206 -0.8241 0.5661
vn -0.0381 0.2455 0.9687
vn 0.0434 0.2408 0.9696
vn -0.0002 0.9743 0.2253
vn 0.0050 0.9731 0.2303
vn -0.0458 0.6295 0.7756
vn 0.0310 0.6326 0.7739
vn 0.0228 0.5775 -0.8161
vn 0.6484 -0.0040 -0.7613
vn -0.6578 -0.0023 -0.7532
vn -0.0397 0.7117 -0.7013
vn -0.7658 0.6431 -0.0077
vn -0.6239 0.0027 -0.7815
vn 0.8370 0.5472 -0.0029
vn 0.6239 0.0027 -0.7815
vn -0.0658 0.9974 -0.0293
vn -0.0993 -0.0357 0.9944
vn 0.0658 0.9974 -0.0293
vn 0.0993 -0.0357 0.9944
vn 0.0014 0.0271 0.9996
vn 0.9957 0.0000 0.0929
vn 0.0000 -0.9994 -0.0332
vn 0.0000 0.0000 1.0000
vn 0.9982 0.0607 -0.0003
vn -0.0000 0.9995 0.0331
vn -0.9982 0.0607 -0.0003
vn -0.6310 -0.7711 -0.0850
vn 0.5990 -0.0590 -0.7986
vn 0.0000 -0.0270 -0.9996
vn -0.9956 0.0112 -0.0933
vn 0.0000 0.9994 0.0332
vn 0.9981 -0.0619 0.0051
vn 0.6310 -0.7711 -0.0850
vn 0.9956 0.0112 -0.0932
vn -0.0014 0.0271 0.9996
vn -0.9981 -0.0620 0.0051
vn -0.0000 -0.9995 -0.0330
vn -0.5990 -0.0589 -0.7986
vn -0.9956 0.0000 0.0940
vn 0.9018 -0.3055 -0.3055
vn 0.8918 0.3191 -0.3208
vn 0.9005 0.3083 0.3067
vn 0.9193 -0.2784 0.2784
vn 0.3488 -0.3467 0.8707
vn 0.2718 0.2692 0.9239
vn -0.1265 0.5806 0.8043
vn -0.3288 0.1845 0.9262
vn -0.2900 -0.3961 0.8712
vn 0.3420 0.8740 -0.3451
vn -0.3055 0.8737 -0.3785
vn -0.3930 0.8938 0.2162
vn -0.1468 0.7865 0.5999
vn 0.2664 0.9280 0.2604
vn 0.2756 -0.3829 0.8817
vn 0.3288 0.1845 0.9262
vn 0.1265 0.5806 0.8043
vn -0.2718 0.2692 0.9239
vn -0.3640 -0.3619 0.8582
vn 0.2911 0.8844 -0.3649
vn -0.3571 0.8618 -0.3602
vn -0.3246 0.8905 0.3189
vn 0.1135 0.8503 0.5140
vn 0.3717 0.9052 0.2060
vn -0.9043 -0.3018 0.3018
vn -0.8944 0.3171 0.3154
vn -0.8918 0.3191 -0.3208
vn -0.8821 -0.3331 -0.3331
vn 0.5773 -0.5774 -0.5774
vn 0.5763 0.5763 -0.5794
vn 0.5784 0.5784 0.5753
vn 0.5774 -0.5773 0.5774
vn 0.5867 0.5912 0.5534
vn 0.5994 -0.6040 0.5253
vn -0.2408 0.8107 0.5336
vn -0.6498 0.3285 0.6855
vn -0.5424 -0.6156 0.5717
vn -0.5541 0.5726 -0.6043
vn 0.5930 0.5402 -0.5971
vn -0.6776 0.6452 0.3530
vn -0.2311 0.5554 0.7988
vn 0.5841 0.5647 0.5831
vn 0.6498 0.3285 0.6855
vn 0.5424 -0.6156 0.5717
vn 0.2408 0.8107 0.5336
vn -0.5867 0.5912 0.5534
vn -0.5994 -0.6040 0.5253
vn -0.5930 0.5402 -0.5971
vn 0.5541 0.5726 -0.6043
vn -0.5841 0.5647 0.5831
vn 0.2311 0.5554 0.7988
vn 0.6776 0.6452 0.3530
vn -0.5784 0.5784 0.5753
vn -0.5774 -0.5774 0.5774
vn -0.5763 0.5763 -0.5794
vn -0.5773 -0.5774 -0.5774
vn 0.6532 -0.0012 -0.7572
vn 0.6595 0.0026 -0.7517
vn 0.6626 0.7490 -0.0025
vn 0.7549 0.0010 0.6559
vn 0.7444 -0.6678 0.0003
vn 0.8643 -0.0048 0.5029
vn -0.0380 0.5717 0.8196
vn -0.3187 0.5938 0.7388
vn -0.7293 -0.0877 0.6786
vn -0.0022 -0.6788 0.7343
vn -0.0013 0.7381 -0.6747
vn -0.7750 0.6294 -0.0568
vn -0.3527 0.7041 0.6163
vn -0.0468 0.8106 0.5838
vn 0.8503 0.5262 -0.0077
vn 0.7173 -0.0882 0.6912
vn 0.3187 0.5938 0.7388
vn 0.0380 0.5717 0.8196
vn -0.8723 -0.0055 0.4890
vn -0.0021 -0.6804 0.7329
vn -0.0030 0.7369 -0.6760
vn -0.9050 0.4253 -0.0045
vn -0.0190 0.8081 0.5887
vn 0.3075 0.7686 0.5610
vn 0.7488 0.6601 -0.0594
vn -0.7216 0.0000 0.6923
vn -0.6535 0.7569 -0.0011
vn -0.6603 0.0038 -0.7510
vn -0.6256 -0.0047 -0.7801
vn 0.7071 0.0000 -0.7071
vn 0.7071 0.7071 -0.0037
vn 0.7071 0.0000 0.7071
vn 0.7071 -0.7071 0.0000
vn 0.7395 -0.0000 0.6732
vn 0.0341 0.7421 0.6694
vn -0.3415 0.5907 0.7311
vn -0.6174 -0.0885 0.7817
vn 0.0030 -0.7399 0.6727
vn 0.0029 0.6813 -0.7320
vn -0.6477 0.7596 -0.0590
vn -0.3515 0.7240 0.5935
vn 0.0250 0.6829 0.7301
vn 0.7287 0.6848 -0.0036
vn 0.6174 -0.0885 0.7817
vn 0.3415 0.5907 0.7311
vn -0.0341 0.7421 0.6694
vn -0.7395 0.0000 0.6732
vn -0.0030 -0.7399 0.6727
vn -0.0029 0.6813 -0.7320
vn -0.7287 0.6848 -0.0036
vn -0.0250 0.6829 0.7301
vn 0.3515 0.7240 0.5935
vn 0.6477 0.7596 -0.0590
vn -0.7071 0.0000 0.7071
vn -0.7071 0.7071 -0.0037
vn -0.7071 0.0000 -0.7071
vn -0.7071 -0.7071 0.0000
vn -0.9016 -0.4212 -0.0987
vn -0.7011 0.7118 -0.0423
vn -0.7042 -0.0245 0.7096
vn -0.8934 -0.0677 -0.4441
vn -0.3350 -0.9401 -0.0629
vn 0.7051 -0.7078 0.0428
vn 0.7029 0.7057 0.0894
vn 0.7041 -0.0245 0.7096
vn -0.7056 0.0624 0.7058
vn 0.8935 -0.0675 -0.4440
vn 0.3156 -0.0453 -0.9478
vn -0.7064 0.0248 -0.7074
vn -0.7052 -0.7077 0.0426
vn -0.7029 0.7057 0.0895
vn 0.3351 -0.9401 -0.0629
vn 0.9016 -0.4212 -0.0987
vn 0.7012 0.7117 -0.0423
vn 0.7056 0.0624 0.7058
vn 0.7063 0.0255 -0.7074
vn -0.3157 -0.0453 -0.9478
usemtl Dark
s off
f 43//1 13//1 2//1 5//1
f 44//2 54//2 53//2 24//2
f 16//2 63//2 60//2 19//2
f 41//3 49//3 1//3 42//3
f 9//1 12//1 4//1 3//1
f 29//4 75//4 72//4 31//4
f 50//5 84//5 82//5 46//5
f 40//6 114//6 112//6 50//6
f 24//2 53//2 63//2 16//2
f 27//7 97//7 108//7 8//7
f 10//8 105//8 102//8 38//8
f 8//9 108//9 105//9 10//9
f 29//10 99//10 97//10 27//10
f 49//11 48//11 45//11 1//11
f 20//12 93//12 90//12 32//12
f 17//13 67//13 78//13 27//13
f 21//14 69//14 67//14 17//14
f 26//15 22//15 18//15 28//15
f 46//16 82//16 93//16 20//16
f 32//17 90//17 87//17 34//17
f 38//18 102//18 99//18 29//18
f 31//8 72//8 69//8 21//8
f 34//19 123//19 120//19 37//19
f 50//20 112//20 123//20 34//20
f 25//21 1//21 45//21 23//21
f 19//2 60//2 57//2 47//2
f 27//22 78//22 75//22 29//22
f 30//23 33//23 35//23 36//23
f 11//24 117//24 114//24 40//24
f 37//12 120//12 117//12 11//12
f 13//1 9//1 3//1 2//1
f 47//2 57//2 54//2 44//2
f 14//21 42//21 1//21 25//21
f 12//1 39//1 6//1 4//1
f 39//1 43//1 5//1 6//1
f 34//25 87//25 84//25 50//25
f 4//1 129//1 127//1 3//1
f 3//1 127//1 137//1 2//1
f 6//1 132//1 129//1 4//1
f 5//1 134//1 132//1 6//1
f 2//1 137//1 134//1 5//1
f 7//26 8//26 9//26
f 10//27 11//27 12//27
f 13//28 14//28 15//28
f 16//29 17//29 18//29
f 19//30 20//30 21//30
f 22//31 23//31 24//31
f 31//32 32//32 33//32
f 36//33 37//33 38//33
f 39//34 40//34 41//34
f 46//35 47//35 48//35
f 15//36 7//36 9//36 13//36
f 8//37 10//37 12//37 9//37
f 26//38 15//38 14//38 25//38
f 18//39 22//39 24//39 16//39
f 21//40 17//40 16//40 19//40
f 28//41 18//41 17//41 27//41
f 22//38 26//38 25//38 23//38
f 7//42 28//42 27//42 8//42
f 38//43 29//43 30//43 36//43
f 29//44 31//44 33//44 30//44
f 32//45 34//45 35//45 33//45
f 34//46 37//46 36//46 35//46
f 37//47 11//47 10//47 38//47
f 31//48 21//48 20//48 32//48
f 50//49 46//49 48//49 49//49
f 47//50 44//50 45//50 48//50
f 43//51 39//51 41//51 42//51
f 40//52 50//52 49//52 41//52
f 39//53 12//53 11//53 40//53
f 42//54 14//54 13//54 43//54
f 19//55 47//55 46//55 20//55
f 44//56 24//56 23//56 45//56
f 15//15 26//15 28//15 7//15
usemtl Detail
f 217//1 215//1 221//1 223//1 226//1
f 202//57 200//57 206//57 209//57 212//57
f 187//58 185//58 191//58 194//58 197//58
f 172//59 170//59 176//59 179//59 182//59
f 157//60 155//60 161//60 164//60 167//60
f 110//61 113//61 198//61 201//61
f 106//62 107//62 195//62 193//62
f 103//63 104//63 192//63 190//63
f 51//64 55//64 139//64 141//64
f 55//64 56//64 144//64 139//64
f 115//65 116//65 204//65 199//65
f 109//66 96//66 188//66 196//66
f 138//64 126//64 218//64 225//64
f 133//64 135//64 222//64 220//64
f 135//64 136//64 224//64 222//64
f 142//2 140//2 146//2 149//2 152//2
f 94//67 81//67 173//67 181//67
f 100//68 101//68 189//68 184//68
f 88//69 89//69 177//69 175//69
f 91//70 92//70 180//70 178//70
f 95//71 98//71 183//71 186//71
f 79//72 66//72 158//72 166//72
f 85//73 86//73 174//73 169//73
f 73//74 74//74 162//74 160//74
f 76//75 77//75 165//75 163//75
f 80//76 83//76 168//76 171//76
f 124//77 111//77 203//77 211//77
f 64//64 52//64 143//64 151//64
f 130//64 131//64 219//64 214//64
f 70//78 71//78 159//78 154//78
f 118//70 119//70 207//70 205//70
f 58//64 59//64 147//64 145//64
f 121//79 122//79 210//79 208//79
f 61//64 62//64 150//64 148//64
f 125//64 128//64 213//64 216//64
f 65//80 68//80 153//80 156//80
f 51//81 52//81 53//81
f 56//82 57//82 58//82
f 59//83 60//83 61//83
f 62//84 63//84 64//84
f 65//85 66//85 67//85
f 68//86 69//86 70//86
f 71//87 72//87 73//87
f 74//88 75//88 76//88
f 77//89 78//89 79//89
f 80//90 81//90 82//90
f 83//91 84//91 85//91
f 86//92 87//92 88//92
f 89//93 90//93 91//93
f 92//94 93//94 94//94
f 95//95 96//95 97//95
f 98//96 99//96 100//96
f 101//97 102//97 103//97
f 104//98 105//98 106//98
f 107//99 108//99 109//99
f 110//100 111//100 112//100
f 113//101 114//101 115//101
f 116//102 117//102 118//102
f 119//103 120//103 121//103
f 122//104 123//104 124//104
f 125//105 126//105 127//105
f 128//106 129//106 130//106
f 131//107 132//107 133//107
f 136//108 137//108 138//108
f 141//109 142//109 143//109
f 144//110 145//110 146//110
f 147//111 148//111 149//111
f 150//112 151//112 152//112
f 153//113 154//113 155//113
f 156//114 157//114 158//114
f 159//115 160//115 161//115
f 162//116 163//116 164//116
f 165//117 166//117 167//117
f 168//118 169//118 170//118
f 171//119 172//119 173//119
f 174//120 175//120 176//120
f 177//121 178//121 179//121
f 180//122 181//122 182//122
f 183//123 184//123 185//123
f 186//124 187//124 188//124
f 189//125 190//125 191//125
f 192//126 193//126 194//126
f 195//127 196//127 197//127
f 198//128 199//128 200//128
f 201//129 202//129 203//129
f 204//130 205//130 206//130
f 207//131 208//131 209//131
f 210//132 211//132 212//132
f 213//133 214//133 215//133
f 216//134 217//134 218//134
f 219//135 220//135 221//135
f 224//136 225//136 226//136
f 55//137 51//137 53//137 54//137
f 56//138 55//138 54//138 57//138
f 59//139 58//139 57//139 60//139
f 62//140 61//140 60//140 63//140
f 52//141 64//141 63//141 53//141
f 68//142 65//142 67//142 69//142
f 71//143 70//143 69//143 72//143
f 74//144 73//144 72//144 75//144
f 77//145 76//145 75//145 78//145
f 66//146 79//146 78//146 67//146
f 83//147 80//147 82//147 84//147
f 86//148 85//148 84//148 87//148
f 89//149 88//149 87//149 90//149
f 92//150 91//150 90//150 93//150
f 81//151 94//151 93//151 82//151
f 98//152 95//152 97//152 99//152
f 101//153 100//153 99//153 102//153
f 104//154 103//154 102//154 105//154
f 107//155 106//155 105//155 108//155
f 96//156 109//156 108//156 97//156
f 113//157 110//157 112//157 114//157
f 116//158 115//158 114//158 117//158
f 119//159 118//159 117//159 120//159
f 122//160 121//160 120//160 123//160
f 111//161 124//161 123//161 112//161
f 128//162 125//162 127//162 129//162
f 131//163 130//163 129//163 132//163
f 135//164 133//164 132//164 134//164
f 136//165 135//165 134//165 137//165
f 126//36 138//36 137//36 127//36
f 140//166 142//166 141//166 139//166
f 146//166 140//166 139//166 144//166
f 149//167 146//167 145//167 147//167
f 152//168 149//168 148//168 150//168
f 142//169 152//169 151//169 143//169
f 155//170 157//170 156//170 153//170
f 161//171 155//171 154//171 159//171
f 164//172 161//172 160//172 162//172
f 167//173 164//173 163//173 165//173
f 157//174 167//174 166//174 158//174
f 170//175 172//175 171//175 168//175
f 176//176 170//176 169//176 174//176
f 179//177 176//177 175//177 177//177
f 182//178 179//178 178//178 180//178
f 172//179 182//179 181//179 173//179
f 185//180 187//180 186//180 183//180
f 191//181 185//181 184//181 189//181
f 194//182 191//182 190//182 192//182
f 197//183 194//183 193//183 195//183
f 187//184 197//184 196//184 188//184
f 200//185 202//185 201//185 198//185
f 206//186 200//186 199//186 204//186
f 209//187 206//187 205//187 207//187
f 212//188 209//188 208//188 210//188
f 202//189 212//189 211//189 203//189
f 215//190 217//190 216//190 213//190
f 221//191 215//191 214//191 219//191
f 223//192 221//192 220//192 222//192
f 226//192 223//192 222//192 224//192
f 217//193 226//193 225//193 218//193
f 100//194 184//194 183//194 98//194
f 188//195 96//195 95//195 186//195
f 110//196 201//196 203//196 111//196
f 210//197 122//197 124//197 211//197
f 51//64 141//64 143//64 52//64
f 150//64 62//64 64//64 151//64
f 103//198 190//198 189//198 101//198
f 106//199 193//199 192//199 104//199
f 109//200 196//200 195//200 107//200
f 85//201 169//201 168//201 83//201
f 173//202 81//202 80//202 171//202
f 88//203 175//203 174//203 86//203
f 91//204 178//204 177//204 89//204
f 94//205 181//205 180//205 92//205
f 130//64 214//64 213//64 128//64
f 218//64 126//64 125//64 216//64
f 70//206 154//206 153//206 68//206
f 158//207 66//207 65//207 156//207
f 133//64 220//64 219//64 131//64
f 73//208 160//208 159//208 71//208
f 76//209 163//209 162//209 74//209
f 138//64 225//64 224//64 136//64
f 79//210 166//210 165//210 77//210
f 115//211 199//211 198//211 113//211
f 118//212 205//212 204//212 116//212
f 58//64 145//64 144//64 56//64
f 121//213 208//213 207//213 119//213
f 61//64 148//64 147//64 59//64
