# Blender v2.78 (sub 0) OBJ File: 'art.blend'
# www.blender.org
mtllib cubiculeWall.mtl
o Cube.016_Cube.025
v -0.724781 0.078520 -0.027871
v -0.724781 2.078520 -0.027871
v 0.725219 0.078520 -0.027871
v 0.725219 2.078520 -0.027871
v -0.724781 0.078520 0.032129
v -0.724781 2.078520 0.032129
v 0.725219 0.078520 0.032129
v 0.725219 2.078520 0.032129
v -0.672461 0.078520 -0.027871
v -0.672461 2.078520 -0.027871
v -0.672461 0.078520 0.032129
v -0.672461 2.078520 0.032129
v 0.676637 2.078520 -0.027871
v 0.676637 0.078520 0.032129
v 0.676637 0.078520 -0.027871
v 0.676637 2.078520 0.032129
v -0.672461 -0.000002 -0.027871
v -0.724781 -0.000002 -0.027871
v 0.725219 -0.000002 0.032129
v 0.725219 -0.000002 -0.027871
v 0.676637 -0.000002 0.032129
v -0.724781 -0.000002 0.032129
v -0.672461 -0.000002 0.032129
v 0.676637 -0.000002 -0.027871
v -0.672461 -0.000002 -0.297872
v -0.724781 -0.000002 -0.297872
v 0.676637 -0.000002 0.302129
v 0.725219 -0.000002 0.302130
v -0.724781 -0.000002 0.302128
v -0.672461 -0.000002 0.302128
v 0.725219 -0.000002 -0.297871
v 0.676637 -0.000002 -0.297871
vt 0.1714 0.5023
vt 0.1886 0.5023
vt 0.1886 0.8331
vt 0.1714 0.8331
vt 0.1886 0.4904
vt 0.2057 0.4904
vt 0.2057 0.8212
vt 0.1886 0.8212
vt 0.0139 0.4904
vt 0.0139 0.0000
vt 0.3993 0.0000
vt 0.3993 0.4904
vt 0.4292 0.4904
vt 0.4292 0.0000
vt 0.8147 0.0000
vt 0.8147 0.4904
vt 0.8286 0.0000
vt 0.8286 0.4904
vt 0.9057 0.4904
vt 0.9057 0.0000
vt 0.9229 0.0000
vt 0.9229 0.4904
vt 0.4143 0.0000
vt 0.4143 0.4904
vt 0.0771 0.9807
vt 0.0771 0.4904
vt 0.0943 0.4904
vt 0.0943 0.9807
vt 0.2281 0.5713
vt 0.2281 0.5566
vt 0.2506 0.5566
vt 0.2506 0.5713
vt 0.1886 0.8459
vt 0.1714 0.8459
vt 0.4143 0.4904
vt 0.4143 0.0000
vt 0.0000 0.4904
vt 0.0000 0.0000
vt 0.2506 0.6375
vt 0.1714 0.4904
vt 0.1886 0.4904
vt 0.2506 0.5713
vt 0.2506 0.5566
vt 0.2655 0.5566
vt 0.2655 0.5713
vt 0.2655 0.5713
vt 0.2655 0.5566
vt 0.2794 0.5566
vt 0.2794 0.5713
vt 0.9057 0.5096
vt 0.8286 0.5096
vt 0.0943 1.0000
vt 0.0771 1.0000
vt 0.2057 0.5713
vt 0.2057 0.5566
vt 0.2281 0.5566
vt 0.2281 0.5713
vt 0.9229 0.5096
vt 0.2655 0.6375
vt 0.2506 0.6375
vt 0.2281 0.6375
vt 0.3093 0.5566
vt 0.2944 0.5566
vt 0.2944 0.4904
vt 0.3093 0.4904
vt 0.3232 0.5566
vt 0.3093 0.5566
vt 0.3093 0.4904
vt 0.3232 0.4904
vt 0.3232 0.4904
vt 0.3371 0.4904
vt 0.3371 0.5566
vt 0.3232 0.5566
vt 0.2794 0.4904
vt 0.2944 0.4904
vt 0.2944 0.5566
vt 0.2794 0.5566
vt 1.0000 0.5096
vt 0.2655 0.4904
vt 0.2794 0.4904
vt 0.2506 0.4904
vt 0.0000 1.0000
vt 0.2506 0.4904
vt 0.2655 0.4904
vt 0.2281 0.4904
vt 0.1714 1.0000
vt 0.2794 0.6375
vt 0.2655 0.6375
vn 0.0000 1.0000 0.0000
vn 0.0000 -1.0000 0.0000
vn 0.0000 0.0000 1.0000
vn -0.0000 0.0000 -1.0000
vn 1.0000 0.0000 0.0000
vn -1.0000 0.0000 0.0000
vn -0.0000 0.9602 0.2793
vn 0.0000 0.9602 -0.2793
usemtl Dark
s off
f 16/1/1 13/2/1 10/3/1 12/4/1
f 15/5/2 14/6/2 11/7/2 9/8/2
f 14/9/3 16/10/3 12/11/3 11/12/3
f 9/13/4 10/14/4 13/15/4 15/16/4
usemtl Detail
f 15/16/4 13/15/4 4/17/4 3/18/4
f 3/19/5 4/20/5 8/21/5 7/22/5
f 11/12/3 12/11/3 6/23/3 5/24/3
f 5/25/6 6/26/6 2/27/6 1/28/6
f 14/29/6 15/30/6 24/31/6 21/32/6
f 12/4/1 10/3/1 2/33/1 6/34/1
f 1/35/4 2/36/4 10/14/4 9/13/4
f 7/37/3 8/38/3 16/10/3 14/9/3
f 14/29/6 21/32/6 27/39/6
f 8/40/1 4/41/1 13/2/1 16/1/1
f 17/42/2 23/43/2 22/44/2 18/45/2
f 20/46/2 19/47/2 21/48/2 24/49/2
f 3/19/5 20/50/5 31/51/5
f 5/25/6 1/28/6 18/52/6 22/53/6
f 9/54/5 11/55/5 23/56/5 17/57/5
f 3/19/5 7/22/5 19/58/5 20/50/5
f 17/42/2 18/45/2 26/59/2 25/60/2
f 9/54/5 17/57/5 25/61/5
f 11/62/7 5/63/7 29/64/7 30/65/7
f 7/66/7 14/67/7 27/68/7 28/69/7
f 15/70/8 3/71/8 31/72/8 32/73/8
f 1/74/8 9/75/8 25/76/8 26/77/8
f 19/58/5 7/22/5 28/78/5
f 21/48/2 19/47/2 28/79/2 27/80/2
f 24/31/6 15/30/6 32/81/6
f 5/25/6 22/53/6 29/82/6
f 22/44/2 23/43/2 30/83/2 29/84/2
f 23/56/5 11/55/5 30/85/5
f 18/52/6 1/28/6 26/86/6
f 20/46/2 24/49/2 32/87/2 31/88/2
