# Blender v2.78 (sub 0) OBJ File: 'art.blend'
# www.blender.org
mtllib monitor.mtl
o Cube.019_Cube.028
v -0.270000 0.374625 -0.003775
v -0.270000 0.085375 -0.003775
v 0.270000 0.085375 -0.003775
v 0.270000 0.374625 -0.003775
v -0.291039 0.068456 -0.018750
v -0.300000 0.061250 -0.018048
v -0.300000 0.398750 -0.018048
v -0.291039 0.391544 -0.018750
v 0.291039 0.068456 -0.018750
v 0.300000 0.061250 -0.018048
v 0.300000 0.398750 -0.018048
v 0.291039 0.391544 -0.018750
v -0.278961 0.381831 -0.018750
v -0.270000 0.374625 -0.018048
v -0.270000 0.085375 -0.018048
v -0.278961 0.078169 -0.018750
v 0.270000 0.085375 -0.018048
v 0.278961 0.078169 -0.018750
v 0.278961 0.381831 -0.018750
v 0.270000 0.374625 -0.018048
v -0.300000 0.061250 0.004396
v -0.258397 0.084651 0.016198
v -0.258397 0.375349 0.016198
v -0.300000 0.398750 0.004396
v 0.258397 0.084651 0.016198
v 0.300000 0.061250 0.004396
v 0.300000 0.398750 0.004396
v 0.258397 0.375349 0.016198
v -0.064520 -0.000342 0.054387
v -0.071664 -0.000342 0.047022
v -0.049164 0.123140 0.008270
v -0.042020 0.123140 0.015635
v -0.071664 -0.000342 0.008350
v -0.064510 -0.000342 0.001312
v -0.042010 0.123140 0.001560
v -0.049164 0.123140 0.008598
v 0.078336 -0.000342 0.047022
v 0.071193 -0.000342 0.054387
v 0.048693 0.123140 0.015635
v 0.055836 0.123140 0.008270
v 0.071183 -0.000342 0.001312
v 0.078336 -0.000342 0.008350
v 0.055836 0.123140 0.008598
v 0.048683 0.123140 0.001560
vn 0.0000 0.2994 0.9541
vn 0.9838 0.1793 -0.0000
vn 0.0000 1.0000 0.0000
vn -0.9838 0.1793 0.0000
vn 0.0000 0.0020 -1.0000
vn -0.0000 0.0000 -1.0000
vn 0.0000 -1.0000 0.0000
vn 1.0000 0.0000 0.0000
vn -1.0000 0.0000 0.0000
vn -0.0781 0.0000 -0.9969
vn 0.0000 -0.0969 -0.9953
vn 0.0000 0.0969 -0.9953
vn 0.0781 0.0000 -0.9969
vn 0.0000 0.0000 1.0000
vn -0.2729 0.0000 0.9620
vn 0.2729 0.0000 0.9620
vn 0.0000 -0.4503 0.8929
vn 0.0000 0.4503 0.8929
vn -0.6777 0.3298 0.6573
vn -0.6955 0.1282 -0.7070
vn 0.6955 0.1282 -0.7070
vn 0.6777 0.3298 0.6573
usemtl None
s off
f 38//1 39//1 32//1 29//1
f 42//2 43//2 40//2 37//2
f 43//3 44//3 35//3 36//3 31//3 32//3 39//3 40//3
f 30//4 31//4 36//4 33//4
f 34//5 35//5 44//5 41//5
f 5//6 8//6 13//6 16//6
f 12//6 9//6 18//6 19//6
f 6//7 10//7 26//7 21//7
f 9//6 5//6 16//6 18//6
f 8//6 12//6 19//6 13//6
f 15//8 14//8 1//8 2//8
f 11//3 7//3 24//3 27//3
f 14//7 20//7 4//7 1//7
f 10//8 11//8 27//8 26//8
f 2//6 1//6 4//6 3//6
f 17//3 15//3 2//3 3//3
f 20//9 17//9 3//9 4//9
f 8//10 5//10 6//10 7//10
f 10//11 6//11 5//11 9//11
f 7//12 11//12 12//12 8//12
f 11//13 10//13 9//13 12//13
f 14//13 15//13 16//13 13//13
f 18//12 16//12 15//12 17//12
f 13//11 19//11 20//11 14//11
f 19//10 18//10 17//10 20//10
f 25//14 28//14 23//14 22//14
f 22//15 23//15 24//15 21//15
f 28//16 25//16 26//16 27//16
f 21//17 26//17 25//17 22//17
f 27//18 24//18 23//18 28//18
f 21//9 24//9 7//9 6//9
f 29//19 32//19 31//19 30//19
f 35//20 34//20 33//20 36//20
f 43//21 42//21 41//21 44//21
f 39//22 38//22 37//22 40//22
f 33//7 34//7 41//7 42//7 37//7 38//7 29//7 30//7
