# Blender v2.78 (sub 0) OBJ File: 'art.blend'
# www.blender.org
mtllib monitor.mtl
o Cube.019_Cube.028
v -0.270000 0.374625 -0.003775
v -0.270000 0.085375 -0.003775
v 0.270000 0.085375 -0.003775
v 0.270000 0.374625 -0.003775
v -0.291039 0.068456 -0.018750
v -0.300000 0.061250 -0.018048
v -0.300000 0.398750 -0.018048
v -0.291039 0.391544 -0.018750
v 0.291039 0.068456 -0.018750
v 0.300000 0.061250 -0.018048
v 0.300000 0.398750 -0.018048
v 0.291039 0.391544 -0.018750
v -0.278961 0.381831 -0.018750
v -0.270000 0.374625 -0.018048
v -0.270000 0.085375 -0.018048
v -0.278961 0.078169 -0.018750
v 0.270000 0.085375 -0.018048
v 0.278961 0.078169 -0.018750
v 0.278961 0.381831 -0.018750
v 0.270000 0.374625 -0.018048
v -0.300000 0.061250 0.004396
v -0.258397 0.084651 0.016198
v -0.258397 0.375349 0.016198
v -0.300000 0.398750 0.004396
v 0.258397 0.084651 0.016198
v 0.300000 0.061250 0.004396
v 0.300000 0.398750 0.004396
v 0.258397 0.375349 0.016198
v -0.064520 -0.000342 0.054387
v -0.071664 -0.000342 0.047022
v -0.049164 0.123140 0.008270
v -0.042020 0.123140 0.015635
v -0.071664 -0.000342 0.008350
v -0.064510 -0.000342 0.001312
v -0.042010 0.123140 0.001560
v -0.049164 0.123140 0.008598
v 0.078336 -0.000342 0.047022
v 0.071193 -0.000342 0.054387
v 0.048693 0.123140 0.015635
v 0.055836 0.123140 0.008270
v 0.071183 -0.000342 0.001312
v 0.078336 -0.000342 0.008350
v 0.055836 0.123140 0.008598
v 0.048683 0.123140 0.001560
vt 0.2399 0.8390
vt 0.1191 0.8133
vt 0.1191 0.7099
vt 0.2399 0.6842
vt 0.3254 0.6843
vt 0.3251 0.8264
vt 0.3254 0.8264
vt 0.2881 0.6842
vt 0.2467 0.6842
vt 0.2535 0.6924
vt 0.2535 0.7958
vt 0.2467 0.8040
vt 0.2470 0.8040
vt 0.2399 0.7958
vt 0.2399 0.6924
vt 0.2470 0.6842
vt 0.3325 0.8268
vt 0.3698 0.6847
vt 0.3695 0.6847
vt 0.3698 0.8268
vt 0.0000 0.6924
vt 0.1191 0.7181
vt 0.1191 0.8215
vt 0.0000 0.8471
vt 0.0069 0.0102
vt 0.3184 0.0102
vt 0.3091 0.0240
vt 0.0163 0.0240
vt 0.3184 0.6740
vt 0.0069 0.6740
vt 0.0163 0.6602
vt 0.3091 0.6602
vt 0.9508 0.6842
vt 0.9508 0.0000
vt 0.9725 0.0000
vt 0.9725 0.6842
vt 0.7723 0.6158
vt 0.7723 0.9451
vt 0.7585 0.9451
vt 0.7585 0.6158
vt 0.9508 0.0000
vt 0.9508 0.6842
vt 0.9292 0.6842
vt 0.9292 0.0000
vt 1.0000 0.0000
vt 1.0000 0.6158
vt 0.9862 0.6158
vt 0.9862 0.0000
vt 0.7448 0.6158
vt 0.7448 1.0000
vt 0.7231 1.0000
vt 0.7231 0.6158
vt 0.6503 0.0000
vt 0.9292 0.0000
vt 0.9292 0.6158
vt 0.6503 0.6158
vt 0.9862 0.0000
vt 0.9862 0.6158
vt 0.9725 0.6158
vt 0.9725 0.0000
vt 0.7585 0.6158
vt 0.7585 0.9451
vt 0.7448 0.9451
vt 0.7448 0.6158
vt 0.0000 0.0000
vt 0.3254 0.0000
vt 0.0000 0.6842
vt 0.3254 0.6842
vt 0.3021 0.0342
vt 0.0233 0.0342
vt 0.0233 0.6500
vt 0.3021 0.6500
vt 0.3473 0.0474
vt 0.6272 0.0474
vt 0.6272 0.6368
vt 0.3473 0.6368
vt 0.6503 0.6842
vt 0.3254 0.6842
vt 0.3254 0.0000
vt 0.6503 0.0000
vt 0.7015 1.0000
vt 0.7015 0.6158
vt 0.7231 0.6158
vt 0.7231 1.0000
vt 0.3254 0.8264
vt 0.3627 0.6842
vt 0.0000 0.6842
vt 0.1191 0.7099
vt 0.1191 0.8296
vt 0.0000 0.8553
vt 0.3183 0.8268
vt 0.2810 0.6847
vt 0.6571 0.7869
vt 0.6503 0.7787
vt 0.6503 0.6240
vt 0.6571 0.6158
vt 0.6944 0.6158
vt 0.7015 0.6240
vt 0.7015 0.7787
vt 0.6944 0.7869
vn 0.0000 0.2994 0.9541
vn 0.9838 0.1793 -0.0000
vn 0.0000 1.0000 0.0000
vn -0.9838 0.1793 0.0000
vn 0.0000 0.0020 -1.0000
vn -0.0000 0.0000 -1.0000
vn 0.0000 -1.0000 0.0000
vn 1.0000 0.0000 0.0000
vn -1.0000 0.0000 0.0000
vn -0.0781 0.0000 -0.9969
vn 0.0000 -0.0969 -0.9953
vn 0.0000 0.0969 -0.9953
vn 0.0781 0.0000 -0.9969
vn 0.0000 0.0000 1.0000
vn -0.2729 0.0000 0.9620
vn 0.2729 0.0000 0.9620
vn 0.0000 -0.4503 0.8929
vn 0.0000 0.4503 0.8929
vn -0.6777 0.3298 0.6573
vn -0.6955 0.1282 -0.7070
vn 0.6955 0.1282 -0.7070
vn 0.6777 0.3298 0.6573
usemtl None
s off
f 38/1/1 39/2/1 32/3/1 29/4/1
f 42/5/2 43/6/2 40/7/2 37/8/2
f 43/9/3 44/10/3 35/11/3 36/12/3 31/13/3 32/14/3 39/15/3 40/16/3
f 30/17/4 31/18/4 36/19/4 33/20/4
f 34/21/5 35/22/5 44/23/5 41/24/5
f 5/25/6 8/26/6 13/27/6 16/28/6
f 12/29/6 9/30/6 18/31/6 19/32/6
f 6/33/7 10/34/7 26/35/7 21/36/7
f 9/30/6 5/25/6 16/28/6 18/31/6
f 8/26/6 12/29/6 19/32/6 13/27/6
f 15/37/8 14/38/8 1/39/8 2/40/8
f 11/41/3 7/42/3 24/43/3 27/44/3
f 14/45/7 20/46/7 4/47/7 1/48/7
f 10/49/8 11/50/8 27/51/8 26/52/8
f 2/53/6 1/54/6 4/55/6 3/56/6
f 17/57/3 15/58/3 2/59/3 3/60/3
f 20/61/9 17/62/9 3/63/9 4/64/9
f 8/26/10 5/25/10 6/65/10 7/66/10
f 10/67/11 6/65/11 5/25/11 9/30/11
f 7/66/12 11/68/12 12/29/12 8/26/12
f 11/68/13 10/67/13 9/30/13 12/29/13
f 14/69/13 15/70/13 16/28/13 13/27/13
f 18/31/12 16/28/12 15/70/12 17/71/12
f 13/27/11 19/32/11 20/72/11 14/69/11
f 19/32/10 18/31/10 17/71/10 20/72/10
f 25/73/14 28/74/14 23/75/14 22/76/14
f 22/76/15 23/75/15 24/77/15 21/78/15
f 28/74/16 25/73/16 26/79/16 27/80/16
f 21/78/17 26/79/17 25/73/17 22/76/17
f 27/80/18 24/77/18 23/75/18 28/74/18
f 21/81/9 24/82/9 7/83/9 6/84/9
f 29/85/19 32/86/19 31/18/19 30/17/19
f 35/22/20 34/21/20 33/87/20 36/88/20
f 43/89/21 42/90/21 41/24/21 44/23/21
f 39/91/22 38/92/22 37/8/22 40/7/22
f 33/93/7 34/94/7 41/95/7 42/96/7 37/97/7 38/98/7 29/99/7 30/100/7
