# Blender v2.78 (sub 0) OBJ File: 'art.blend'
# www.blender.org
mtllib pipe_small.mtl
o Cylinder.016_Cylinder.020
v 0.015307 0.036955 -1.000059
v 0.015307 0.036955 -0.039558
v 0.036955 0.015307 -1.000059
v 0.036955 0.015307 -0.039558
v 0.036955 -0.015307 -1.000059
v 0.036955 -0.015307 -0.039558
v 0.015307 -0.036955 -1.000059
v 0.015307 -0.036955 -0.039558
v -0.015307 -0.036955 -1.000059
v -0.015307 -0.036955 -0.039558
v -0.036955 -0.015307 -1.000059
v -0.036955 -0.015307 -0.039558
v -0.036955 0.015307 -1.000059
v -0.036955 0.015307 -0.039558
v -0.015307 0.036955 -1.000059
v -0.015307 0.036955 -0.039558
v 0.015307 0.036955 -0.000059
v 0.036955 0.015307 -0.000059
v 0.036955 -0.015307 -0.000059
v 0.015307 -0.036955 -0.000059
v -0.015307 -0.036955 -0.000059
v -0.036955 -0.015307 -0.000059
v -0.036955 0.015307 -0.000059
v -0.015307 0.036955 -0.000059
v 0.017599 0.042489 -0.029392
v 0.042489 0.017599 -0.029392
v 0.042489 -0.017599 -0.029392
v 0.017599 -0.042489 -0.029392
v -0.017599 -0.042489 -0.029392
v -0.042489 -0.017599 -0.029392
v -0.042489 0.017599 -0.029392
v -0.017599 0.042489 -0.029392
v 0.017599 0.042489 -0.010226
v 0.042489 0.017599 -0.010226
v 0.042489 -0.017599 -0.010226
v 0.017599 -0.042489 -0.010226
v -0.017599 -0.042489 -0.010226
v -0.042489 -0.017599 -0.010226
v -0.042489 0.017599 -0.010226
v -0.017599 0.042489 -0.010226
v 0.015307 0.036955 -1.000059
v 0.015307 0.036955 -1.000059
v 0.036955 0.015307 -1.000059
v 0.036955 0.015307 -1.000059
v 0.036955 -0.015307 -1.000059
v 0.036955 -0.015307 -1.000059
v 0.015307 -0.036955 -1.000059
v 0.015307 -0.036955 -1.000059
v -0.015307 -0.036955 -1.000059
v -0.015307 -0.036955 -1.000059
v -0.036955 -0.015307 -1.000059
v -0.036955 -0.015307 -1.000059
v -0.036955 0.015307 -1.000059
v -0.036955 0.015307 -1.000059
v -0.015307 0.036955 -1.000059
v -0.015307 0.036955 -1.000059
v 0.036955 0.015307 -0.000059
v 0.015307 0.036955 -0.000059
v 0.036955 -0.015307 -0.000059
v 0.015307 -0.036955 -0.000059
v -0.015307 -0.036955 -0.000059
v -0.036955 -0.015307 -0.000059
v -0.036955 0.015307 -0.000059
v -0.015307 0.036955 -0.000059
vn 0.3673 0.8867 -0.2809
vn 0.8867 0.3673 -0.2809
vn 0.7071 0.7071 0.0000
vn 0.8867 -0.3673 -0.2809
vn 1.0000 0.0000 0.0000
vn 0.3673 -0.8867 -0.2809
vn 0.7071 -0.7071 0.0000
vn -0.3673 -0.8867 -0.2809
vn 0.0000 -1.0000 0.0000
vn -0.8867 -0.3673 -0.2809
vn -0.7071 -0.7071 0.0000
vn -0.8867 0.3673 -0.2809
vn -1.0000 0.0000 0.0000
vn -0.3673 0.8867 -0.2809
vn -0.7071 0.7071 0.0000
vn -0.7960 -0.3297 0.5076
vn -0.7960 0.3297 0.5076
vn -0.8950 0.3707 0.2481
vn -0.8950 -0.3707 0.2481
vn -0.8950 -0.3707 -0.2481
vn -0.8950 0.3707 -0.2481
vn 0.0000 0.0000 -1.0000
vn 0.0000 0.0000 1.0000
vn -0.3297 0.7960 0.5076
vn 0.3297 0.7960 0.5076
vn 0.3707 0.8950 0.2481
vn -0.3707 0.8950 0.2481
vn 0.8950 -0.3707 -0.2481
vn 0.8950 0.3707 -0.2481
vn 0.8950 0.3707 0.2481
vn 0.8950 -0.3707 0.2481
vn -0.3297 -0.7960 0.5076
vn -0.3707 -0.8950 0.2481
vn 0.3707 0.8950 -0.2481
vn 0.3297 -0.7960 0.5076
vn 0.3707 -0.8950 0.2481
vn -0.3707 0.8950 -0.2481
vn -0.3707 -0.8950 -0.2481
vn 0.3707 -0.8950 -0.2481
vn 0.7960 0.3297 0.5076
vn 0.7960 -0.3297 0.5076
vn 0.0000 1.0000 0.0000
usemtl Dark
s 1
f 2//1 4//2 43//3 41//3
f 4//2 6//4 45//5 44//5
f 6//4 8//6 47//7 46//7
f 8//6 10//8 49//9 48//9
f 10//8 12//10 51//11 50//11
f 12//10 14//12 53//13 52//13
f 14//12 16//14 55//15 54//15
f 22//16 63//17 39//18 38//19
f 14//12 12//10 30//20 31//21
f 42//22 3//22 5//22 7//22 9//22 11//22 13//22 56//22
f 58//23 64//23 23//23 62//23 61//23 60//23 59//23 57//23
f 24//24 17//25 33//26 40//27
f 27//28 26//29 34//30 35//31
f 21//32 22//16 38//19 37//33
f 4//2 2//1 25//34 26//29
f 20//35 21//32 37//33 36//36
f 14//12 31//21 32//37 16//14
f 10//8 29//38 30//20 12//10
f 6//4 27//28 28//39 8//6
f 2//1 16//14 32//37 25//34
f 28//39 36//36 37//33 29//38
f 32//37 31//21 39//18 40//27
f 26//29 25//34 33//26 34//30
f 27//28 35//31 36//36 28//39
f 31//21 30//20 38//19 39//18
f 30//20 29//38 37//33 38//19
f 25//34 32//37 40//27 33//26
f 63//17 24//24 40//27 39//18
f 17//25 18//40 34//30 33//26
f 10//8 8//6 28//39 29//38
f 18//40 19//41 35//31 34//30
f 6//4 4//2 26//29 27//28
f 19//41 20//35 36//36 35//31
f 15//42 16//14 2//1 1//42
