# Blender v2.78 (sub 0) OBJ File: 'art.blend'
# www.blender.org
mtllib pipe_straight.mtl
o Cylinder.014_Cylinder.018
v 1.001201 0.200000 -0.000000
v 0.048819 0.200000 0.000000
v 1.001201 0.184776 0.076537
v 0.048819 0.184776 0.076537
v 1.001201 0.141421 0.141421
v 0.048819 0.141421 0.141421
v 1.001201 0.076537 0.184776
v 0.048819 0.076537 0.184776
v 1.001201 0.000000 0.200000
v 0.048819 -0.000000 0.200000
v 1.001201 -0.076537 0.184776
v 0.048819 -0.076537 0.184776
v 1.001201 -0.141421 0.141421
v 0.048819 -0.141421 0.141421
v 1.001201 -0.184776 0.076537
v 0.048819 -0.184776 0.076537
v 1.001201 -0.200000 -0.000000
v 0.048819 -0.200000 0.000000
v 1.001201 -0.184776 -0.076537
v 0.048819 -0.184776 -0.076537
v 1.001201 -0.141421 -0.141421
v 0.048819 -0.141421 -0.141421
v 1.001201 -0.076537 -0.184776
v 0.048819 -0.076537 -0.184776
v 1.001201 0.000000 -0.200000
v 0.048819 -0.000000 -0.200000
v 1.001201 0.076537 -0.184776
v 0.048819 0.076537 -0.184776
v 1.001201 0.141421 -0.141421
v 0.048819 0.141421 -0.141421
v 1.001201 0.184776 -0.076537
v 0.048819 0.184776 -0.076537
v 0.001200 0.184776 0.076537
v 0.001200 0.200000 0.000000
v 0.001200 0.141421 0.141421
v 0.001200 0.076537 0.184776
v 0.001200 -0.000000 0.200000
v 0.001200 -0.076537 0.184776
v 0.001200 -0.141421 0.141421
v 0.001200 -0.184776 0.076537
v 0.001200 -0.200000 0.000000
v 0.001200 -0.184776 -0.076537
v 0.001200 -0.141421 -0.141421
v 0.001200 -0.076537 -0.184776
v 0.001200 -0.000000 -0.200000
v 0.001200 0.076537 -0.184776
v 0.001200 0.141421 -0.141421
v 0.001200 0.184776 -0.076537
v 0.038653 0.212443 0.087997
v 0.038653 0.229947 0.000000
v 0.038653 0.162597 0.162597
v 0.038653 0.087997 0.212443
v 0.038653 -0.000000 0.229947
v 0.038653 -0.087997 0.212443
v 0.038653 -0.162597 0.162597
v 0.038653 -0.212443 0.087997
v 0.038653 -0.229947 0.000000
v 0.038653 -0.212443 -0.087997
v 0.038653 -0.162597 -0.162597
v 0.038653 -0.087997 -0.212443
v 0.038653 -0.000000 -0.229947
v 0.038653 0.087997 -0.212443
v 0.038653 0.162597 -0.162597
v 0.038653 0.212443 -0.087997
v 0.011367 0.212443 0.087997
v 0.011367 0.229947 0.000000
v 0.011367 0.162597 0.162597
v 0.011367 0.087997 0.212443
v 0.011367 -0.000000 0.229947
v 0.011367 -0.087997 0.212443
v 0.011367 -0.162597 0.162597
v 0.011367 -0.212443 0.087997
v 0.011367 -0.229947 0.000000
v 0.011367 -0.212443 -0.087997
v 0.011367 -0.162597 -0.162597
v 0.011367 -0.087997 -0.212443
v 0.011367 -0.000000 -0.229947
v 0.011367 0.087997 -0.212443
v 0.011367 0.162597 -0.162597
v 0.011367 0.212443 -0.087997
v 1.001201 0.200000 -0.000000
v 1.001201 0.184776 0.076537
v 0.048819 0.184776 0.076537
v 0.048819 0.200000 0.000000
v 1.001201 0.141421 0.141421
v 0.048819 0.141421 0.141421
v 1.001201 0.076537 0.184776
v 0.048819 0.076537 0.184776
v 1.001201 0.000000 0.200000
v 0.048819 -0.000000 0.200000
v 1.001201 -0.076537 0.184776
v 0.048819 -0.076537 0.184776
v 1.001201 -0.141421 0.141421
v 0.048819 -0.141421 0.141421
v 1.001201 -0.184776 0.076537
v 0.048819 -0.184776 0.076537
v 1.001201 -0.200000 -0.000000
v 0.048819 -0.200000 0.000000
v 1.001201 -0.184776 -0.076537
v 0.048819 -0.184776 -0.076537
v 1.001201 -0.141421 -0.141421
v 0.048819 -0.141421 -0.141421
v 1.001201 -0.076537 -0.184776
v 0.048819 -0.076537 -0.184776
v 1.001201 0.000000 -0.200000
v 0.048819 -0.000000 -0.200000
v 1.001201 0.076537 -0.184776
v 0.048819 0.076537 -0.184776
v 1.001201 0.141421 -0.141421
v 0.048819 0.141421 -0.141421
v 1.001201 0.184776 -0.076537
v 0.048819 0.184776 -0.076537
v 0.038653 0.212443 0.087997
v 0.038653 0.229947 0.000000
v 0.038653 0.162597 0.162597
v 0.038653 0.087997 0.212443
v 0.038653 -0.000000 0.229947
v 0.038653 -0.087997 0.212443
v 0.038653 -0.162597 0.162597
v 0.038653 -0.212443 0.087997
v 0.038653 -0.229947 0.000000
v 0.038653 -0.212443 -0.087997
v 0.038653 -0.162597 -0.162597
v 0.038653 -0.087997 -0.212443
v 0.038653 -0.000000 -0.229947
v 0.038653 0.087997 -0.212443
v 0.038653 0.162597 -0.162597
v 0.038653 0.212443 -0.087997
v 0.011367 0.212443 0.087997
v 0.011367 0.229947 0.000000
v 0.011367 0.162597 0.162597
v 0.011367 0.087997 0.212443
v 0.011367 -0.000000 0.229947
v 0.011367 -0.087997 0.212443
v 0.011367 -0.162597 0.162597
v 0.011367 -0.212443 0.087997
v 0.011367 -0.229947 0.000000
v 0.011367 -0.212443 -0.087997
v 0.011367 -0.162597 -0.162597
v 0.011367 -0.087997 -0.212443
v 0.011367 -0.000000 -0.229947
v 0.011367 0.087997 -0.212443
v 0.011367 0.162597 -0.162597
v 0.011367 0.212443 -0.087997
vt 0.2996 0.0000
vt 0.2996 0.6786
vt 0.2569 0.6786
vt 0.2569 0.0000
vt 0.6856 0.6786
vt 0.6856 0.0000
vt 0.7413 0.0000
vt 0.7413 0.6786
vt 0.8015 0.0000
vt 0.8015 0.6786
vt 0.8572 0.0000
vt 0.8572 0.6786
vt 0.2569 0.0000
vt 0.2569 0.6786
vt 0.2143 0.6786
vt 0.2143 0.0000
vt 0.1586 0.6786
vt 0.1586 0.0000
vt 0.0983 0.6786
vt 0.0983 0.0000
vt 0.0426 0.6786
vt 0.0426 0.0000
vt 0.0000 0.6786
vt 0.0000 0.0000
vt 0.6856 0.0000
vt 0.6856 0.6786
vt 0.6299 0.6786
vt 0.6299 0.0000
vt 0.5696 0.6786
vt 0.5696 0.0000
vt 0.5139 0.6786
vt 0.5139 0.0000
vt 0.4712 0.6786
vt 0.4712 0.0000
vt 0.4156 0.6786
vt 0.4156 0.0000
vt 0.2044 0.6995
vt 0.1441 0.6995
vt 0.1396 0.6786
vt 0.2089 0.6786
vt 0.3553 0.6786
vt 0.3553 0.0000
vt 0.9343 0.6999
vt 0.9769 0.7392
vt 1.0000 0.7906
vt 1.0000 0.8462
vt 0.9769 0.8975
vt 0.9343 0.9369
vt 0.8786 0.9581
vt 0.8183 0.9581
vt 0.7626 0.9369
vt 0.7200 0.8975
vt 0.6969 0.8462
vt 0.6969 0.7906
vt 0.7200 0.7392
vt 0.7626 0.6999
vt 0.8183 0.6786
vt 0.8786 0.6786
vt 0.2601 0.7208
vt 0.3027 0.7601
vt 0.3258 0.8115
vt 0.3258 0.8671
vt 0.3027 0.9185
vt 0.2601 0.9578
vt 0.2044 0.9791
vt 0.1441 0.9791
vt 0.0884 0.9578
vt 0.0458 0.9185
vt 0.0227 0.8671
vt 0.0227 0.8115
vt 0.0458 0.7601
vt 0.0884 0.7208
vt 0.3219 0.7483
vt 0.3485 0.8073
vt 0.4925 0.6995
vt 0.4369 0.7208
vt 0.4240 0.7031
vt 0.4880 0.6786
vt 0.6085 0.9578
vt 0.6512 0.9185
vt 0.6704 0.9303
vt 0.6214 0.9755
vt 0.3485 0.8713
vt 0.3219 0.9303
vt 0.3942 0.9185
vt 0.4369 0.9578
vt 0.4240 0.9755
vt 0.3750 0.9303
vt 0.6085 0.7208
vt 0.5528 0.6995
vt 0.5573 0.6786
vt 0.6214 0.7031
vt 0.2729 0.9755
vt 0.3942 0.7601
vt 0.3750 0.7483
vt 0.6742 0.8671
vt 0.6969 0.8713
vt 0.2089 1.0000
vt 0.1396 1.0000
vt 0.4925 0.9791
vt 0.4880 1.0000
vt 0.0755 0.9755
vt 0.8994 0.2273
vt 0.8994 0.2863
vt 0.8783 0.2863
vt 0.8783 0.2273
vt 0.8572 0.2725
vt 0.8572 0.2273
vt 0.8783 0.2273
vt 0.8783 0.2725
vt 0.8572 0.3315
vt 0.8572 0.2725
vt 0.8783 0.2725
vt 0.8783 0.3315
vt 0.8994 0.3503
vt 0.8994 0.4093
vt 0.8783 0.4093
vt 0.8783 0.3503
vt 0.8572 0.1682
vt 0.8572 0.1043
vt 0.8783 0.1043
vt 0.8783 0.1682
vt 0.8783 0.1821
vt 0.8783 0.1230
vt 0.8994 0.1230
vt 0.8994 0.1821
vt 0.8572 0.0452
vt 0.8572 0.0000
vt 0.8783 0.0000
vt 0.8783 0.0452
vt 0.8783 0.0591
vt 0.8783 0.0000
vt 0.8994 0.0000
vt 0.8994 0.0591
vt 0.8572 0.3955
vt 0.8783 0.3955
vt 0.8572 0.4997
vt 0.8572 0.4545
vt 0.8783 0.4545
vt 0.8783 0.4997
vt 0.8783 0.2273
vt 0.8994 0.2273
vt 0.6512 0.7601
vt 0.6704 0.7483
vt 0.3712 0.8671
vt 0.3485 0.8713
vt 0.2729 0.7031
vt 0.0755 0.7031
vt 0.5528 0.9791
vt 0.5573 1.0000
vt 0.0265 0.7483
vt 0.0000 0.8073
vt 0.6742 0.8115
vt 0.6969 0.8073
vt 0.3712 0.8115
vt 0.3485 0.8073
vt 0.0000 0.8713
vt 0.0265 0.9303
vn 0.0000 1.0000 0.0000
vn 0.0000 0.9239 0.3827
vn 0.0000 0.7071 0.7071
vn 0.0000 0.3827 0.9239
vn 0.0000 0.0000 1.0000
vn 0.0000 -0.3827 0.9239
vn 0.0000 -0.7071 0.7071
vn 0.0000 -0.9239 0.3827
vn 0.0000 -1.0000 0.0000
vn 0.0000 -0.9239 -0.3827
vn 0.0000 -0.7071 -0.7071
vn 0.0000 -0.3827 -0.9239
vn 0.0000 0.0000 -1.0000
vn 0.0000 0.3827 -0.9239
vn 0.0000 0.7071 -0.7071
vn -0.9832 0.1826 0.0000
vn -0.9832 0.1687 0.0699
vn -0.9469 0.2970 0.1230
vn -0.9469 0.3215 0.0000
vn 0.0000 0.9239 -0.3827
vn 1.0000 0.0000 0.0000
vn -0.9832 0.1687 -0.0699
vn -0.9832 0.1291 -0.1291
vn -0.9832 0.0699 -0.1687
vn -0.9832 0.0000 -0.1826
vn -0.9832 -0.0699 -0.1687
vn -0.9832 -0.1291 -0.1291
vn -0.9832 -0.1687 -0.0699
vn -0.9832 -0.1826 0.0000
vn -0.9832 -0.1687 0.0699
vn -0.9832 -0.1291 0.1291
vn -0.9832 -0.0699 0.1687
vn -0.9832 0.0000 0.1826
vn -0.9832 0.0699 0.1687
vn -0.9832 0.1291 0.1291
vn -0.9469 0.2273 -0.2273
vn -0.9469 0.1230 -0.2970
vn 0.9469 0.3215 0.0000
vn 0.9469 0.2970 -0.1230
vn 0.9469 -0.2970 0.1230
vn 0.9469 -0.2273 0.2273
vn -0.9469 0.0000 -0.3215
vn -0.9469 -0.1230 -0.2970
vn 0.9469 -0.1230 -0.2970
vn 0.9469 -0.2273 -0.2273
vn 0.9469 0.2273 0.2273
vn 0.9469 0.2970 0.1230
vn -0.9469 -0.2273 -0.2273
vn 0.9469 0.2273 -0.2273
vn 0.9469 -0.1230 0.2970
vn -0.9469 -0.2970 -0.1230
vn -0.9469 -0.3215 0.0000
vn 0.9469 -0.2970 -0.1230
vn -0.9469 -0.2970 0.1230
vn 0.9469 0.1230 0.2970
vn 0.9469 0.0000 -0.3215
vn -0.9469 0.2970 -0.1230
vn -0.9469 0.2273 0.2273
vn 0.9469 -0.3215 0.0000
vn -0.9469 0.1230 0.2970
vn -0.9469 0.0000 0.3215
vn 0.9469 0.0000 0.3215
vn 0.9469 0.1230 -0.2970
vn -0.9469 -0.1230 0.2970
vn -0.9469 -0.2273 0.2273
usemtl Dark
s 1
f 81/1/1 84/2/1 83/3/2 82/4/2
f 82/5/2 83/6/2 86/7/3 85/8/3
f 85/8/3 86/7/3 88/9/4 87/10/4
f 87/10/4 88/9/4 90/11/5 89/12/5
f 89/13/5 90/14/5 92/15/6 91/16/6
f 91/16/6 92/15/6 94/17/7 93/18/7
f 93/18/7 94/17/7 96/19/8 95/20/8
f 95/20/8 96/19/8 98/21/9 97/22/9
f 97/22/9 98/21/9 100/23/10 99/24/10
f 99/25/10 100/26/10 102/27/11 101/28/11
f 101/28/11 102/27/11 104/29/12 103/30/12
f 103/30/12 104/29/12 106/31/13 105/32/13
f 105/32/13 106/31/13 108/33/14 107/34/14
f 107/34/14 108/33/14 110/35/15 109/36/15
f 34/37/16 33/38/17 129/39/18 130/40/19
f 109/36/15 110/35/15 112/41/20 111/42/20
f 111/42/20 112/41/20 84/2/1 81/1/1
f 1/43/21 3/44/21 5/45/21 7/46/21 9/47/21 11/48/21 13/49/21 15/50/21 17/51/21 19/52/21 21/53/21 23/54/21 25/55/21 27/56/21 29/57/21 31/58/21
f 33/38/17 34/37/16 48/59/22 47/60/23 46/61/24 45/62/25 44/63/26 43/64/27 42/65/28 41/66/29 40/67/30 39/68/31 38/69/32 37/70/33 36/71/34 35/72/35
f 46/61/24 47/60/23 143/73/36 142/74/37
f 2/75/38 32/76/39 128/77/39 114/78/38
f 16/79/40 14/80/41 119/81/41 120/82/40
f 45/62/25 46/61/24 142/74/37 141/83/42
f 44/63/26 45/62/25 141/83/42 140/84/43
f 24/85/44 22/86/45 123/87/45 124/88/44
f 6/89/46 4/90/47 113/91/47 115/92/46
f 43/64/27 44/63/26 140/84/43 139/93/48
f 32/76/39 30/94/49 127/95/49 128/77/39
f 14/80/41 12/96/50 118/97/50 119/81/41
f 42/65/28 43/64/27 139/93/48 138/98/51
f 41/66/29 42/65/28 138/98/51 137/99/52
f 22/86/45 20/100/53 122/101/53 123/87/45
f 40/67/30 41/66/29 137/99/52 136/102/54
f 4/90/47 2/75/38 114/78/38 113/91/47
f 117/103/5 116/104/4 132/105/4 133/106/5
f 58/107/10 121/108/9 73/109/9 74/110/10
f 63/111/15 126/112/14 78/113/14 79/114/15
f 51/115/3 49/116/2 65/117/2 131/118/3
f 56/119/8 55/120/7 135/121/7 72/122/8
f 125/123/13 60/124/12 76/125/12 77/126/13
f 54/127/6 117/128/5 133/129/5 134/130/6
f 59/131/11 58/132/10 74/133/10 75/134/11
f 64/135/20 63/111/15 79/114/15 144/136/20
f 116/104/4 51/115/3 131/118/3 132/105/4
f 121/108/9 56/119/8 72/122/8 73/109/9
f 49/137/2 50/138/1 66/139/1 65/140/2
f 126/141/14 125/123/13 77/126/13 78/142/14
f 55/120/7 54/127/6 134/130/6 135/121/7
f 60/124/12 59/131/11 75/134/11 76/125/12
f 50/138/1 64/135/20 144/136/20 66/139/1
f 8/143/55 6/89/46 115/92/46 52/144/55
f 26/145/56 24/85/44 124/88/44 61/146/56
f 47/60/23 48/59/22 80/147/57 143/73/36
f 33/38/17 35/72/35 67/148/58 129/39/18
f 48/59/22 34/37/16 130/40/19 80/147/57
f 18/149/59 16/79/40 120/82/40 57/150/59
f 35/72/35 36/71/34 68/151/60 67/148/58
f 36/71/34 37/70/33 69/152/61 68/151/60
f 10/153/62 8/143/55 52/144/55 53/154/62
f 28/155/63 26/145/56 61/146/56 62/156/63
f 37/70/33 38/69/32 70/157/64 69/152/61
f 20/100/53 18/149/59 57/150/59 122/101/53
f 38/69/32 39/68/31 71/158/65 70/157/64
f 39/68/31 40/67/30 136/102/54 71/158/65
f 12/96/50 10/153/62 53/154/62 118/97/50
f 30/94/49 28/155/63 62/156/63 127/95/49
