# Blender v2.78 (sub 0) OBJ File: 'art.blend'
# www.blender.org
mtllib pipe_straight.mtl
o Cylinder.014_Cylinder.018
v 1.001201 0.200000 -0.000000
v 0.048819 0.200000 0.000000
v 1.001201 0.184776 0.076537
v 0.048819 0.184776 0.076537
v 1.001201 0.141421 0.141421
v 0.048819 0.141421 0.141421
v 1.001201 0.076537 0.184776
v 0.048819 0.076537 0.184776
v 1.001201 0.000000 0.200000
v 0.048819 -0.000000 0.200000
v 1.001201 -0.076537 0.184776
v 0.048819 -0.076537 0.184776
v 1.001201 -0.141421 0.141421
v 0.048819 -0.141421 0.141421
v 1.001201 -0.184776 0.076537
v 0.048819 -0.184776 0.076537
v 1.001201 -0.200000 -0.000000
v 0.048819 -0.200000 0.000000
v 1.001201 -0.184776 -0.076537
v 0.048819 -0.184776 -0.076537
v 1.001201 -0.141421 -0.141421
v 0.048819 -0.141421 -0.141421
v 1.001201 -0.076537 -0.184776
v 0.048819 -0.076537 -0.184776
v 1.001201 0.000000 -0.200000
v 0.048819 -0.000000 -0.200000
v 1.001201 0.076537 -0.184776
v 0.048819 0.076537 -0.184776
v 1.001201 0.141421 -0.141421
v 0.048819 0.141421 -0.141421
v 1.001201 0.184776 -0.076537
v 0.048819 0.184776 -0.076537
v 0.001200 0.184776 0.076537
v 0.001200 0.200000 0.000000
v 0.001200 0.141421 0.141421
v 0.001200 0.076537 0.184776
v 0.001200 -0.000000 0.200000
v 0.001200 -0.076537 0.184776
v 0.001200 -0.141421 0.141421
v 0.001200 -0.184776 0.076537
v 0.001200 -0.200000 0.000000
v 0.001200 -0.184776 -0.076537
v 0.001200 -0.141421 -0.141421
v 0.001200 -0.076537 -0.184776
v 0.001200 -0.000000 -0.200000
v 0.001200 0.076537 -0.184776
v 0.001200 0.141421 -0.141421
v 0.001200 0.184776 -0.076537
v 0.038653 0.212443 0.087997
v 0.038653 0.229947 0.000000
v 0.038653 0.162597 0.162597
v 0.038653 0.087997 0.212443
v 0.038653 -0.000000 0.229947
v 0.038653 -0.087997 0.212443
v 0.038653 -0.162597 0.162597
v 0.038653 -0.212443 0.087997
v 0.038653 -0.229947 0.000000
v 0.038653 -0.212443 -0.087997
v 0.038653 -0.162597 -0.162597
v 0.038653 -0.087997 -0.212443
v 0.038653 -0.000000 -0.229947
v 0.038653 0.087997 -0.212443
v 0.038653 0.162597 -0.162597
v 0.038653 0.212443 -0.087997
v 0.011367 0.212443 0.087997
v 0.011367 0.229947 0.000000
v 0.011367 0.162597 0.162597
v 0.011367 0.087997 0.212443
v 0.011367 -0.000000 0.229947
v 0.011367 -0.087997 0.212443
v 0.011367 -0.162597 0.162597
v 0.011367 -0.212443 0.087997
v 0.011367 -0.229947 0.000000
v 0.011367 -0.212443 -0.087997
v 0.011367 -0.162597 -0.162597
v 0.011367 -0.087997 -0.212443
v 0.011367 -0.000000 -0.229947
v 0.011367 0.087997 -0.212443
v 0.011367 0.162597 -0.162597
v 0.011367 0.212443 -0.087997
v 1.001201 0.200000 -0.000000
v 1.001201 0.184776 0.076537
v 0.048819 0.184776 0.076537
v 0.048819 0.200000 0.000000
v 1.001201 0.141421 0.141421
v 0.048819 0.141421 0.141421
v 1.001201 0.076537 0.184776
v 0.048819 0.076537 0.184776
v 1.001201 0.000000 0.200000
v 0.048819 -0.000000 0.200000
v 1.001201 -0.076537 0.184776
v 0.048819 -0.076537 0.184776
v 1.001201 -0.141421 0.141421
v 0.048819 -0.141421 0.141421
v 1.001201 -0.184776 0.076537
v 0.048819 -0.184776 0.076537
v 1.001201 -0.200000 -0.000000
v 0.048819 -0.200000 0.000000
v 1.001201 -0.184776 -0.076537
v 0.048819 -0.184776 -0.076537
v 1.001201 -0.141421 -0.141421
v 0.048819 -0.141421 -0.141421
v 1.001201 -0.076537 -0.184776
v 0.048819 -0.076537 -0.184776
v 1.001201 0.000000 -0.200000
v 0.048819 -0.000000 -0.200000
v 1.001201 0.076537 -0.184776
v 0.048819 0.076537 -0.184776
v 1.001201 0.141421 -0.141421
v 0.048819 0.141421 -0.141421
v 1.001201 0.184776 -0.076537
v 0.048819 0.184776 -0.076537
v 0.038653 0.212443 0.087997
v 0.038653 0.229947 0.000000
v 0.038653 0.162597 0.162597
v 0.038653 0.087997 0.212443
v 0.038653 -0.000000 0.229947
v 0.038653 -0.087997 0.212443
v 0.038653 -0.162597 0.162597
v 0.038653 -0.212443 0.087997
v 0.038653 -0.229947 0.000000
v 0.038653 -0.212443 -0.087997
v 0.038653 -0.162597 -0.162597
v 0.038653 -0.087997 -0.212443
v 0.038653 -0.000000 -0.229947
v 0.038653 0.087997 -0.212443
v 0.038653 0.162597 -0.162597
v 0.038653 0.212443 -0.087997
v 0.011367 0.212443 0.087997
v 0.011367 0.229947 0.000000
v 0.011367 0.162597 0.162597
v 0.011367 0.087997 0.212443
v 0.011367 -0.000000 0.229947
v 0.011367 -0.087997 0.212443
v 0.011367 -0.162597 0.162597
v 0.011367 -0.212443 0.087997
v 0.011367 -0.229947 0.000000
v 0.011367 -0.212443 -0.087997
v 0.011367 -0.162597 -0.162597
v 0.011367 -0.087997 -0.212443
v 0.011367 -0.000000 -0.229947
v 0.011367 0.087997 -0.212443
v 0.011367 0.162597 -0.162597
v 0.011367 0.212443 -0.087997
vn 0.0000 1.0000 0.0000
vn 0.0000 0.9239 0.3827
vn 0.0000 0.7071 0.7071
vn 0.0000 0.3827 0.9239
vn 0.0000 0.0000 1.0000
vn 0.0000 -0.3827 0.9239
vn 0.0000 -0.7071 0.7071
vn 0.0000 -0.9239 0.3827
vn 0.0000 -1.0000 0.0000
vn 0.0000 -0.9239 -0.3827
vn 0.0000 -0.7071 -0.7071
vn 0.0000 -0.3827 -0.9239
vn 0.0000 0.0000 -1.0000
vn 0.0000 0.3827 -0.9239
vn 0.0000 0.7071 -0.7071
vn -0.9832 0.1826 0.0000
vn -0.9832 0.1687 0.0699
vn -0.9469 0.2970 0.1230
vn -0.9469 0.3215 0.0000
vn 0.0000 0.9239 -0.3827
vn 1.0000 0.0000 0.0000
vn -0.9832 0.1687 -0.0699
vn -0.9832 0.1291 -0.1291
vn -0.9832 0.0699 -0.1687
vn -0.9832 0.0000 -0.1826
vn -0.9832 -0.0699 -0.1687
vn -0.9832 -0.1291 -0.1291
vn -0.9832 -0.1687 -0.0699
vn -0.9832 -0.1826 0.0000
vn -0.9832 -0.1687 0.0699
vn -0.9832 -0.1291 0.1291
vn -0.9832 -0.0699 0.1687
vn -0.9832 0.0000 0.1826
vn -0.9832 0.0699 0.1687
vn -0.9832 0.1291 0.1291
vn -0.9469 0.2273 -0.2273
vn -0.9469 0.1230 -0.2970
vn 0.9469 0.3215 0.0000
vn 0.9469 0.2970 -0.1230
vn 0.9469 -0.2970 0.1230
vn 0.9469 -0.2273 0.2273
vn -0.9469 0.0000 -0.3215
vn -0.9469 -0.1230 -0.2970
vn 0.9469 -0.1230 -0.2970
vn 0.9469 -0.2273 -0.2273
vn 0.9469 0.2273 0.2273
vn 0.9469 0.2970 0.1230
vn -0.9469 -0.2273 -0.2273
vn 0.9469 0.2273 -0.2273
vn 0.9469 -0.1230 0.2970
vn -0.9469 -0.2970 -0.1230
vn -0.9469 -0.3215 0.0000
vn 0.9469 -0.2970 -0.1230
vn -0.9469 -0.2970 0.1230
vn 0.9469 0.1230 0.2970
vn 0.9469 0.0000 -0.3215
vn -0.9469 0.2970 -0.1230
vn -0.9469 0.2273 0.2273
vn 0.9469 -0.3215 0.0000
vn -0.9469 0.1230 0.2970
vn -0.9469 0.0000 0.3215
vn 0.9469 0.0000 0.3215
vn 0.9469 0.1230 -0.2970
vn -0.9469 -0.1230 0.2970
vn -0.9469 -0.2273 0.2273
usemtl Dark
s 1
f 81//1 84//1 83//2 82//2
f 82//2 83//2 86//3 85//3
f 85//3 86//3 88//4 87//4
f 87//4 88//4 90//5 89//5
f 89//5 90//5 92//6 91//6
f 91//6 92//6 94//7 93//7
f 93//7 94//7 96//8 95//8
f 95//8 96//8 98//9 97//9
f 97//9 98//9 100//10 99//10
f 99//10 100//10 102//11 101//11
f 101//11 102//11 104//12 103//12
f 103//12 104//12 106//13 105//13
f 105//13 106//13 108//14 107//14
f 107//14 108//14 110//15 109//15
f 34//16 33//17 129//18 130//19
f 109//15 110//15 112//20 111//20
f 111//20 112//20 84//1 81//1
f 1//21 3//21 5//21 7//21 9//21 11//21 13//21 15//21 17//21 19//21 21//21 23//21 25//21 27//21 29//21 31//21
f 33//17 34//16 48//22 47//23 46//24 45//25 44//26 43//27 42//28 41//29 40//30 39//31 38//32 37//33 36//34 35//35
f 46//24 47//23 143//36 142//37
f 2//38 32//39 128//39 114//38
f 16//40 14//41 119//41 120//40
f 45//25 46//24 142//37 141//42
f 44//26 45//25 141//42 140//43
f 24//44 22//45 123//45 124//44
f 6//46 4//47 113//47 115//46
f 43//27 44//26 140//43 139//48
f 32//39 30//49 127//49 128//39
f 14//41 12//50 118//50 119//41
f 42//28 43//27 139//48 138//51
f 41//29 42//28 138//51 137//52
f 22//45 20//53 122//53 123//45
f 40//30 41//29 137//52 136//54
f 4//47 2//38 114//38 113//47
f 117//5 116//4 132//4 133//5
f 58//10 121//9 73//9 74//10
f 63//15 126//14 78//14 79//15
f 51//3 49//2 65//2 131//3
f 56//8 55//7 135//7 72//8
f 125//13 60//12 76//12 77//13
f 54//6 117//5 133//5 134//6
f 59//11 58//10 74//10 75//11
f 64//20 63//15 79//15 144//20
f 116//4 51//3 131//3 132//4
f 121//9 56//8 72//8 73//9
f 49//2 50//1 66//1 65//2
f 126//14 125//13 77//13 78//14
f 55//7 54//6 134//6 135//7
f 60//12 59//11 75//11 76//12
f 50//1 64//20 144//20 66//1
f 8//55 6//46 115//46 52//55
f 26//56 24//44 124//44 61//56
f 47//23 48//22 80//57 143//36
f 33//17 35//35 67//58 129//18
f 48//22 34//16 130//19 80//57
f 18//59 16//40 120//40 57//59
f 35//35 36//34 68//60 67//58
f 36//34 37//33 69//61 68//60
f 10//62 8//55 52//55 53//62
f 28//63 26//56 61//56 62//63
f 37//33 38//32 70//64 69//61
f 20//53 18//59 57//59 122//53
f 38//32 39//31 71//65 70//64
f 39//31 40//30 136//54 71//65
f 12//50 10//62 53//62 118//50
f 30//49 28//63 62//63 127//49
