# Blender v2.78 (sub 0) OBJ File: 'art.blend'
# www.blender.org
mtllib pipe_90turn.mtl
o Cylinder.015_Cylinder.019
v 0.000000 0.200000 -0.311038
v 0.000000 0.200000 -0.047838
v 0.076537 0.184776 -0.311038
v 0.076537 0.184776 -0.047838
v 0.141421 0.141421 -0.311038
v 0.141421 0.141421 -0.047838
v 0.184776 0.076537 -0.311038
v 0.184776 0.076537 -0.047838
v 0.200000 0.000000 -0.311038
v 0.200000 -0.000000 -0.047838
v 0.184776 -0.076537 -0.311038
v 0.184776 -0.076537 -0.047838
v 0.141421 -0.141421 -0.311038
v 0.141421 -0.141421 -0.047838
v 0.076537 -0.184776 -0.311038
v 0.076537 -0.184776 -0.047838
v 0.000000 -0.200000 -0.311038
v 0.000000 -0.200000 -0.047838
v -0.076537 -0.184776 -0.311038
v -0.076537 -0.184776 -0.047838
v -0.141421 -0.141421 -0.311038
v -0.141421 -0.141421 -0.047838
v -0.184776 -0.076537 -0.311038
v -0.184776 -0.076537 -0.047838
v -0.200000 0.000000 -0.311038
v -0.200000 -0.000000 -0.047838
v -0.184776 0.076537 -0.311038
v -0.184776 0.076537 -0.047838
v -0.141421 0.141421 -0.311038
v -0.141421 0.141421 -0.047838
v -0.076537 0.184776 -0.311038
v -0.076537 0.184776 -0.047838
v 0.076537 0.184776 -0.000219
v 0.000000 0.200000 -0.000219
v 0.141421 0.141421 -0.000219
v 0.184776 0.076537 -0.000219
v 0.200000 -0.000000 -0.000219
v 0.184776 -0.076537 -0.000219
v 0.141421 -0.141421 -0.000219
v 0.076537 -0.184776 -0.000219
v 0.000000 -0.200000 -0.000219
v -0.076537 -0.184776 -0.000219
v -0.141421 -0.141421 -0.000219
v -0.184776 -0.076537 -0.000219
v -0.200000 -0.000000 -0.000219
v -0.184776 0.076537 -0.000219
v -0.141421 0.141421 -0.000219
v -0.076537 0.184776 -0.000219
v 0.087997 0.212443 -0.037671
v 0.000000 0.229947 -0.037671
v 0.162597 0.162597 -0.037671
v 0.212443 0.087997 -0.037671
v 0.229947 -0.000000 -0.037671
v 0.212443 -0.087997 -0.037671
v 0.162597 -0.162597 -0.037671
v 0.087997 -0.212443 -0.037671
v 0.000000 -0.229947 -0.037671
v -0.087997 -0.212443 -0.037671
v -0.162597 -0.162597 -0.037671
v -0.212443 -0.087997 -0.037671
v -0.229947 -0.000000 -0.037671
v -0.212443 0.087997 -0.037671
v -0.162597 0.162597 -0.037671
v -0.087997 0.212443 -0.037671
v 0.087997 0.212443 -0.010386
v 0.000000 0.229947 -0.010386
v 0.162597 0.162597 -0.010386
v 0.212443 0.087997 -0.010386
v 0.229947 -0.000000 -0.010386
v 0.212443 -0.087997 -0.010386
v 0.162597 -0.162597 -0.010386
v 0.087997 -0.212443 -0.010386
v 0.000000 -0.229947 -0.010386
v -0.087997 -0.212443 -0.010386
v -0.162597 -0.162597 -0.010386
v -0.212443 -0.087997 -0.010386
v -0.229947 -0.000000 -0.010386
v -0.212443 0.087997 -0.010386
v -0.162597 0.162597 -0.010386
v -0.087997 0.212443 -0.010386
v 0.016001 0.200000 -0.392009
v 0.086712 0.184776 -0.362720
v 0.146657 0.141421 -0.337889
v 0.186711 0.076537 -0.321298
v 0.200777 -0.000000 -0.315472
v 0.186711 -0.076537 -0.321298
v 0.146657 -0.141421 -0.337889
v 0.086712 -0.184776 -0.362720
v 0.016001 -0.200000 -0.392009
v -0.054710 -0.184776 -0.421298
v -0.114655 -0.141421 -0.446128
v -0.154710 -0.076537 -0.462720
v -0.168775 0.000000 -0.468546
v -0.154710 0.076537 -0.462720
v -0.114655 0.141421 -0.446128
v -0.054710 0.184776 -0.421298
v 0.061770 0.200000 -0.460693
v 0.115890 0.184776 -0.406574
v 0.161770 0.141421 -0.360693
v 0.192426 0.076537 -0.330037
v 0.203191 -0.000000 -0.319272
v 0.192426 -0.076537 -0.330037
v 0.161770 -0.141421 -0.360693
v 0.115890 -0.184776 -0.406574
v 0.061770 -0.200000 -0.460693
v 0.007650 -0.184776 -0.514813
v -0.038230 -0.141421 -0.560693
v -0.068886 -0.076537 -0.591350
v -0.079651 0.000000 -0.602115
v -0.068886 0.076537 -0.591350
v -0.038230 0.141421 -0.560693
v 0.007650 0.184776 -0.514813
v 0.130340 0.200000 -0.506634
v 0.159629 0.184776 -0.435924
v 0.184459 0.141421 -0.375978
v 0.201050 0.076537 -0.335924
v 0.206876 -0.000000 -0.321858
v 0.201050 -0.076537 -0.335924
v 0.184459 -0.141421 -0.375978
v 0.159629 -0.184776 -0.435924
v 0.130340 -0.200000 -0.506634
v 0.101050 -0.184776 -0.577345
v 0.076220 -0.141421 -0.637291
v 0.059629 -0.076537 -0.677345
v 0.053803 0.000000 -0.691410
v 0.059629 0.076537 -0.677345
v 0.076220 0.141421 -0.637291
v 0.101050 0.184776 -0.577345
v 0.211271 0.200000 -0.522838
v 0.211271 0.184776 -0.446301
v 0.211270 0.141421 -0.381416
v 0.211270 0.076537 -0.338062
v 0.211270 -0.000000 -0.322838
v 0.211270 -0.076537 -0.338062
v 0.211270 -0.141421 -0.381416
v 0.211271 -0.184776 -0.446301
v 0.211271 -0.200000 -0.522838
v 0.211271 -0.184776 -0.599374
v 0.211271 -0.141421 -0.664259
v 0.211271 -0.076537 -0.707614
v 0.211271 0.000000 -0.722838
v 0.211271 0.076537 -0.707614
v 0.211271 0.141421 -0.664259
v 0.211271 0.184776 -0.599374
v 0.478618 0.200000 -0.522838
v 0.478618 0.184776 -0.446301
v 0.478618 0.141421 -0.381416
v 0.478618 0.076537 -0.338062
v 0.478618 -0.000000 -0.322838
v 0.478618 -0.076537 -0.338062
v 0.478618 -0.141421 -0.381416
v 0.478618 -0.184776 -0.446301
v 0.478619 -0.200000 -0.522838
v 0.478619 -0.184776 -0.599374
v 0.478619 -0.141421 -0.664259
v 0.478619 -0.076537 -0.707614
v 0.478619 0.000000 -0.722838
v 0.478619 0.076537 -0.707614
v 0.478619 0.141421 -0.664259
v 0.478618 0.184776 -0.599374
v 0.076537 0.184776 -0.047838
v 0.000000 0.200000 -0.047838
v 0.141421 0.141421 -0.047838
v 0.184776 0.076537 -0.047838
v 0.200000 -0.000000 -0.047838
v 0.184776 -0.076537 -0.047838
v 0.141421 -0.141421 -0.047838
v 0.076537 -0.184776 -0.047838
v 0.000000 -0.200000 -0.047838
v -0.076537 -0.184776 -0.047838
v -0.141421 -0.141421 -0.047838
v -0.184776 -0.076537 -0.047838
v -0.200000 -0.000000 -0.047838
v -0.184776 0.076537 -0.047838
v -0.141421 0.141421 -0.047838
v -0.076537 0.184776 -0.047838
v 0.087997 0.212443 -0.037671
v 0.000000 0.229947 -0.037671
v 0.162597 0.162597 -0.037671
v 0.212443 0.087997 -0.037671
v 0.229947 -0.000000 -0.037671
v 0.212443 -0.087997 -0.037671
v 0.162597 -0.162597 -0.037671
v 0.087997 -0.212443 -0.037671
v 0.000000 -0.229947 -0.037671
v -0.087997 -0.212443 -0.037671
v -0.162597 -0.162597 -0.037671
v -0.212443 -0.087997 -0.037671
v -0.229947 -0.000000 -0.037671
v -0.212443 0.087997 -0.037671
v -0.162597 0.162597 -0.037671
v -0.087997 0.212443 -0.037671
v 0.087997 0.212443 -0.010386
v 0.000000 0.229947 -0.010386
v 0.162597 0.162597 -0.010386
v 0.212443 0.087997 -0.010386
v 0.229947 -0.000000 -0.010386
v 0.212443 -0.087997 -0.010386
v 0.162597 -0.162597 -0.010386
v 0.087997 -0.212443 -0.010386
v 0.000000 -0.229947 -0.010386
v -0.087997 -0.212443 -0.010386
v -0.162597 -0.162597 -0.010386
v -0.212443 -0.087997 -0.010386
v -0.229947 -0.000000 -0.010386
v -0.212443 0.087997 -0.010386
v -0.162597 0.162597 -0.010386
v -0.087997 0.212443 -0.010386
v 0.478618 0.200000 -0.522838
v 0.478618 0.184776 -0.446301
v 0.478618 0.141421 -0.381416
v 0.478618 0.076537 -0.338062
v 0.478618 -0.000000 -0.322838
v 0.478618 -0.076537 -0.338062
v 0.478618 -0.141421 -0.381416
v 0.478618 -0.184776 -0.446301
v 0.478619 -0.200000 -0.522838
v 0.478619 -0.184776 -0.599374
v 0.478619 -0.141421 -0.664259
v 0.478619 -0.076537 -0.707614
v 0.478619 0.000000 -0.722838
v 0.478619 0.076537 -0.707614
v 0.478619 0.141421 -0.664259
v 0.478618 0.184776 -0.599374
vn -0.0121 0.9999 -0.0024
vn 0.0000 1.0000 0.0000
vn 0.3827 0.9239 0.0000
vn 0.3720 0.9275 0.0356
vn 0.7071 0.7071 0.0000
vn 0.6995 0.7114 0.0677
vn 0.9239 0.3827 0.0000
vn 0.9188 0.3851 0.0868
vn 1.0000 0.0000 0.0000
vn 0.9957 0.0000 0.0921
vn 0.9239 -0.3827 0.0000
vn 0.9188 -0.3851 0.0868
vn 0.7071 -0.7071 0.0000
vn 0.6995 -0.7114 0.0677
vn 0.3827 -0.9239 0.0000
vn 0.3720 -0.9275 0.0356
vn 0.0000 -1.0000 0.0000
vn -0.0121 -0.9999 -0.0024
vn -0.3827 -0.9239 0.0000
vn -0.3925 -0.9189 -0.0396
vn -0.7071 -0.7071 0.0000
vn -0.7112 -0.6995 -0.0701
vn -0.9239 -0.3827 0.0000
vn -0.9218 -0.3771 -0.0898
vn -1.0000 0.0000 0.0000
vn -0.9953 0.0000 -0.0965
vn -0.9239 0.3827 0.0000
vn -0.9218 0.3771 -0.0898
vn -0.7071 0.7071 0.0000
vn -0.7112 0.6995 -0.0701
vn 0.0000 0.1826 0.9832
vn 0.0699 0.1687 0.9832
vn 0.1230 0.2970 0.9469
vn 0.0000 0.3215 0.9469
vn -0.3827 0.9239 0.0000
vn -0.3925 0.9189 -0.0396
vn 0.6428 -0.7194 0.2631
vn 0.8536 -0.3915 0.3436
vn -0.0699 0.1687 0.9832
vn -0.1291 0.1291 0.9832
vn -0.1687 0.0699 0.9832
vn -0.1826 0.0000 0.9832
vn -0.1687 -0.0699 0.9832
vn -0.1291 -0.1291 0.9832
vn -0.0699 -0.1687 0.9832
vn 0.0000 -0.1826 0.9832
vn 0.0699 -0.1687 0.9832
vn 0.1291 -0.1291 0.9832
vn 0.1687 -0.0699 0.9832
vn 0.1826 0.0000 0.9832
vn 0.1687 0.0699 0.9832
vn 0.1291 0.1291 0.9832
vn -0.2273 0.2273 0.9469
vn -0.2970 0.1230 0.9469
vn 0.0000 0.3215 -0.9469
vn -0.1230 0.2970 -0.9469
vn 0.1230 -0.2970 -0.9469
vn 0.2273 -0.2273 -0.9469
vn -0.3215 0.0000 0.9469
vn -0.2970 -0.1230 0.9469
vn -0.2970 -0.1230 -0.9469
vn -0.2273 -0.2273 -0.9469
vn 0.2273 0.2273 -0.9469
vn 0.1230 0.2970 -0.9469
vn -0.2273 -0.2273 0.9469
vn -0.2273 0.2273 -0.9469
vn 0.2970 -0.1230 -0.9469
vn -0.1230 -0.2970 0.9469
vn 0.0000 -0.3215 0.9469
vn -0.1230 -0.2970 -0.9469
vn 0.1230 -0.2970 0.9469
vn 0.2970 0.1230 -0.9469
vn -0.3215 0.0000 -0.9469
vn -0.1230 0.2970 0.9469
vn 0.2273 0.2273 0.9469
vn 0.0000 -0.3215 -0.9469
vn 0.2970 0.1230 0.9469
vn 0.3215 0.0000 0.9469
vn 0.3215 0.0000 -0.9469
vn -0.2970 0.1230 -0.9469
vn 0.2970 -0.1230 0.9469
vn 0.2273 -0.2273 0.9469
vn 0.4931 -0.7194 0.4890
vn 0.6571 -0.3915 0.6441
vn -0.8569 -0.3743 -0.3543
vn -0.6643 -0.6952 -0.2746
vn -0.0225 0.9997 -0.0093
vn -0.3725 0.9152 -0.1539
vn 0.9293 0.0000 0.3693
vn 0.8536 0.3915 0.3436
vn -0.3725 -0.9152 -0.1539
vn -0.0225 -0.9997 -0.0093
vn -0.6643 0.6952 -0.2746
vn -0.8569 0.3743 -0.3543
vn 0.6428 0.7194 0.2631
vn 0.3343 0.9323 0.1376
vn 0.3343 -0.9323 0.1376
vn -0.9241 0.0000 -0.3821
vn -0.5087 -0.6952 -0.5079
vn -0.6561 -0.3743 -0.6552
vn -0.3554 -0.3743 -0.8564
vn -0.2756 -0.6952 -0.6639
vn -0.5087 0.6952 -0.5079
vn -0.6561 0.3743 -0.6552
vn 0.2562 -0.9323 0.2550
vn -0.2853 0.9152 -0.2847
vn -0.0172 -0.9997 -0.0172
vn 0.2562 0.9323 0.2550
vn -0.0172 0.9997 -0.0172
vn -0.2853 -0.9152 -0.2847
vn 0.4931 0.7194 0.4890
vn 0.6571 0.3915 0.6441
vn 0.7172 0.0000 0.6969
vn -0.7075 0.0000 -0.7066
vn -0.1546 0.9152 -0.3723
vn -0.0093 0.9997 -0.0225
vn -0.0024 0.9999 -0.0122
vn -0.0400 0.9189 -0.3925
vn 0.3959 0.0000 0.9183
vn 0.3606 0.3915 0.8466
vn -0.3833 0.0000 -0.9236
vn 0.3606 -0.3915 0.8466
vn -0.3554 0.3743 -0.8564
vn 0.2685 -0.7194 0.6405
vn -0.2756 0.6952 -0.6639
vn 0.1390 -0.9323 0.3337
vn -0.0093 -0.9997 -0.0225
vn 0.1390 0.9323 0.3337
vn -0.1546 -0.9152 -0.3723
vn 0.2685 0.7194 0.6405
vn -0.0904 0.3771 -0.9218
vn -0.0706 0.6995 -0.7111
vn 0.0000 0.7071 -0.7071
vn 0.0000 0.3827 -0.9239
vn -0.0400 -0.9189 -0.3925
vn -0.0024 -0.9999 -0.0122
vn 0.0706 0.7118 0.6988
vn 0.0364 0.9276 0.3717
vn -0.0706 -0.6995 -0.7111
vn 0.0960 0.3858 0.9175
vn -0.0904 -0.3771 -0.9218
vn 0.1063 0.0000 0.9943
vn -0.0971 0.0000 -0.9952
vn 0.0960 -0.3858 0.9175
vn 0.0706 -0.7118 0.6988
vn 0.0364 -0.9276 0.3717
vn 0.0000 -0.9239 0.3827
vn 0.0000 -0.7071 0.7071
vn 0.0000 0.9239 -0.3827
vn 0.0000 0.9239 0.3827
vn 0.0000 -0.9239 -0.3827
vn 0.0000 0.7071 0.7071
vn 0.0000 -0.7071 -0.7071
vn 0.0000 0.3827 0.9239
vn 0.0000 -0.3827 -0.9239
vn 0.0000 0.0000 1.0000
vn 0.0000 0.0000 -1.0000
vn 0.0000 -0.3827 0.9239
usemtl Dark
s 1
f 1//1 162//2 161//3 3//4
f 3//4 161//3 163//5 5//6
f 5//6 163//5 164//7 7//8
f 7//8 164//7 165//9 9//10
f 9//10 165//9 166//11 11//12
f 11//12 166//11 167//13 13//14
f 13//14 167//13 168//15 15//16
f 15//16 168//15 169//17 17//18
f 17//18 169//17 170//19 19//20
f 19//20 170//19 171//21 21//22
f 21//22 171//21 172//23 23//24
f 23//24 172//23 173//25 25//26
f 25//26 173//25 174//27 27//28
f 27//28 174//27 175//29 29//30
f 34//31 33//32 193//33 194//34
f 29//30 175//29 176//35 31//36
f 31//36 176//35 162//2 1//1
f 11//12 13//14 87//37 86//38
f 33//32 34//31 48//39 47//40 46//41 45//42 44//43 43//44 42//45 41//46 40//47 39//48 38//49 37//50 36//51 35//52
f 46//41 47//40 207//53 206//54
f 2//55 32//56 192//56 178//55
f 16//57 14//58 183//58 184//57
f 45//42 46//41 206//54 205//59
f 44//43 45//42 205//59 204//60
f 24//61 22//62 187//62 188//61
f 6//63 4//64 177//64 179//63
f 43//44 44//43 204//60 203//65
f 32//56 30//66 191//66 192//56
f 14//58 12//67 182//67 183//58
f 42//45 43//44 203//65 202//68
f 41//46 42//45 202//68 201//69
f 22//62 20//70 186//70 187//62
f 40//47 41//46 201//69 200//71
f 4//64 2//55 178//55 177//64
f 181//9 180//7 196//7 197//9
f 58//19 185//17 73//17 74//19
f 63//29 190//27 78//27 79//29
f 51//5 49//3 65//3 195//5
f 56//15 55//13 199//13 72//15
f 189//25 60//23 76//23 77//25
f 54//11 181//9 197//9 198//11
f 59//21 58//19 74//19 75//21
f 64//35 63//29 79//29 208//35
f 180//7 51//5 195//5 196//7
f 185//17 56//15 72//15 73//17
f 49//3 50//2 66//2 65//3
f 190//27 189//25 77//25 78//27
f 55//13 54//11 198//11 199//13
f 60//23 59//21 75//21 76//23
f 50//2 64//35 208//35 66//2
f 8//72 6//63 179//63 52//72
f 26//73 24//61 188//61 61//73
f 47//40 48//39 80//74 207//53
f 33//32 35//52 67//75 193//33
f 48//39 34//31 194//34 80//74
f 18//76 16//57 184//57 57//76
f 35//52 36//51 68//77 67//75
f 36//51 37//50 69//78 68//77
f 10//79 8//72 52//72 53//79
f 28//80 26//73 61//73 62//80
f 37//50 38//49 70//81 69//78
f 20//70 18//76 57//76 186//70
f 38//49 39//48 71//82 70//81
f 39//48 40//47 200//71 71//82
f 12//67 10//79 53//79 182//67
f 30//66 28//80 62//80 191//66
f 86//38 87//37 103//83 102//84
f 21//22 23//24 92//85 91//86
f 31//36 1//1 81//87 96//88
f 7//8 9//10 85//89 84//90
f 17//18 19//20 90//91 89//92
f 27//28 29//30 95//93 94//94
f 3//4 5//6 83//95 82//96
f 13//14 15//16 88//97 87//37
f 23//24 25//26 93//98 92//85
f 9//10 11//12 86//38 85//89
f 19//20 21//22 91//86 90//91
f 29//30 31//36 96//88 95//93
f 5//6 7//8 84//90 83//95
f 15//16 17//18 89//92 88//97
f 1//1 3//4 82//96 81//87
f 25//26 27//28 94//94 93//98
f 107//99 108//100 124//101 123//102
f 94//94 95//93 111//103 110//104
f 87//37 88//97 104//105 103//83
f 95//93 96//88 112//106 111//103
f 88//97 89//92 105//107 104//105
f 81//87 82//96 98//108 97//109
f 96//88 81//87 97//109 112//106
f 89//92 90//91 106//110 105//107
f 82//96 83//95 99//111 98//108
f 90//91 91//86 107//99 106//110
f 83//95 84//90 100//112 99//111
f 91//86 92//85 108//100 107//99
f 84//90 85//89 101//113 100//112
f 92//85 93//98 109//114 108//100
f 85//89 86//38 102//84 101//113
f 93//98 94//94 110//104 109//114
f 128//115 113//116 129//117 144//118
f 100//112 101//113 117//119 116//120
f 108//100 109//114 125//121 124//101
f 101//113 102//84 118//122 117//119
f 109//114 110//104 126//123 125//121
f 102//84 103//83 119//124 118//122
f 110//104 111//103 127//125 126//123
f 103//83 104//105 120//126 119//124
f 111//103 112//106 128//115 127//125
f 104//105 105//107 121//127 120//126
f 97//109 98//108 114//128 113//116
f 112//106 97//109 113//116 128//115
f 105//107 106//110 122//129 121//127
f 98//108 99//111 115//130 114//128
f 106//110 107//99 123//102 122//129
f 99//111 100//112 116//120 115//130
f 142//131 143//132 223//133 158//134
f 121//127 122//129 138//135 137//136
f 114//128 115//130 131//137 130//138
f 122//129 123//102 139//139 138//135
f 115//130 116//120 132//140 131//137
f 123//102 124//101 140//141 139//139
f 116//120 117//119 133//142 132//140
f 124//101 125//121 141//143 140//141
f 117//119 118//122 134//144 133//142
f 125//121 126//123 142//131 141//143
f 118//122 119//124 135//145 134//144
f 126//123 127//125 143//132 142//131
f 119//124 120//126 136//146 135//145
f 127//125 128//115 144//118 143//132
f 120//126 121//127 137//136 136//146
f 113//116 114//128 130//138 129//117
f 209//9 210//9 211//9 212//9 213//9 214//9 215//9 216//9 217//9 218//9 219//9 220//9 221//9 222//9 159//9 224//9
f 135//145 136//146 152//147 151//148
f 143//132 144//118 160//149 223//133
f 136//146 137//136 153//17 152//147
f 129//117 130//138 146//150 145//2
f 144//118 129//117 145//2 160//149
f 137//136 138//135 154//151 153//17
f 130//138 131//137 147//152 146//150
f 138//135 139//139 155//153 154//151
f 131//137 132//140 148//154 147//152
f 139//139 140//141 156//155 155//153
f 132//140 133//142 149//156 148//154
f 140//141 141//143 157//157 156//155
f 133//142 134//144 150//158 149//156
f 141//143 142//131 158//134 157//157
f 134//144 135//145 151//148 150//158
