# Blender v2.78 (sub 0) OBJ File: 'art.blend'
# www.blender.org
mtllib pipe_ac_system.mtl
o Cube.022_Cube.033
v -0.830000 -0.300000 0.300000
v -0.830000 0.300000 0.300000
v -0.830000 -0.300000 -0.300000
v -0.830000 0.300000 -0.300000
v -0.230000 -0.300000 0.300000
v -0.230000 0.300000 0.300000
v -0.230000 -0.300000 -0.300000
v -0.230000 0.300000 -0.300000
v -0.200000 0.300000 -0.300000
v -0.200000 -0.300000 -0.300000
v -0.200000 -0.300000 0.300000
v -0.200000 0.300000 0.300000
v 0.300000 0.300000 -0.300000
v 0.300000 -0.300000 -0.300000
v 0.300000 -0.300000 0.300000
v 0.300000 0.300000 0.300000
v 0.330000 0.300000 -0.300000
v 0.330000 -0.300000 -0.300000
v 0.330000 -0.300000 0.300000
v 0.330000 0.300000 0.300000
v 0.830000 0.300000 -0.300000
v 0.830000 -0.300000 -0.300000
v 0.830000 -0.300000 0.300000
v 0.830000 0.300000 0.300000
v -0.229250 0.332500 -0.332500
v -0.229250 -0.332500 -0.332500
v -0.229250 -0.332500 0.332500
v -0.229250 0.332500 0.332500
v -0.200750 0.332500 -0.332500
v -0.200750 -0.332500 -0.332500
v -0.200750 -0.332500 0.332500
v -0.200750 0.332500 0.332500
v 0.300750 0.332500 -0.332500
v 0.300750 -0.332500 -0.332500
v 0.300750 -0.332500 0.332500
v 0.300750 0.332500 0.332500
v 0.329250 0.332500 -0.332500
v 0.329250 -0.332500 -0.332500
v 0.329250 -0.332500 0.332500
v 0.329250 0.332500 0.332500
vn -1.0000 0.0000 0.0000
vn 0.0000 0.0000 -1.0000
vn 0.9997 0.0000 -0.0231
vn 0.0000 0.0000 1.0000
vn 0.0000 -1.0000 0.0000
vn 0.0000 1.0000 0.0000
vn -0.9997 0.0000 0.0231
vn 0.9997 0.0000 0.0231
vn -0.9997 0.0231 0.0000
vn 0.9997 0.0231 0.0000
vn 1.0000 0.0000 0.0000
vn -0.9997 0.0000 -0.0231
vn 0.9997 -0.0231 0.0000
vn -0.9997 -0.0231 0.0000
usemtl Dark
s off
f 1//1 2//1 4//1 3//1
f 3//2 4//2 8//2 7//2
f 9//3 10//3 30//3 29//3
f 5//4 6//4 2//4 1//4
f 3//5 7//5 5//5 1//5
f 8//6 4//6 2//6 6//6
f 10//2 9//2 13//2 14//2
f 6//7 5//7 27//7 28//7
f 19//8 20//8 40//8 39//8
f 16//7 15//7 35//7 36//7
f 8//9 6//9 28//9 25//9
f 12//4 11//4 15//4 16//4
f 11//5 10//5 14//5 15//5
f 9//6 12//6 16//6 13//6
f 17//6 20//6 24//6 21//6
f 20//10 17//10 37//10 40//10
f 11//8 12//8 32//8 31//8
f 13//9 16//9 36//9 33//9
f 22//11 21//11 24//11 23//11
f 18//2 17//2 21//2 22//2
f 20//4 19//4 23//4 24//4
f 19//5 18//5 22//5 23//5
f 25//6 28//6 32//6 29//6
f 26//2 25//2 29//2 30//2
f 28//4 27//4 31//4 32//4
f 27//5 26//5 30//5 31//5
f 36//4 35//4 39//4 40//4
f 35//5 34//5 38//5 39//5
f 33//6 36//6 40//6 37//6
f 34//2 33//2 37//2 38//2
f 14//12 13//12 33//12 34//12
f 10//13 11//13 31//13 30//13
f 17//3 18//3 38//3 37//3
f 7//12 8//12 25//12 26//12
f 15//14 14//14 34//14 35//14
f 12//10 9//10 29//10 32//10
f 18//13 19//13 39//13 38//13
f 5//14 7//14 26//14 27//14
