# Blender v2.78 (sub 0) OBJ File: 'art.blend'
# www.blender.org
mtllib wallDevice.mtl
o Cube.025_Cube.036
v -0.300000 -0.300000 0.300000
v -0.300000 0.300000 0.300000
v -0.300000 -0.300000 -0.300000
v -0.300000 0.300000 -0.300000
v 0.300000 -0.300000 0.300000
v 0.300000 0.300000 0.300000
v 0.300000 -0.300000 -0.300000
v 0.300000 0.300000 -0.300000
v -0.300000 -0.120000 0.300000
v -0.300000 -0.120000 -0.300000
v 0.300000 -0.120000 -0.300000
v 0.300000 -0.120000 0.300000
v -0.300000 -0.300000 -0.150000
v -0.300000 0.300000 -0.150000
v 0.300000 -0.300000 -0.150000
v 0.300000 0.300000 -0.150000
v 0.300000 -0.120000 -0.150000
v -0.300000 -0.120000 -0.150000
v 0.300000 -0.120000 0.300000
v 0.398833 -0.300000 0.300000
v 0.300000 -0.120000 -0.150000
v 0.398833 -0.300000 -0.150000
v 0.300000 -0.147000 -0.277500
v 0.300000 -0.273000 -0.277500
v 0.300000 -0.273000 -0.172500
v 0.300000 -0.147000 -0.172500
v 0.251443 -0.147000 -0.277500
v 0.251443 -0.273000 -0.277500
v 0.251443 -0.273000 -0.172500
v 0.251443 -0.147000 -0.172500
v -0.300000 -0.300000 0.277500
v 0.300000 0.300000 0.277500
v 0.300000 -0.120000 0.277500
v -0.300000 0.300000 0.277500
v 0.300000 -0.300000 0.277500
v -0.300000 -0.120000 0.277500
v 0.300000 -0.120000 0.277500
v 0.398833 -0.300000 0.277500
v -0.300000 0.279000 0.300000
v -0.300000 0.279000 -0.300000
v 0.300000 0.279000 -0.300000
v 0.300000 0.279000 0.300000
v 0.300000 0.279000 -0.150000
v -0.300000 0.279000 -0.150000
v -0.300000 0.279000 0.277500
v 0.300000 0.279000 0.277500
v -0.300000 0.300000 -0.128625
v 0.300000 -0.300000 -0.128625
v -0.300000 -0.120000 -0.128625
v 0.398833 -0.300000 -0.128625
v -0.300000 -0.300000 -0.128625
v 0.300000 0.300000 -0.128625
v 0.300000 -0.120000 -0.128625
v 0.300000 -0.120000 -0.128625
v 0.300000 0.279000 -0.128625
v -0.300000 0.279000 -0.128625
v -0.300000 -0.100050 -0.300000
v 0.300000 -0.100050 -0.300000
v 0.300000 -0.100050 0.300000
v 0.300000 -0.100050 -0.150000
v -0.300000 -0.100050 -0.150000
v -0.300000 -0.100050 0.277500
v 0.300000 -0.100050 0.277500
v -0.300000 -0.100050 0.300000
v -0.300000 -0.100050 -0.128625
v 0.300000 -0.100050 -0.128625
v 0.275668 0.279000 -0.128625
v 0.275668 0.279000 0.277500
v 0.275668 -0.100050 0.277500
v 0.275668 -0.100050 -0.128625
v 0.300000 -0.120000 -0.057238
v 0.300000 -0.120000 -0.064637
v 0.300000 -0.120000 0.010450
v 0.300000 -0.120000 0.003050
v 0.300000 -0.120000 0.078137
v 0.300000 -0.120000 0.070738
v 0.300000 -0.120000 0.145825
v 0.300000 -0.120000 0.138425
v 0.300000 -0.120000 0.213512
v 0.300000 -0.120000 0.206113
v 0.318253 -0.153243 0.277500
v 0.314692 -0.146757 0.277500
v 0.334725 -0.183243 0.277500
v 0.331164 -0.176757 0.277500
v 0.351197 -0.213243 0.277500
v 0.347636 -0.206757 0.277500
v 0.367670 -0.243243 0.277500
v 0.364108 -0.236757 0.277500
v 0.384142 -0.273243 0.277500
v 0.380580 -0.266757 0.277500
v 0.398833 -0.300000 0.206113
v 0.398833 -0.300000 0.213512
v 0.398833 -0.300000 0.138425
v 0.398833 -0.300000 0.145825
v 0.398833 -0.300000 0.070738
v 0.398833 -0.300000 0.078137
v 0.398833 -0.300000 0.003050
v 0.398833 -0.300000 0.010450
v 0.398833 -0.300000 -0.064637
v 0.398833 -0.300000 -0.057238
v 0.314692 -0.146757 -0.128625
v 0.318253 -0.153243 -0.128625
v 0.331164 -0.176757 -0.128625
v 0.334725 -0.183243 -0.128625
v 0.347636 -0.206757 -0.128625
v 0.351197 -0.213243 -0.128625
v 0.364108 -0.236757 -0.128625
v 0.367670 -0.243243 -0.128625
v 0.380580 -0.266757 -0.128625
v 0.384142 -0.273243 -0.128625
v 0.380580 -0.266757 -0.064637
v 0.380580 -0.266757 -0.057238
v 0.384142 -0.273243 -0.057238
v 0.384142 -0.273243 -0.064637
v 0.380580 -0.266757 0.003050
v 0.380580 -0.266757 0.010450
v 0.384142 -0.273243 0.010450
v 0.384142 -0.273243 0.003050
v 0.380580 -0.266757 0.070738
v 0.380580 -0.266757 0.078137
v 0.384142 -0.273243 0.078137
v 0.384142 -0.273243 0.070738
v 0.380580 -0.266757 0.138425
v 0.380580 -0.266757 0.145825
v 0.384142 -0.273243 0.145825
v 0.384142 -0.273243 0.138425
v 0.380580 -0.266757 0.213512
v 0.384142 -0.273243 0.213512
v 0.384142 -0.273243 0.206113
v 0.380580 -0.266757 0.206113
v 0.364108 -0.236757 -0.064637
v 0.364108 -0.236757 -0.057238
v 0.367670 -0.243243 -0.057238
v 0.367670 -0.243243 -0.064637
v 0.364108 -0.236757 0.003050
v 0.364108 -0.236757 0.010450
v 0.367670 -0.243243 0.010450
v 0.367670 -0.243243 0.003050
v 0.364108 -0.236757 0.070738
v 0.364108 -0.236757 0.078137
v 0.367670 -0.243243 0.078137
v 0.367670 -0.243243 0.070738
v 0.364108 -0.236757 0.138425
v 0.364108 -0.236757 0.145825
v 0.367670 -0.243243 0.145825
v 0.367670 -0.243243 0.138425
v 0.364108 -0.236757 0.213512
v 0.367670 -0.243243 0.213512
v 0.367670 -0.243243 0.206113
v 0.364108 -0.236757 0.206113
v 0.347636 -0.206757 -0.064637
v 0.347636 -0.206757 -0.057238
v 0.351197 -0.213243 -0.057238
v 0.351197 -0.213243 -0.064637
v 0.347636 -0.206757 0.003050
v 0.347636 -0.206757 0.010450
v 0.351197 -0.213243 0.010450
v 0.351197 -0.213243 0.003050
v 0.347636 -0.206757 0.070738
v 0.347636 -0.206757 0.078137
v 0.351197 -0.213243 0.078137
v 0.351197 -0.213243 0.070738
v 0.347636 -0.206757 0.138425
v 0.347636 -0.206757 0.145825
v 0.351197 -0.213243 0.145825
v 0.351197 -0.213243 0.138425
v 0.347636 -0.206757 0.213512
v 0.351197 -0.213243 0.213512
v 0.351197 -0.213243 0.206113
v 0.347636 -0.206757 0.206113
v 0.331164 -0.176757 -0.064637
v 0.331164 -0.176757 -0.057238
v 0.334725 -0.183243 -0.057238
v 0.334725 -0.183243 -0.064637
v 0.331164 -0.176757 0.003050
v 0.331164 -0.176757 0.010450
v 0.334725 -0.183243 0.010450
v 0.334725 -0.183243 0.003050
v 0.331164 -0.176757 0.070738
v 0.331164 -0.176757 0.078137
v 0.334725 -0.183243 0.078137
v 0.334725 -0.183243 0.070738
v 0.331164 -0.176757 0.138425
v 0.331164 -0.176757 0.145825
v 0.334725 -0.183243 0.145825
v 0.334725 -0.183243 0.138425
v 0.331164 -0.176757 0.213512
v 0.334725 -0.183243 0.213512
v 0.334725 -0.183243 0.206113
v 0.331164 -0.176757 0.206113
v 0.314692 -0.146757 -0.064637
v 0.314692 -0.146757 -0.057238
v 0.318253 -0.153243 -0.057238
v 0.318253 -0.153243 -0.064637
v 0.314692 -0.146757 0.003050
v 0.314692 -0.146757 0.010450
v 0.318253 -0.153243 0.010450
v 0.318253 -0.153243 0.003050
v 0.314692 -0.146757 0.070738
v 0.314692 -0.146757 0.078137
v 0.318253 -0.153243 0.078137
v 0.318253 -0.153243 0.070738
v 0.314692 -0.146757 0.138425
v 0.314692 -0.146757 0.145825
v 0.318253 -0.153243 0.145825
v 0.318253 -0.153243 0.138425
v 0.314692 -0.146757 0.213512
v 0.318253 -0.153243 0.213512
v 0.318253 -0.153243 0.206113
v 0.314692 -0.146757 0.206113
v 0.385760 -0.260853 0.219911
v 0.385760 -0.260853 0.271101
v 0.392081 -0.272366 0.271101
v 0.392081 -0.272366 0.219911
v 0.385760 -0.260853 -0.122226
v 0.385760 -0.260853 -0.071036
v 0.392081 -0.272366 -0.071036
v 0.392081 -0.272366 -0.122226
v 0.385760 -0.260853 -0.051209
v 0.385760 -0.260853 -0.002979
v 0.392081 -0.272366 -0.002979
v 0.392081 -0.272366 -0.051209
v 0.385760 -0.260853 0.016479
v 0.385760 -0.260853 0.064709
v 0.392081 -0.272366 0.064709
v 0.392081 -0.272366 0.016479
v 0.385760 -0.260853 0.084166
v 0.385760 -0.260853 0.132396
v 0.392081 -0.272366 0.132396
v 0.392081 -0.272366 0.084166
v 0.385760 -0.260853 0.151854
v 0.385760 -0.260853 0.200084
v 0.392081 -0.272366 0.200084
v 0.392081 -0.272366 0.151854
v 0.369287 -0.230853 0.219911
v 0.369287 -0.230853 0.271101
v 0.375431 -0.242042 0.271101
v 0.375431 -0.242042 0.219911
v 0.369287 -0.230853 -0.122226
v 0.369287 -0.230853 -0.071036
v 0.375431 -0.242042 -0.071036
v 0.375431 -0.242042 -0.122226
v 0.369287 -0.230853 -0.051209
v 0.369287 -0.230853 -0.002979
v 0.375431 -0.242042 -0.002979
v 0.375431 -0.242042 -0.051209
v 0.369287 -0.230853 0.016479
v 0.369287 -0.230853 0.064709
v 0.375431 -0.242042 0.064709
v 0.375431 -0.242042 0.016479
v 0.369287 -0.230853 0.084166
v 0.369287 -0.230853 0.132396
v 0.375431 -0.242042 0.132396
v 0.375431 -0.242042 0.084166
v 0.369287 -0.230853 0.151854
v 0.369287 -0.230853 0.200084
v 0.375431 -0.242042 0.200084
v 0.375431 -0.242042 0.151854
v 0.352815 -0.200853 0.219911
v 0.352815 -0.200853 0.271101
v 0.358959 -0.212042 0.271101
v 0.358959 -0.212042 0.219911
v 0.352815 -0.200853 -0.122226
v 0.352815 -0.200853 -0.071036
v 0.358959 -0.212042 -0.071036
v 0.358959 -0.212042 -0.122226
v 0.352815 -0.200853 -0.051209
v 0.352815 -0.200853 -0.002979
v 0.358959 -0.212042 -0.002979
v 0.358959 -0.212042 -0.051209
v 0.352815 -0.200853 0.016479
v 0.352815 -0.200853 0.064709
v 0.358959 -0.212042 0.064709
v 0.358959 -0.212042 0.016479
v 0.352815 -0.200853 0.084166
v 0.352815 -0.200853 0.132396
v 0.358959 -0.212042 0.132396
v 0.358959 -0.212042 0.084166
v 0.352815 -0.200853 0.151854
v 0.352815 -0.200853 0.200084
v 0.358959 -0.212042 0.200084
v 0.358959 -0.212042 0.151854
v 0.336343 -0.170853 0.219911
v 0.336343 -0.170853 0.271101
v 0.342486 -0.182042 0.271101
v 0.342486 -0.182042 0.219911
v 0.336343 -0.170853 -0.122226
v 0.336343 -0.170853 -0.071036
v 0.342486 -0.182042 -0.071036
v 0.342486 -0.182042 -0.122226
v 0.336343 -0.170853 -0.051209
v 0.336343 -0.170853 -0.002979
v 0.342486 -0.182042 -0.002979
v 0.342486 -0.182042 -0.051209
v 0.336343 -0.170853 0.016479
v 0.336343 -0.170853 0.064709
v 0.342486 -0.182042 0.064709
v 0.342486 -0.182042 0.016479
v 0.336343 -0.170853 0.084166
v 0.336343 -0.170853 0.132396
v 0.342486 -0.182042 0.132396
v 0.342486 -0.182042 0.084166
v 0.336343 -0.170853 0.151854
v 0.336343 -0.170853 0.200084
v 0.342486 -0.182042 0.200084
v 0.342486 -0.182042 0.151854
v 0.319693 -0.140529 0.219911
v 0.319693 -0.140529 0.271101
v 0.326014 -0.152042 0.271101
v 0.326014 -0.152042 0.219911
v 0.319693 -0.140529 -0.122226
v 0.319693 -0.140529 -0.071036
v 0.326014 -0.152042 -0.071036
v 0.326014 -0.152042 -0.122226
v 0.319693 -0.140529 -0.051209
v 0.319693 -0.140529 -0.002979
v 0.326014 -0.152042 -0.002979
v 0.326014 -0.152042 -0.051209
v 0.319693 -0.140529 0.016479
v 0.319693 -0.140529 0.064709
v 0.326014 -0.152042 0.064709
v 0.326014 -0.152042 0.016479
v 0.319693 -0.140529 0.084166
v 0.319693 -0.140529 0.132396
v 0.326014 -0.152042 0.132396
v 0.326014 -0.152042 0.084166
v 0.319693 -0.140529 0.151854
v 0.319693 -0.140529 0.200084
v 0.326014 -0.152042 0.200084
v 0.326014 -0.152042 0.151854
v 0.403834 -0.293772 -0.051209
v 0.403834 -0.293772 -0.071036
v 0.403834 -0.293772 0.016479
v 0.403834 -0.293772 -0.002979
v 0.403834 -0.293772 0.084166
v 0.403834 -0.293772 0.064709
v 0.403834 -0.293772 0.151854
v 0.403834 -0.293772 0.132396
v 0.403834 -0.293772 0.219911
v 0.403834 -0.293772 0.200084
v 0.307939 -0.119123 -0.051209
v 0.307939 -0.119123 -0.071036
v 0.307939 -0.119123 0.016479
v 0.307939 -0.119123 -0.002979
v 0.307939 -0.119123 0.084166
v 0.307939 -0.119123 0.064709
v 0.307939 -0.119123 0.151854
v 0.307939 -0.119123 0.132396
v 0.307939 -0.119123 0.219911
v 0.307939 -0.119123 0.200084
v 0.307939 -0.119123 0.271101
v 0.307939 -0.119123 -0.122226
v 0.403834 -0.293772 0.271101
v 0.403834 -0.293772 -0.122226
vn -1.0000 0.0000 0.0000
vn 0.0000 0.0000 -1.0000
vn 1.0000 0.0000 0.0000
vn 0.0000 0.0000 1.0000
vn 0.0000 -1.0000 0.0000
vn 0.0000 1.0000 0.0000
vn 0.8766 0.4813 0.0000
vn 0.5545 0.3045 0.7745
vn -0.1530 0.9882 0.0000
vn 0.5545 0.3045 -0.7745
vn 0.7518 -0.6594 0.0000
vn 0.5742 0.3153 -0.7556
vn 0.7517 -0.6594 0.0000
vn 0.7517 -0.6595 0.0000
vn 0.5742 0.3153 0.7556
vn -0.1098 0.9940 0.0000
vn 0.7797 -0.6261 0.0000
usemtl Dark
s off
f 44//1 14//1 4//1 40//1
f 40//2 4//2 8//2 41//2
f 46//3 32//3 6//3 42//3
f 42//4 6//4 2//4 39//4
f 31//5 35//5 5//5 1//5
f 32//6 34//6 2//6 6//6
f 5//4 12//4 9//4 1//4
f 33//4 12//4 19//4 37//4
f 3//2 10//2 11//2 7//2
f 13//1 18//1 10//1 3//1
f 51//1 49//1 18//1 13//1
f 7//3 11//3 23//3 24//3
f 8//6 4//6 14//6 16//6
f 3//5 7//5 15//5 13//5
f 41//3 8//3 16//3 43//3
f 56//1 47//1 14//1 44//1
f 48//5 15//5 22//5 50//5
f 12//4 5//4 20//4 19//4
f 15//2 17//2 21//2 22//2
f 26//2 25//2 29//2 30//2
f 11//3 17//3 26//3 23//3
f 15//3 7//3 24//3 25//3
f 17//3 15//3 25//3 26//3
f 28//3 27//3 30//3 29//3
f 25//6 24//6 28//6 29//6
f 23//5 26//5 30//5 27//5
f 24//4 23//4 27//4 28//4
f 5//5 35//5 38//5 20//5
f 38//7 89//7 90//7 87//7 88//7 85//7 86//7 83//7 84//7 81//7 82//7 37//7 19//7 20//7
f 39//1 2//1 34//1 45//1
f 1//1 9//1 36//1 31//1
f 52//6 47//6 34//6 32//6
f 51//5 48//5 35//5 31//5
f 55//3 52//3 32//3 46//3
f 63//6 66//6 70//6 69//6
f 64//1 39//1 45//1 62//1
f 65//1 56//1 44//1 61//1
f 58//3 41//3 43//3 60//3
f 59//4 42//4 39//4 64//4
f 63//3 46//3 42//3 59//3
f 57//2 40//2 41//2 58//2
f 61//1 44//1 40//1 57//1
f 62//1 45//1 56//1 65//1
f 60//3 43//3 55//3 66//3
f 43//3 16//3 52//3 55//3
f 13//5 15//5 48//5 51//5
f 16//6 14//6 47//6 52//6
f 17//4 53//4 54//4 21//4
f 45//1 34//1 47//1 56//1
f 31//1 36//1 49//1 51//1
f 17//3 60//3 66//3 53//3
f 36//1 62//1 65//1 49//1
f 18//1 61//1 57//1 10//1
f 10//2 57//2 58//2 11//2
f 33//3 63//3 59//3 12//3
f 12//4 59//4 64//4 9//4
f 11//3 58//3 60//3 17//3
f 49//1 65//1 61//1 18//1
f 9//1 64//1 62//1 36//1
f 53//3 66//3 63//3 33//3
f 46//2 63//2 69//2 68//2
f 66//4 55//4 67//4 70//4
f 55//5 46//5 68//5 67//5
f 35//5 48//5 50//5 99//5 100//5 97//5 98//5 95//5 96//5 93//5 94//5 91//5 92//5 38//5
f 22//7 21//7 54//7 101//7 102//7 103//7 104//7 105//7 106//7 107//7 108//7 109//7 110//7 50//7
f 111//7 112//7 113//7 114//7
f 115//7 116//7 117//7 118//7
f 119//7 120//7 121//7 122//7
f 123//7 124//7 125//7 126//7
f 127//7 128//7 129//7 130//7
f 131//7 132//7 133//7 134//7
f 135//7 136//7 137//7 138//7
f 139//7 140//7 141//7 142//7
f 143//7 144//7 145//7 146//7
f 147//7 148//7 149//7 150//7
f 151//7 152//7 153//7 154//7
f 155//7 156//7 157//7 158//7
f 159//7 160//7 161//7 162//7
f 163//7 164//7 165//7 166//7
f 167//7 168//7 169//7 170//7
f 171//7 172//7 173//7 174//7
f 175//7 176//7 177//7 178//7
f 179//7 180//7 181//7 182//7
f 183//7 184//7 185//7 186//7
f 187//7 188//7 189//7 190//7
f 191//7 192//7 193//7 194//7
f 195//7 196//7 197//7 198//7
f 199//7 200//7 201//7 202//7
f 203//7 204//7 205//7 206//7
f 207//7 208//7 209//7 210//7
f 127//7 90//7 89//7 128//7
f 109//7 111//7 114//7 110//7
f 112//7 115//7 118//7 113//7
f 116//7 119//7 122//7 117//7
f 120//7 123//7 126//7 121//7
f 124//7 130//7 129//7 125//7
f 147//7 88//7 87//7 148//7
f 107//7 131//7 134//7 108//7
f 132//7 135//7 138//7 133//7
f 136//7 139//7 142//7 137//7
f 140//7 143//7 146//7 141//7
f 144//7 150//7 149//7 145//7
f 167//7 86//7 85//7 168//7
f 105//7 151//7 154//7 106//7
f 152//7 155//7 158//7 153//7
f 156//7 159//7 162//7 157//7
f 160//7 163//7 166//7 161//7
f 164//7 170//7 169//7 165//7
f 187//7 84//7 83//7 188//7
f 103//7 171//7 174//7 104//7
f 172//7 175//7 178//7 173//7
f 176//7 179//7 182//7 177//7
f 180//7 183//7 186//7 181//7
f 184//7 190//7 189//7 185//7
f 207//7 82//7 81//7 208//7
f 101//7 191//7 194//7 102//7
f 192//7 195//7 198//7 193//7
f 196//7 199//7 202//7 197//7
f 200//7 203//7 206//7 201//7
f 204//7 210//7 209//7 205//7
f 113//7 100//7 99//7 114//7
f 117//7 98//7 97//7 118//7
f 121//7 96//7 95//7 122//7
f 125//7 94//7 93//7 126//7
f 128//7 92//7 91//7 129//7
f 133//7 112//7 111//7 134//7
f 137//7 116//7 115//7 138//7
f 141//7 120//7 119//7 142//7
f 145//7 124//7 123//7 146//7
f 148//7 127//7 130//7 149//7
f 153//7 132//7 131//7 154//7
f 157//7 136//7 135//7 158//7
f 161//7 140//7 139//7 162//7
f 165//7 144//7 143//7 166//7
f 168//7 147//7 150//7 169//7
f 173//7 152//7 151//7 174//7
f 177//7 156//7 155//7 178//7
f 181//7 160//7 159//7 182//7
f 185//7 164//7 163//7 186//7
f 188//7 167//7 170//7 189//7
f 193//7 172//7 171//7 194//7
f 197//7 176//7 175//7 198//7
f 201//7 180//7 179//7 202//7
f 205//7 184//7 183//7 206//7
f 208//7 187//7 190//7 209//7
f 71//7 192//7 191//7 72//7
f 73//7 196//7 195//7 74//7
f 75//7 200//7 199//7 76//7
f 77//7 204//7 203//7 78//7
f 79//7 207//7 210//7 80//7
f 53//6 33//6 37//6 79//6 80//6 77//6 78//6 75//6 76//6 73//6 74//6 71//6 72//6 54//6
usemtl Material.006
f 78//8 203//8 324//8 348//8
f 106//9 154//9 265//9 266//9
f 129//8 91//8 340//8 233//8
f 204//10 77//10 347//10 327//10
f 70//3 67//3 68//3 69//3
f 151//11 105//11 263//11 264//11
f 92//12 128//12 214//12 339//12
f 76//8 199//8 320//8 346//8
f 168//9 85//9 261//9 262//9
f 126//8 93//8 338//8 229//8
f 200//10 75//10 345//10 323//10
f 86//13 167//13 259//13 260//13
f 94//10 125//10 234//10 337//10
f 74//8 195//8 316//8 344//8
f 145//9 149//9 257//9 258//9
f 122//8 95//8 336//8 225//8
f 196//10 73//10 343//10 319//10
f 150//14 144//14 255//14 256//14
f 141//9 146//9 253//9 254//9
f 96//10 121//10 230//10 335//10
f 72//15 191//15 312//15 342//15
f 143//14 140//14 251//14 252//14
f 118//8 97//8 334//8 221//8
f 192//10 71//10 341//10 315//10
f 137//9 142//9 249//9 250//9
f 139//14 136//14 247//14 248//14
f 98//10 117//10 226//10 333//10
f 209//8 190//8 304//8 329//8
f 133//9 138//9 245//9 246//9
f 114//15 99//15 332//15 217//15
f 187//12 208//12 310//12 283//12
f 135//14 132//14 243//14 244//14
f 206//8 183//8 300//8 325//8
f 108//9 134//9 241//9 242//9
f 100//10 113//10 222//10 331//10
f 184//10 205//10 330//10 303//10
f 131//14 107//14 239//14 240//14
f 283//7 310//7 309//7 284//7
f 315//7 341//7 344//7 316//7
f 287//7 314//7 313//7 288//7
f 337//7 234//7 233//7 340//7
f 339//7 214//7 213//7 353//7
f 211//7 238//7 237//7 212//7
f 235//7 262//7 261//7 236//7
f 259//7 286//7 285//7 260//7
f 354//7 218//7 217//7 332//7
f 331//7 222//7 221//7 334//7
f 333//7 226//7 225//7 336//7
f 335//7 230//7 229//7 338//7
f 219//7 246//7 245//7 220//7
f 223//7 250//7 249//7 224//7
f 227//7 254//7 253//7 228//7
f 231//7 258//7 257//7 232//7
f 243//7 270//7 269//7 244//7
f 215//7 242//7 241//7 216//7
f 247//7 274//7 273//7 248//7
f 251//7 278//7 277//7 252//7
f 255//7 282//7 281//7 256//7
f 267//7 294//7 293//7 268//7
f 239//7 266//7 265//7 240//7
f 271//7 298//7 297//7 272//7
f 275//7 302//7 301//7 276//7
f 279//7 306//7 305//7 280//7
f 291//7 318//7 317//7 292//7
f 263//7 290//7 289//7 264//7
f 295//7 322//7 321//7 296//7
f 299//7 326//7 325//7 300//7
f 303//7 330//7 329//7 304//7
f 319//7 343//7 346//7 320//7
f 311//7 352//7 342//7 312//7
f 323//7 345//7 348//7 324//7
f 327//7 347//7 350//7 328//7
f 307//7 349//7 351//7 308//7
f 112//10 133//10 246//10 219//10
f 155//13 152//13 267//13 268//13
f 134//15 111//15 216//15 241//15
f 153//9 158//9 269//9 270//9
f 207//12 79//12 349//12 307//12
f 116//10 137//10 250//10 223//10
f 159//11 156//11 271//11 272//11
f 80//8 210//8 328//8 350//8
f 138//8 115//8 220//8 245//8
f 157//9 162//9 273//9 274//9
f 79//16 37//16 351//16 349//16
f 120//10 141//10 254//10 227//10
f 163//14 160//14 275//14 276//14
f 77//16 80//16 350//16 347//16
f 142//8 119//8 224//8 249//8
f 161//9 166//9 277//9 278//9
f 75//16 78//16 348//16 345//16
f 124//10 145//10 258//10 231//10
f 170//13 164//13 279//13 280//13
f 73//16 76//16 346//16 343//16
f 146//8 123//8 228//8 253//8
f 165//9 169//9 281//9 282//9
f 71//16 74//16 344//16 341//16
f 127//12 148//12 238//12 211//12
f 84//14 187//14 283//14 284//14
f 54//16 72//16 342//16 352//16
f 149//8 130//8 232//8 257//8
f 101//12 54//12 352//12 311//12
f 132//10 153//10 270//10 243//10
f 188//9 83//9 285//9 286//9
f 37//15 82//15 308//15 351//15
f 154//15 131//15 240//15 265//15
f 89//15 38//15 353//15 213//15
f 136//10 157//10 274//10 247//10
f 171//14 103//14 287//14 288//14
f 87//15 90//15 212//15 237//15
f 158//8 135//8 244//8 269//8
f 104//9 174//9 289//9 290//9
f 85//15 88//15 236//15 261//15
f 140//10 161//10 278//10 251//10
f 175//13 172//13 291//13 292//13
f 83//15 86//15 260//15 285//15
f 162//8 139//8 248//8 273//8
f 173//9 178//9 293//9 294//9
f 81//15 84//15 284//15 309//15
f 144//10 165//10 282//10 255//10
f 179//14 176//14 295//14 296//14
f 38//17 92//17 339//17 353//17
f 166//8 143//8 252//8 277//8
f 177//9 182//9 297//9 298//9
f 99//17 50//17 354//17 332//17
f 90//13 127//13 211//13 212//13
f 147//12 168//12 262//12 235//12
f 183//14 180//14 299//14 300//14
f 97//17 100//17 331//17 334//17
f 169//8 150//8 256//8 281//8
f 181//9 186//9 301//9 302//9
f 95//17 98//17 333//17 336//17
f 128//16 89//16 213//16 214//16
f 152//10 173//10 294//10 267//10
f 190//14 184//14 303//14 304//14
f 93//17 96//17 335//17 338//17
f 174//15 151//15 264//15 289//15
f 185//9 189//9 305//9 306//9
f 91//17 94//17 337//17 340//17
f 111//11 109//11 215//11 216//11
f 156//10 177//10 298//10 271//10
f 82//17 207//17 307//17 308//17
f 50//12 110//12 218//12 354//12
f 110//16 114//16 217//16 218//16
f 178//8 155//8 268//8 293//8
f 103//12 102//12 314//12 287//12
f 115//11 112//11 219//11 220//11
f 160//10 181//10 302//10 275//10
f 208//9 81//9 309//9 310//9
f 105//12 104//12 290//12 263//12
f 113//16 118//16 221//16 222//16
f 182//8 159//8 272//8 297//8
f 107//12 106//12 266//12 239//12
f 119//11 116//11 223//11 224//11
f 164//10 185//10 306//10 279//10
f 191//17 101//17 311//17 312//17
f 109//12 108//12 242//12 215//12
f 117//16 122//16 225//16 226//16
f 186//8 163//8 276//8 301//8
f 102//9 194//9 313//9 314//9
f 123//14 120//14 227//14 228//14
f 167//12 188//12 286//12 259//12
f 195//17 192//17 315//17 316//17
f 121//16 126//16 229//16 230//16
f 189//8 170//8 280//8 305//8
f 193//9 198//9 317//9 318//9
f 130//11 124//11 231//11 232//11
f 172//10 193//10 318//10 291//10
f 199//17 196//17 319//17 320//17
f 125//16 129//16 233//16 234//16
f 194//15 171//15 288//15 313//15
f 197//9 202//9 321//9 322//9
f 88//14 147//14 235//14 236//14
f 176//10 197//10 322//10 295//10
f 203//17 200//17 323//17 324//17
f 198//8 175//8 292//8 317//8
f 201//9 206//9 325//9 326//9
f 148//9 87//9 237//9 238//9
f 180//10 201//10 326//10 299//10
f 210//17 204//17 327//17 328//17
f 202//8 179//8 296//8 321//8
f 205//9 209//9 329//9 330//9
